<?xml version="1.0" encoding="UTF-8" ?>
<!DOCTYPE svg PUBLIC "-//W3C//DTD SVG 1.1//EN" "http://www.w3.org/Graphics/SVG/1.1/DTD/svg11.dtd">
<svg width="181pt" height="50pt" preserveAspectRatio="none" viewBox="0 0 181 50" version="1.1" xmlns="http://www.w3.org/2000/svg">
<g id="#ee842afc">
<path fill="#ee842a" opacity="1.00" d=" M 174.28 0.00 L 179.11 0.00 C 179.93 1.56 180.90 3.20 180.48 5.04 C 179.09 14.80 180.64 24.61 181.00 34.37 L 181.00 44.37 C 180.70 45.05 180.11 46.39 179.81 47.07 C 172.54 47.57 165.26 46.93 157.99 47.13 C 139.02 48.79 119.96 47.78 101.01 46.41 C 95.12 46.00 89.25 46.78 83.43 47.53 C 71.01 49.28 58.43 47.74 45.99 49.04 C 38.66 49.37 31.32 49.26 23.99 49.52 C 18.42 49.85 12.71 47.79 7.31 50.00 L 0.94 50.00 C -0.30 44.71 1.36 39.36 0.97 34.02 C 0.66 28.53 -0.15 23.08 0.00 17.57 L 0.00 6.88 C 0.59 5.53 1.26 4.22 1.94 2.91 C 10.65 2.99 19.35 2.78 28.05 2.62 C 33.39 2.48 38.73 3.45 44.05 2.66 C 52.00 1.50 60.05 2.19 68.05 1.93 C 80.40 2.19 92.80 1.04 105.10 2.61 C 110.17 3.20 114.95 0.69 120.01 0.97 C 122.32 0.98 124.61 1.30 126.93 1.32 C 138.26 0.71 149.62 1.07 160.96 1.02 C 165.44 1.58 169.90 0.94 174.28 0.00 M 160.82 2.79 C 150.56 3.26 140.28 2.55 130.01 3.10 C 124.33 3.57 118.54 2.11 112.95 3.67 C 107.68 5.13 102.24 4.12 96.92 3.63 C 90.97 3.81 85.00 3.10 79.06 3.81 C 65.73 3.81 52.34 3.57 39.05 4.84 C 26.98 3.87 14.87 4.88 2.79 4.75 C 1.65 7.01 2.05 9.58 1.99 12.02 C 2.11 18.43 1.78 24.86 2.62 31.24 C 3.27 36.84 2.16 42.41 2.22 48.02 C 5.87 48.29 9.42 47.44 13.00 46.94 C 22.91 48.40 32.95 47.36 42.94 47.40 C 57.10 45.80 71.46 47.75 85.57 45.41 C 96.32 43.64 107.17 45.14 117.95 45.66 C 132.29 46.24 146.66 46.20 160.97 45.19 C 166.96 45.51 172.96 45.60 178.96 45.39 C 179.30 35.23 178.66 25.09 178.00 14.96 C 177.54 10.63 178.86 6.40 178.78 2.08 C 172.72 1.30 166.86 4.09 160.82 2.79 Z" />
</g>
</svg>
