<svg xmlns="http://www.w3.org/2000/svg" viewBox="0 0 90 24"><path d="M76 22.9c.6-.1 1.3-.1 1.9-.2 1.8-.2 3.6-.2 5.4.1l5.5-.1c.7 0 1.2-.8 1.2-1.8V14c-.2-1.6-.3-3.3-.4-5-.1-1.6-.3-3.3 0-5 .1-.4.2-.9.3-1.3v-1c0-1-.5-1.8-1.2-1.8h-2.9c-1 .2-1.9.4-2.9.5-1 .1-2-.1-3-.3-3.2.4-6.4.1-9.5.1-1.6 0-3.3 0-4.9.1-1.2 0-2.5.3-3.7 0-.8 0-1.6 0-2.4-.1H58c-.7.1-1.5.3-2.2.5-1 .2-2.1.3-3.1.2-1.5 0-3.1-.2-4.6-.5-1.4.3-2.8.1-4.1 0h-2.5c-1.7.4-3.1.6-4.5.5-.3 0-.7-.1-1-.1L23.5 1c-1.5.2-2.9.4-4.4.4-1.1 0-2.1-.1-3.2-.3l-14.4.3C.9 1.4 0 1.9 0 4l.1 8.7c.1.8.2 1.7.3 2.5.1 1.6.1 3.1 0 4.7 0 .5-.1.9-.2 1.4v1.1c0 1 .1 1.7.8 1.7l3-.1.9-.3c1.6-.4 3.1-.2 4.6.2l12.4-.2c.9-.1 1.9-.2 2.8-.3 2.3-.2 4.5 0 6.8-.1 2.3 0 4.6 0 6.8-.2 2.3-.1 4.5-.6 6.8-.8 4.5-.4 9 .2 13.5.4 2.5.1 4.9.1 7.4.2h10z" fill="#1d1d1b"/></svg>