<?xml version="1.0" encoding="UTF-8" ?>
<!DOCTYPE svg PUBLIC "-//W3C//DTD SVG 1.1//EN" "http://www.w3.org/Graphics/SVG/1.1/DTD/svg11.dtd">
<svg width="181pt" height="50pt" viewBox="0 0 181 50" preserveAspectRatio="none" version="1.1" xmlns="http://www.w3.org/2000/svg">
<g id="#1d1d1bfd">
<path fill="#1d1d1b" opacity="1.00" d=" M 173.32 0.00 L 179.15 0.00 C 179.90 1.56 180.85 3.17 180.48 4.98 C 179.58 13.03 179.74 21.23 181.00 29.24 L 181.00 44.40 C 180.70 45.07 180.10 46.41 179.79 47.08 C 172.50 47.56 165.21 46.92 157.93 47.14 C 138.95 48.79 119.89 47.77 100.93 46.41 C 93.94 45.91 87.00 47.15 80.07 47.93 C 72.40 48.58 64.68 48.49 56.99 48.45 C 50.98 48.41 45.02 49.34 39.01 49.24 C 31.00 49.14 22.96 50.05 14.99 49.00 C 12.34 48.61 9.75 49.31 7.22 50.00 L 0.92 50.00 C -0.28 44.35 1.46 38.65 0.93 32.96 C 0.48 27.82 -0.09 22.69 0.00 17.52 L 0.00 6.83 C 0.61 5.50 1.27 4.20 1.95 2.90 C 12.95 3.17 23.95 2.31 34.93 2.83 C 41.99 3.54 48.95 1.55 56.02 1.98 C 71.39 2.31 86.79 1.11 102.13 2.32 C 109.52 3.87 116.63 -0.22 124.05 1.19 C 136.69 1.07 149.36 0.80 162.02 1.08 C 165.83 1.50 169.65 1.07 173.32 0.00 M 169.12 2.76 C 165.81 3.63 162.45 2.72 159.11 2.78 C 149.41 3.32 139.69 2.50 129.98 3.11 C 124.36 3.54 118.64 2.15 113.10 3.63 C 107.79 5.15 102.29 4.11 96.92 3.65 C 90.97 3.77 85.01 3.12 79.07 3.81 C 65.70 3.80 52.29 3.59 38.97 4.83 C 26.94 3.85 14.87 4.91 2.82 4.73 C 1.64 6.97 2.04 9.57 1.98 12.01 C 2.11 18.34 1.78 24.71 2.60 31.01 C 3.28 36.69 2.19 42.34 2.21 48.01 C 5.12 48.11 8.04 47.89 10.89 47.23 C 14.57 46.37 18.23 47.95 21.94 47.76 C 31.31 47.44 40.71 47.83 50.05 46.85 C 59.01 46.41 68.01 47.02 76.97 46.37 C 83.01 45.96 88.97 44.69 95.03 44.58 C 103.01 44.40 110.95 45.40 118.92 45.70 C 132.92 46.24 146.97 46.17 160.95 45.20 C 166.95 45.51 172.95 45.60 178.96 45.40 C 179.30 35.24 178.65 25.12 178.00 14.99 C 177.55 10.65 178.85 6.40 178.77 2.06 C 175.54 1.88 172.28 2.02 169.12 2.76 Z" />
</g>
</svg>
