<?xml version="1.0" encoding="UTF-8"?>
<!DOCTYPE svg PUBLIC "-//W3C//DTD SVG 1.1//EN" "http://www.w3.org/Graphics/SVG/1.1/DTD/svg11.dtd">
<!-- Creator: CorelDRAW 2018 (64-Bit) -->
<svg xmlns="http://www.w3.org/2000/svg" xml:space="preserve" width="94.7468mm" height="86.5369mm" version="1.1" style="shape-rendering:geometricPrecision; text-rendering:geometricPrecision; image-rendering:optimizeQuality; fill-rule:evenodd; clip-rule:evenodd"
viewBox="0 0 16221.11 14815.53"
 xmlns:xlink="http://www.w3.org/1999/xlink">
 <defs>
  <style type="text/css">
   <![CDATA[
    .fil0 {fill:black;fill-rule:nonzero}
   ]]>
  </style>
 </defs>
 <g id="Layer_x0020_1">
  <metadata id="CorelCorpID_0Corel-Layer"/>
  <g id="_1641206424960">
   <path class="fil0" d="M9.01 11331.23c18.04,-174.3 77.3,-334.91 164.15,-485.54 156.55,-271.43 391.44,-467.47 624.21,-671.31 440.41,-385.69 894.36,-495.69 1294.79,-700.6 681.65,-348.86 1242.74,-636.83 1972.81,-867.49 17.89,-5.67 37.75,-5.38 46.09,-30.44 47,-140.9 135.17,-173.76 262.37,-98.68 13.83,8.15 18.78,11.59 29.89,-5.26 73.99,-113.01 150.75,-132.94 269.56,-69.53 24.57,13.18 34.84,15.22 53.14,-11.59 58.47,-85.71 175.4,-110.65 266.48,-62.03 11.4,6.09 20.65,18.49 35.56,14.98 76.36,-17.63 152.63,-35.75 238.21,-55.86 -125.56,-117.12 -173.11,-266.12 -219.6,-415.65 -0.48,-1.58 -1.63,-3.03 -1.93,-4.59 -4.95,-24.29 -17.99,-29.43 -43.13,-26.71 -102.48,11.06 -205.34,-46.98 -248.42,-140.18 -40.22,-87.09 -30.13,-174.73 4.66,-261.09 7.31,-18.18 17.99,-33.64 3.87,-55.09 -102.43,-155.09 -100.57,-326.44 -72.9,-500.38 7.84,-49.41 16.8,-93.44 -42.65,-117.36 -12.74,-5.14 -23.25,-19.21 -31.35,-31.47 -18.35,-27.65 -29.58,-18.11 -39.43,5.44 -18.61,44.63 -46.52,83.46 -73.76,123.03 -50.92,74.1 -100.69,150.08 -164.94,212.6 -135.9,132.2 -290.4,237.96 -472.18,298.65 -111.75,37.27 -151.91,14.74 -181.13,-97.96 -26.93,-103.82 -37.32,-209.57 -30.01,-316.35 21.37,-311.95 152.01,-564.05 425.07,-725.38 219.13,-129.36 444.77,-147.3 663.88,8.89 9.13,6.52 18.42,5.74 28.15,6.45 41.74,3.27 81.54,12.75 115.79,39.14 38.18,-68.48 72.06,-137.22 113.06,-201.35 183.67,-286.75 426.23,-472.78 787.22,-450.37 42.65,2.65 84.44,-8.58 118.87,-27.48 136.74,-74.95 283.02,-112.16 436.68,-128.16 128.76,-13.41 257.53,0.72 370.23,56.05 146.77,72.11 287.68,159.75 408.46,273.72 14.38,13.58 24.77,15.63 42.53,5.98 40.1,-21.62 83.96,-30.75 129.74,-29.6 12.86,0.31 25.6,3.27 37.01,-8.46 76.29,-78.27 174.54,-102.72 278.74,-117.7 237.36,-34.12 437.03,28.87 592.68,216.76 194.78,235.17 264.36,509.8 252.77,808.51 -3.87,99.25 -75.26,148.88 -173.11,125.15 -137.94,-33.52 -259.34,-100.99 -368.3,-191.34 -119.89,-99.42 -219.31,-217.38 -309.54,-345.29 -8.1,9.3 -13.23,19.02 -21.26,23.97 -47,28.87 -39.74,63.05 -20.84,107.93 84.2,199.56 132.39,407.21 127.02,625.17 -0.48,20.78 3.99,32.68 23.44,42.96 78.87,41.72 121.09,111.92 141.86,195.62 33.64,135.59 -27.36,237.12 -161.98,274.51 -45.61,12.62 -92.47,18.3 -138.25,9.66 -39.21,-7.36 -49.05,10.08 -54.67,42.05 -14.67,83.89 -42.77,163.67 -75.86,241.88 -25.61,60.71 -59.9,116.57 -101.05,177.03 77.56,-3.61 146.95,-10.63 216.04,-8.63 38.54,1.08 50.68,-16.08 59.56,-46.64 24.33,-83.82 89.01,-120.55 173.81,-101.28 55.88,12.69 104.74,38.66 147.73,76.65 76.17,-138.85 176,-151.96 269.13,-36.48 16.8,20.9 23.08,5.2 34.07,-0.96 78.58,-43.91 174.12,-16.08 210.12,65.78 11.97,27.24 26.02,31.88 51.76,32.43 136.38,3.01 272.76,6.28 408.96,12.74 30.2,1.46 45.06,-7.19 57.92,-32.85 70.01,-139.51 143.74,-277.28 211.75,-417.76 158.55,-327.48 300.31,-662.08 435.41,-1000.06 148.76,-371.93 344.09,-722.59 524.13,-1080.08 78.46,-155.76 153.78,-313.34 244.5,-462.51 206.44,-339.62 462.58,-641.73 716.3,-945.58 60.88,-72.97 129.67,-138.32 204.93,-196.59 20.12,-15.58 40.4,-30.8 66.26,-50.44 -132.51,-68.31 -263.45,-120.31 -395.36,-170.14 -233.56,-88.24 -462.94,-83.82 -692.76,18.85 -104.18,46.57 -211.15,89.63 -323.23,115.6 -219.31,50.86 -437.39,70.13 -647.41,-36.54 -135.05,-68.62 -265.44,-145.68 -384.78,-239.29 -206.87,-162.29 -382.68,-356.41 -544,-561.69 -245.46,-312.26 -415.94,-656.78 -403.87,-1068.37 0.55,-17.94 -1.08,-37.63 -7.91,-53.83 -81.12,-191.94 -93.26,-396.99 -82.38,-597.74 16.92,-311.76 157.82,-570.33 393.79,-779.12 215.14,-190.31 468.45,-298.67 740.6,-373.45 136.86,-37.56 276.98,-52.95 417.16,-69.32 23.2,-0.43 46.38,-0.91 69.58,-1.34 50.13,0.05 100.26,0.17 150.39,0.24l0 0c16.56,0.43 33.11,0.91 49.65,1.34 26.28,3.49 52.85,5.62 78.82,10.87 379,76.34 741.2,187.11 1049.88,438.59 274.32,223.54 539.65,453.83 755.63,736.01 164.89,215.38 289.13,456.77 435.84,683.88 61.67,95.31 93.67,205.17 130.63,311.76 18.3,52.54 8.17,105.22 -21.43,153.11 -45.3,73.38 -103.77,133.85 -177.81,178.53 -45.54,27.43 -91.2,54.79 -137.65,80.64 -26.38,14.67 -28.87,25.97 -3.73,45.83 54.77,43.37 107.86,88.86 161.19,133.97 15.05,12.74 24.4,17.39 45.37,2.89 178.1,-123.32 420,-85.4 553.71,84.68 37.15,47.18 69.1,97.72 95.55,151.6 9.48,19.38 18.66,28.69 44.34,27.84 99.4,-3.32 193.8,20.07 285.31,59.68 184.03,79.66 353.62,183.72 516.03,300.22 177.57,127.33 333.15,280.79 498.34,422.79 433.4,372.59 818.74,789.27 1128.51,1271.9 162.35,252.96 274.22,531.08 391.01,806.07 190.07,447.41 324.28,913.14 440.06,1384.58 73.62,300.05 141.69,601.08 183.05,907.66 28.88,214.16 48.81,429.06 62.03,644.79 17.1,279.41 19.95,558.56 -8.39,837.11 -25.42,249.57 -43.37,499.85 -75.67,748.75 -33.76,260.25 -57.8,521.78 -96.41,781.36 -223.41,1503.95 -229.33,2172.13 -258.25,2365.95 -12.28,82.08 -25.61,164.03 -38.9,245.99 -4.78,29.29 -14.07,60.4 -50.86,54.55 -38.64,-6.16 -31.88,-40.16 -29.41,-68.43 0.48,-4.95 1.88,-9.79 2.6,-14.74 41.43,-272.51 33.52,-1093.72 295.35,-2602.04 72.95,-420.6 111.85,-846.4 147.3,-1272.21 25.66,-308.32 54,-615.33 39.02,-925.64 -18.78,-389.08 -52.97,-775.87 -132.32,-1157.46 -149.07,-716.61 -337.92,-1420.73 -636.3,-2092.69 -153.95,-346.62 -329.52,-677.47 -566.04,-975.71 -67.33,-84.99 -144.41,-154.02 -237.84,-200.28 -190.26,-94.16 -394.82,-129.62 -605.72,-102.74 -204.81,26.09 -363.35,145.08 -500.4,288.15 -262.13,273.72 -319.26,616.78 -312.67,978.86 1.63,88.72 44.09,165.37 64.08,248.33 58.64,243.71 112.33,488.19 135.05,739.14 26.57,293.36 19.5,584.65 -30.92,874.31 -29.91,171.65 -81.72,340.22 -100.99,512.78 -36.24,324.69 -159.44,614.9 -337.62,880.11 -252.65,376.03 -532.04,730.86 -882.77,1024.81 -189.64,158.91 -406.9,237 -647.1,247.63 -244.6,10.82 -487.95,-15.34 -726.75,-73.93 -16.13,-3.92 -32.99,-4.95 -60.11,-8.89 61.67,70.49 116.88,130.89 146.89,208.08 20.77,53.26 49.46,87.21 111.37,107.74 223.35,73.99 451.06,134.4 670.66,221.23 111.06,43.98 208.48,100.87 294.8,179.39 33.69,30.68 70.49,47.77 113.66,54.48 143.38,22.34 284.88,7.62 425.8,-21.5 312.62,-64.63 613.99,-156.91 878.35,-344.86 163.43,-116.21 305.31,-256.82 449.12,-395 83.89,-80.57 168.74,-160.78 232.77,-259.53 257.95,-397.83 486.97,-809.8 674.7,-1247.26 239.82,-558.98 366.31,-1135.96 357.97,-1743.36 -3.68,-267.82 -6.23,-535.67 -9.3,-803.46 -0.38,-29.43 0.17,-62.46 38.16,-63.84 36.96,-1.27 43.31,29.41 43.18,60.14 -1.92,369.27 17.65,738.66 -0.05,1107.75 -11.47,239.17 -37.56,477.15 -94.52,710.4 -103.46,423.56 -282.42,818.68 -463.91,1212.35 -70.96,153.83 -161.45,297.76 -246.24,445.01 298.26,115.36 447.97,375.97 688.17,588.02 429.12,378.93 657.79,736.92 563.2,1306.4 -71.68,431.3 -166.27,770.85 -465.11,1089.02 -277.88,295.96 -554.4,515.07 -903.6,717.78 -381.05,221.16 -843.51,314.61 -1253.25,467.29 -229.38,85.47 -462.27,200.87 -697.64,271.84 -512.16,154.44 -1032.48,371.09 -1558.67,467.85 -362.27,66.55 -726.1,121.81 -1091.62,165.85 -296.8,35.75 -594.49,63.05 -892.85,84.37 -335.22,24.04 -670.66,40.9 -1006.58,45.97 -545.63,8.27 -1090.78,-3.63 -1635.19,-46.81 -301.46,-23.92 -522.21,-53.28 -821.65,-94.16 -410.53,-55.98 -897.39,-275.9 -1300.9,-370.85 -556.98,-131.06 -1214.72,-200.28 -1810.71,-495.19 -458.66,-226.91 -797.54,-507.93 -1155.34,-867.19 -85.64,-86.06 -247.75,-224.72 -325.96,-320.46 -206.01,-252.41 -378.09,-475.57 -466.28,-793.69 -17.87,-64.37 -19.93,-132.14 -45.59,-194.47l0 -289.54c3.13,-3.15 8.63,-6.04 9.01,-9.48zm3828.76 -4593.03c-14.5,-7.86 -25.78,0.55 -29.22,15.46 -5.32,23.2 -23.03,44.15 -12.63,73.5 14.86,-23.54 27.43,-42.15 38.47,-61.6 4.61,-8.1 20.72,-17.94 3.39,-27.36zm18.97 279.29c-5.74,-0.62 -12.52,-1.81 -15.89,8.15 3.37,3.68 6.83,8.94 11.59,12.38 7.67,5.56 10.82,0.36 12.14,-6.76 1.34,-6.83 0.5,-12.93 -7.84,-13.76zm449.22 -302.18c12.81,-12.62 23.13,-23.25 22.41,-43.54 -17.99,10.56 -29.22,20.65 -22.41,43.54zm-392.04 186.99c16.44,-1.46 21.09,-12.81 25.73,-23.85 -13.34,1.08 -22.7,6.57 -25.73,23.85zm59.44 -443.75c22.34,16.25 36.6,7.55 58.95,-6.64 -25.54,-3.73 -40.95,-5.55 -58.95,6.64zm42.39 179.87c74.47,-8.34 77.98,-68 103.41,-108.12 -49.29,17.53 -63.84,68.38 -103.41,108.12zm139.82 190.02c-19.69,27.17 -39.38,54.41 -61.67,85.21 19.33,6.76 36.36,12.69 55.74,19.45 5.26,-37.01 9.72,-68.98 14.19,-100.86 -2.71,-1.27 -5.5,-2.53 -8.27,-3.8zm30.68 -226.38c10.94,-9.35 16.37,-19.02 15.05,-39.91 -12.45,13.29 -20.78,22.65 -15.05,39.91zm98.2 -214.4c-11.52,-6.28 -5.07,-33.52 -28.01,-25.3 -9.25,3.25 -16.32,14.12 -13.95,23.97 5.74,24.23 27,7.5 40.16,13.11 12.86,12.07 26.86,16.97 47.95,5.14 -17.63,-6.47 -31.9,-11.73 -46.16,-16.92zm235.8 1.75c-24.52,18.85 -52.3,27.12 -58.16,56.65 -1.69,8.7 -16.62,22.89 3.37,27.79 11.3,2.77 26.45,10.51 35.58,-5.56 12.93,-22.77 28.45,-45.04 19.21,-78.87zm3744.75 -28.87c4.95,13.71 9.06,28.08 24.89,35.1 4.35,-23.32 -5.87,-38.97 -22.72,-51.58 -4.35,-8.03 -8.7,-16.01 -18.3,-33.71 -2.05,27.48 5.68,39.33 16.13,50.2zm-36.77 -61.86c15.15,0.79 6.4,-9.23 4.04,-15.34 -1.63,-4.4 -4.78,-8.2 -7.31,-12.31 -2.77,2.59 -5.55,5.19 -8.34,7.79 3.87,6.93 7.38,19.69 11.61,19.86zm-252.96 -453.32c17.34,28.15 31.59,42.27 51.7,51.16 -7.48,-20.78 -21.55,-35.03 -51.7,-51.16zm118.75 596.82c3.25,-2.53 6.45,-5 9.66,-7.55 -19.86,-39.26 -39.38,-78.69 -59.97,-117.53 -3.97,-7.48 -6.64,-21.37 -19.98,-16.49 -11.42,4.23 -9.43,15.84 -8.41,25.56 5.86,53.98 45.78,82.37 78.7,116.01zm-82.14 98.03c3.56,-5.19 8.1,-9.96 10.58,-15.65 2.82,-6.52 1.44,-12.5 -7.5,-13.34 -8.87,1.56 -14.91,7.6 -14.36,15.75 0.29,4.66 7.29,8.89 11.28,13.23zm-34.6 -490.79c6.69,9.91 13.46,19.76 20.24,29.65l27.65 36.6c0,0 0,0 0,0 1.88,10.2 7.07,17.46 18.13,20.6 3.68,-16.78 -7.43,-26.57 -16.37,-37.32 -6.52,-10.15 -13.11,-20.29 -19.64,-30.44 -6.69,-10.03 -13.41,-20.05 -20.12,-30.08 -4.23,-12.62 -12.43,-21.5 -26.81,-27.29 -7.24,19.07 8.82,27.12 16.92,38.28zm-196.12 -30.97c-19.26,-34.38 -31.83,-56.7 -44.39,-79.05 -3.68,1.68 -7.36,3.37 -11.11,5 13.59,22.17 10.87,53.5 55.5,74.05zm4091.61 -3545.12c5.2,-2.84 9.43,-7.31 17.58,-13.9 -9.36,-2.35 -14.55,-4.47 -19.93,-4.9 -7.86,-0.53 -10.82,4.9 -10.27,11.9 0.67,8.17 5.8,10.63 12.62,6.9zm2.79 -106.85c9.48,-31.23 -13.17,-38.59 -36.12,-54.84 4.83,28.27 9.18,47.77 36.12,54.84zm-7489.08 6209.67c-42.89,-7.55 -66.09,-50.08 -107.45,-57.63 -35.82,-6.52 -76.22,23.87 -87.88,64.7 -13.41,47.22 18.18,116.5 63.36,138.92 39.02,19.31 101.58,0.65 127.86,-37.15 13.59,-19.57 9.25,-41.26 10.92,-70.79 -1.27,-7.96 -1.56,-37.13 -6.81,-38.04zm192.78 -124.12c-42.82,-9.84 -82.86,10.58 -101.4,51.58 -19.62,43.55 -4.16,100.93 38.73,132.94 32.07,23.92 67.1,46.31 109.55,35.51 25.25,-6.45 46.02,-65.83 44.99,-115.24 -1.32,-67.28 -19.69,-88.24 -91.87,-104.79zm444.96 47.3c-19.52,-69.34 -69.82,-113.85 -127.92,-113.2 -25.73,-0.6 -49.22,7.43 -70.91,20.24 -50.01,29.6 -54.17,61.79 -11.9,101.35 37.63,35.15 75.86,70.13 129.31,80.14 57.87,10.82 97.36,-32.07 81.43,-88.53zm-194.18 -2149c-45.37,-28.57 -99.42,-22.36 -141.28,16.42 -78.69,72.9 -82.86,292.5 32.61,351.4 25.18,-117.24 70.07,-223.95 120.2,-328.56 8.99,-18.85 5.74,-28.39 -11.54,-39.26zm-9.55 974.69c0.5,2.72 3.82,7.12 5.56,7 18.23,-1.39 27.31,-17.21 40.22,-26.93 6.71,-5.02 9.79,-13.23 0.91,-25.97 -6.21,5.5 -12.93,8.87 -15.7,14.24 -7.12,14.14 -35.58,7.02 -30.99,31.66zm87.64 -886.57c-8.15,17.03 -16.3,34.05 -24.52,51.16 -7.91,19.69 -15.89,39.43 -23.87,59.12 -13.82,10.99 -12.5,27.74 -16.9,42.65 16.9,-9.72 23.68,-25.61 28.93,-42.46 8.75,-15.29 19.31,-29.77 21.01,-48.14 9.55,-20.6 19.14,-41.19 28.75,-61.79 24.41,-36.23 41.43,-75.96 52.25,-119.04 -31.66,33.88 -48.14,76.53 -65.66,118.51zm16.8 420.72c23.68,-17.33 27,-41.43 36.18,-61.91 3.15,-7.12 3.15,-17.57 -7.12,-20.41 -8.65,-2.36 -17.46,2.29 -19.88,10.92 -6.16,21.86 -20.6,42.65 -9.18,71.39zm96.63 -219.36c-13.22,5.5 -13.29,15.96 -9.18,28.15 13.65,-4.16 19.57,-13.29 21.69,-25.06 0.05,-0.36 -9.19,-4.47 -12.52,-3.08zm48.02 -422.41c-13.76,22.1 -8.39,46.02 -6.33,69.65 -1.46,17.45 -16.08,32.43 -9.67,56.82 20.48,-17.81 17.46,-37.56 15.89,-56.89 3.08,-9.78 6.16,-19.5 9.25,-29.22 15.87,-52.06 26.5,-105.63 46.81,-156.81 -40.95,28.45 -47.78,72.78 -55.93,116.45zm-1.51 250.76c24.82,-9.47 40.95,-26.02 48.62,-59.85 -31.35,14.5 -39.21,37.82 -48.62,59.85zm73.07 399.95c-16.13,0.86 -27.05,9.48 -36.89,27.12 21.08,-0.72 29.41,-13.41 37.27,-26.76 16.42,-0.17 26.02,-10.32 38.16,-27.1 -22.65,1.08 -30.99,13.34 -38.54,26.74zm59.32 -602.45c-9.36,14.31 -18.73,28.56 -28.09,42.82 24.04,-4.35 30.68,-21.31 28.09,-42.82zm144.22 -72.9c23.37,-7.31 27.79,-29.91 38.18,-47.05 -23.8,7.91 -29.79,28.2 -38.18,47.05zm36.42 215.19c52.97,-62.58 93.08,-128.83 137.65,-195.69 -50.73,0.86 -147.13,137.72 -137.65,195.69zm448.27 -645.87c-20.29,-2.05 -41.05,-7.43 -59.24,7.43 -23.27,-0.48 -46.28,0 -66.8,16.25 24.7,14.91 44.63,-5.74 66.5,-6.28 19.26,-3.56 38.54,-7.19 57.75,-10.75 0,0 0,-0.05 0.05,-0.05l-0.05 0.05c14.12,-3.92 28.27,-7.84 50.42,-14 -22.89,-4.71 -37.32,-9.43 -48.62,7.36zm92.3 315.21c-4.95,1.51 -8.27,8.2 -12.87,13.29 2.96,4.71 5.02,8.03 7.02,11.28 3.44,-5.07 7.36,-9.96 10.02,-15.39 2,-4.06 1.03,-10.82 -4.16,-9.18zm294.2 158.11c-2.53,-5.26 -7.31,-10.2 -12.4,-13.17 -4.35,-2.59 -9.11,-0.6 -7.36,8.53 3.32,2.96 7.43,7.96 12.69,10.99 6.57,3.8 9.18,-1.93 7.07,-6.35zm55.38 -86.9c2.82,12.74 9.9,20.72 26.93,26.09 -5.19,-16.13 -7.31,-28.57 -26.93,-26.09zm72.11 186.08c-8.15,8.39 -3.2,13.65 4.16,18.06 5.14,3.01 10.08,8.22 17.1,2.77 -2.05,-12.02 -10.99,-16.97 -21.26,-20.84zm314.54 -224.02c-19.5,-13.76 -39,-27.53 -58.45,-41.36 -7.98,-8.1 -18.61,-18.97 -27.74,-8.03 -5.31,6.45 6.83,15.87 16.01,19.98 15.77,19.76 37.63,30.08 60.16,39.45 13.1,11.9 26.93,21.74 51.33,15.94 -16.11,-10.14 -28.75,-18.04 -41.31,-25.97zm-197.48 87.16c-9.55,-13.41 -24.16,-12.69 -41.02,-19.21 8.34,17.75 17.34,26.21 30.44,30.2 90.53,76.29 202.09,111.68 308.03,158 5.14,2.23 14.38,3.32 17.45,0.41 6.66,-6.27 4.35,-17.02 -0.96,-22.39 -7.91,-7.86 -18.11,-14.07 -28.45,-18.73 -95,-43.06 -190.31,-85.59 -285.48,-128.28zm316.78 -124.65c-5.02,-15.22 -16.37,-23.13 -32.56,-28.09 -4.88,27.72 20.9,28.39 33.35,39.99 0,-0.07 0,-0.07 0,-0.07 8.15,9.18 16.9,17.09 30.49,15.53 0,0 0.55,-0.79 0.55,-0.79 -5.86,-14.55 -14.62,-25.54 -31.83,-26.57zm31.83 26.57l-0.55 0.79c6.11,13.83 14.67,24.76 32.44,26.76 -2.41,-19.88 -15.29,-25.8 -31.9,-27.55zm30.44 167.73c-19.09,-22.05 -38.9,-43.25 -71.08,-60.4 3.08,43.13 38.83,51.94 59.49,72.66 12.93,12.5 25.66,25.18 58.88,32 -21.67,-20.29 -34.48,-32.24 -47.29,-44.26zm-26.45 294.85c0.67,12.14 10.27,14.19 19.33,16.08 5.67,1.2 14.72,2.35 13.53,-6.47 -1.22,-8.51 -3.39,-19.88 -14.19,-22.34 -9.06,-2.12 -13.53,6.4 -18.66,12.74zm141.5 49.77c12.63,10.27 23.27,5.8 40.95,6.28 -17.15,-12.81 -27.72,-9.01 -40.95,-6.28zm39.87 -570.63c1.93,16.85 13.22,19.93 24.33,23.97 -1.03,-11.9 -6.76,-20.24 -24.33,-23.97zm58.71 56.1c26.69,28.69 41.43,48.91 66.55,57.13 -13.7,-21.5 -27.65,-42.77 -66.55,-57.13zm125.92 -69.34c-7,-11.18 -14.74,-20.9 -31.64,-17.87 5.12,17.94 18.78,24.21 29.89,32.85 6.04,11.18 13.71,20.48 28.75,23.37 -2.65,-18.42 -13.41,-29.34 -27,-38.35zm425.56 -3.2c2.77,-18.66 -3.2,-27.67 -13.47,-39.81 -6.33,17.82 2.48,27.36 13.47,39.81zm-1.93 -216.45c-7,-34.05 -30.01,-30.06 -59.13,-28.01 19.04,16.73 29.17,36.59 59.13,28.01zm-54.79 352.05c4.54,-147.13 -114.81,-280.23 -251.07,-289.88 -25.18,-1.81 -49.34,2.29 -73.38,9.72 -21.08,6.52 -22.1,15.03 -7.12,30.37 102,104.66 196.89,215.05 270.52,342.14 11.16,19.38 20.05,9.6 29.82,-0.98 26.47,-28.75 36.07,-62.63 31.23,-91.37zm-177.32 60.33c-0.62,16.56 3.37,24.52 10.8,31.23 15.46,-14.43 0.91,-20.48 -10.8,-31.23zm37.44 66.02c2.41,29.34 6.33,52.06 42.65,70.3 -12.33,-31.83 -21.21,-51.88 -42.65,-70.3zm8.51 1311.22c5.32,-22.58 10.15,-45.47 17.58,-67.33 15.41,-45.49 45.78,-66.14 95.72,-58.35 56.29,8.7 112.53,8.94 166.77,-13.95 69.15,-29.17 95.17,-76.96 80.86,-150.76 -23.01,-119.4 -82.44,-171.63 -202.57,-178.22 -52.06,-2.89 -73.81,-24.04 -79.71,-76.34 -9.31,-82.32 -11.49,-165.85 -48.93,-242.8 -18.97,-39.07 -43.37,-59 -90.96,-62.75 -365.21,-28.57 -716.06,-105.87 -1026.56,-314.61 -63.79,-42.89 -123.46,-90.29 -179.58,-142.48 -54.84,-51.04 -105.51,-105.94 -151.58,-166.03 -140.06,230.6 -304.59,434.26 -523.53,591.7 -153.78,110.72 -302.83,228.01 -454.43,341.86 -52.66,39.5 -78.87,94.4 -69.65,156.36 11.97,80.14 -6.39,136.86 -71.26,190.91 -60.95,50.8 -77.2,128.95 -67.9,209.71 9.55,82.91 91.08,159.51 198.84,143.14 55.2,-8.41 84.49,8.51 106.06,66.55 23.68,63.79 43.54,128.95 66.38,193.03 32.55,91.39 93.19,163.91 158.18,233.61 16.56,17.82 34,15.96 54.36,11.73 365.4,-75.67 733.29,-135.78 1104.19,-177.57 226.18,-25.49 452.55,-48.91 680.08,-58.71 24.69,-1.08 38.52,-12.26 53.21,-29.89 96.99,-116.69 150.27,-253.25 184.44,-398.8zm451.18 420.12c-18.9,-47.71 -108.54,-92.71 -157.34,-78.15 -42.82,12.75 -47.95,44.87 -43.01,75.45 0.43,74.58 22.1,106.83 81.31,127 35.32,12.02 69.39,11.54 95.29,-19.19 25.56,-30.27 39.99,-64.2 23.75,-105.1zm197.19 -111.3c-36.06,-1.22 -80.69,55.2 -82.08,103.87 -1.03,36.36 42.7,74.83 84.73,74.59 35.94,-0.17 60.95,-41.24 59.92,-98.32 -0.86,-48.19 -24.77,-78.82 -62.58,-80.14zm230.66 52.23c-30.39,1.22 -73.45,41.5 -72.37,67.71 2.12,49.46 40.59,97.78 76.53,96.15 32.37,-1.51 67.71,-55.62 65.18,-99.66 -2.05,-35.22 -34.74,-65.54 -69.34,-64.2zm-334.55 -6660.59c-13.17,-12.5 -13.46,1.93 -14.24,10.63 -0.43,4.47 1.2,9.18 2.59,17.99 11.13,-10.87 17.1,-23.44 11.66,-28.63zm37.75 256.81c-0.12,-0.79 -17.57,-2.12 -21.86,2.05 -19.88,19.33 3.01,37.99 4.23,56.82 15.34,-18.71 21.38,-37.85 17.63,-58.88zm115.84 -688.17c-5.24,-3.61 -13.76,-3.56 -17.02,3.75 -15.41,34.91 -46.57,62.39 -53.45,111.73 34.72,-31.64 50.61,-64.06 69.27,-94.57 4.16,-6.83 10.51,-14.43 1.2,-20.9zm141.09 9.84c23.08,0.98 31.42,-13.1 31.06,-34.48 -10.34,11.47 -20.66,22.96 -31.06,34.48zm125.03 -408.22c-9.06,-1.32 -13.71,5.8 -18.06,12.14 -2.41,7.14 3.44,7.55 7.19,8.34 8.94,1.81 15.7,-1.81 16.92,-11.18 0.36,-2.89 -3.51,-8.87 -6.04,-9.3zm295.23 41.62c26.33,-17.39 52.59,-34.79 78.87,-52.18 8.39,-4.66 26.88,-6.52 18.78,-18.42 -7.74,-11.42 -21.81,-1.34 -30.44,8.39 -29.29,12.69 -57.49,27 -80.81,49.46 -61.36,41.38 -122.74,82.74 -185.6,125.15 19.76,18.9 34.98,27.12 58.95,5.14 44.87,-41.19 93.32,-78.58 140.25,-117.53zm-27.74 351.09c3.75,-1.15 6.52,-5.26 10.15,-8.46 -11.66,-7.86 -23.8,-2.6 -24.64,5.5 -1.64,16.01 9.35,4.52 14.48,2.96zm68.26 -599.99c-9.91,3.32 -19.81,6.64 -29.65,9.96 -8.77,3.37 -19.4,3.44 -24.7,14 13.1,9.67 23.92,3.94 34.55,-4.04 11.04,-0.55 21.98,-1.27 30.06,-10.32 31.59,-4.9 59.49,-18.18 91.27,-39.38 -41.55,-1.15 -69.82,20.29 -101.52,29.77zm156.43 -54.84c21.2,43.9 47.05,34.72 75.91,12.55 -17.33,-42.34 -45.23,-26.57 -75.91,-12.55zm120.55 212.35c29.6,-3.49 50.8,-6.52 72.54,-25.66 -28.51,-2.48 -47.83,6.64 -72.54,25.66zm123.1 -282.35c24.16,2.65 40.1,7.79 59.85,-8.89 -25.37,-11.9 -37.75,0.74 -59.85,8.89zm-191.65 512.23c96.7,-23.44 171.89,-89.15 262.42,-134.02 -31.76,-4.95 -174.66,67.83 -262.42,134.02zm-2.48 169.53c16.68,13.83 34.55,10.1 52.18,8.58l95.5 0c-31.35,-25.66 -63.24,-19.62 -95.24,-8.58l-52.44 0zm383.96 -241.88c-6.71,-12.14 -14.45,-22.6 -30.75,-13.11 -26.81,15.53 -53.81,30.87 -80.76,46.26l0 0c0,0 0,0 0,0 -15.1,4.9 -29.96,10.22 -41.6,28.69 24.88,-2.29 44.68,-6.4 62.32,-18.54 25.13,-7.12 50.32,-13.83 75.26,-21.43 10.08,-3.08 25.18,-4.42 15.53,-21.86zm84.97 117.17c25.54,7.48 42.53,8.94 59.49,-6.23 -19.64,-9.25 -34.43,-1.44 -59.49,6.23zm63.84 -423.99c-9.96,-1.93 -19.57,-2.96 -21.43,11.71 -1.81,14.07 6.28,17.99 17.09,16.92 24.88,-2.41 52.78,13.46 77.01,-13.59 -25.78,-5.38 -49.17,-10.39 -72.66,-15.03zm288.94 428.58c-9.6,-9.19 -19.76,-15.17 -32.61,-5.68 6.83,6.04 13.59,12.02 20.36,18.06 10.44,11.42 9.6,31.35 30.25,38.23 3.39,-21.2 -3.92,-36.96 -17.99,-50.61zm397.47 -237.36c22.05,34.65 42.1,66.19 62.15,97.78 -0.24,13.05 8.7,25.54 18.3,18.61 12.69,-9.13 -3.01,-19.76 -8.99,-28.93 10.44,-51.94 -1.4,-87.88 -71.46,-87.45zm11.06 197.86c12.26,25.24 24.47,50.49 36.72,75.72 1.51,-33.15 -11.66,-57.3 -36.72,-75.72zm61.17 111.25c-6.57,17.33 1.81,27.17 13.9,37.25 4.52,-17.45 -5.38,-27.17 -13.9,-37.25zm98.75 397.71c-3.61,-1.69 -9.42,-5.8 -10.56,-4.78 -8.94,8.22 -0.96,16.44 1.03,24.7 -1.1,11.37 -2.24,22.77 13.83,29.41 10.32,-17.81 11.59,-33.88 -4.3,-49.34zm360.4 -405.88c-19.09,-12.43 -39.14,-23.49 -58.83,-35.08l0 0c-13.95,-9.43 -27.91,-18.9 -41.86,-28.33 -9.01,-9.6 -18.73,-17.63 -34.19,-16.37 1.87,15.65 14,20.19 24.94,25.97 13.11,9.96 26.33,19.93 39.5,29.96 18.61,15.94 37.08,31.95 55.81,47.77 9.36,7.86 18.97,5.75 25.66,-2.89 10.15,-13.17 -4.4,-16.68 -11.04,-21.02zm136.31 591.36c-11.11,-9.67 -23.68,-17.7 -35.64,-26.4 -4.52,-9.54 -12.26,-15.39 -21.98,-18.9 -3.32,-3.63 -6.52,-7.36 -9.96,-10.92 -16.42,-16.92 -36.11,-22.48 -58.76,-16.08 -6.95,1.93 -13.11,8.82 -8.89,14.5 13.35,17.75 31.71,26.76 54.67,23.85 9.72,3.39 19.38,6.71 29.1,10.03 11.47,14.07 22.65,28.39 34.62,42.03 6.69,7.62 12.07,23.25 26.09,8.65 13.7,-14.19 -1.69,-20.19 -9.25,-26.76zm13.46 507.04c-16.11,8.39 -11.11,20.89 -8.15,34.12 10.51,-9.91 17.15,-19.57 8.15,-34.12zm60.71 215.26c-1.51,-7.86 -3.03,-15.77 -4.54,-23.68 -3.73,1.44 -8.34,1.99 -10.99,4.52 -12.07,11.49 -1.75,20.12 4.35,29.17 9.6,13.35 19.21,26.64 28.88,39.92 -0.07,0.43 0.05,0.84 0,1.27 0.17,0.24 0.36,0.55 0.6,0.79l0 53.4c24.16,-20.3 12.07,-36.84 0,-53.4l0 -1.22 0 -0.05c-0.24,-0.24 -0.43,-0.48 -0.6,-0.79 1.75,-19.26 -5.8,-35.34 -17.7,-49.94zm23.01 -542.02c0.96,16.2 1.93,31.3 19.5,39.14 4.3,-19.45 -7.96,-29.77 -19.5,-39.14zm183.24 -458.83c-3.32,-6.4 -8.34,-12.75 -14.19,-16.92 -3.68,-2.6 -8.7,0.67 -8.75,6.76 2.05,8.27 6.69,14.02 14.91,17.03 7.48,2.84 9.48,-4.11 8.03,-6.88zm22.48 471.28c3.73,26.21 11.64,41.38 27.17,57.87 -0.72,-23.63 -4.11,-41.38 -27.17,-57.87zm-5.08 672.77c-3.13,2.6 -6.28,5.14 -9.42,7.74 15.22,16.25 30.49,32.43 45.71,48.61 1.76,-32.55 -21.86,-40.1 -36.3,-56.34zm189.16 -1221.65c-14.31,-23.2 -30.37,-46.28 -57.13,-56.77 -7.74,-3.03 -11.54,7.41 -9.13,12.79 11.49,25.49 29.91,45.37 49.29,62.88 11.23,-5.38 21.67,-11.18 16.97,-18.9zm7.86 1377.17c-7.24,20.24 10.2,22.7 24.76,32.55 -2.05,-20.84 -8.46,-30.13 -24.76,-32.55zm131.49 -152.75c-0.6,2.96 -1.22,5.86 -1.81,8.82 4.23,6.83 8.22,14.26 17.99,12.75 0.98,-0.12 2.6,-6.23 1.69,-7.14 -5.62,-5.19 -11.9,-9.66 -17.87,-14.43zm289.78 467.24c-25.85,-21.38 -50.37,-30.73 -85.28,-28.98 -76.58,3.8 -152.2,-8.7 -226.13,-30.32 -194.9,-57.08 -365.59,-156.55 -515.55,-292.74 -73.87,-67.11 -149.31,-132.75 -214.59,-208.44 -21.33,-24.64 -69.17,-29.82 -61.79,-76.39 5.74,-36.48 40.82,-50.63 62.44,-75.02 29.6,-33.45 49.05,-72.66 52.8,-116.2 13.83,-160.66 -37.2,-294.8 -171.17,-390.71 -59.68,-42.77 -125.2,-49.29 -193.94,-21.09 -47.89,19.64 -81.6,50.27 -88.24,104.49 -3.63,29.72 -13.59,56.6 -46.45,63.43 -33.81,7.05 -51.45,-16.8 -66.86,-41.62 -104.91,-169.41 -246.96,-303.61 -402.67,-425.02 -172.92,-134.88 -375.13,-193.75 -586.87,-231.08 -136.38,-24.04 -272.22,-21.74 -406.23,4.83 -204.08,40.52 -376.33,141.88 -503.89,307.12 -135.41,175.45 -228.66,370.83 -231.14,598.34 -2.77,251.07 39.38,492.06 163.31,715.41 262.37,472.78 616.23,854.62 1093.01,1117.83 203.73,112.52 414.64,99.35 629.4,47.17 108.48,-26.33 212.12,-68.19 313.53,-112.94 249.14,-109.91 497.56,-111.56 751.04,-17.15 229.81,85.53 453.52,180.35 641.06,344.28 111.18,97.18 192.13,215.02 247.56,351.09 16.37,40.28 28.75,82.01 24.04,126.11 -3.2,29.7 7.74,34.55 33.64,26.45 43.19,-13.41 83.96,-31.3 120.92,-57.56 208,-147.8 318.83,-355.92 370.18,-599.99 18.4,-87.81 31.52,-176.67 27.36,-266.89 0,-29.91 0.91,-59.85 -0.12,-89.69 -3.63,-100.62 -47.9,-172.37 -130.53,-235.85 -204.2,-156.98 -400.31,-324.57 -598.84,-488.86zm-26.14 1485.36c11.04,97.06 52.83,174.12 127.31,227.39 -12.69,-105.27 -63.36,-187.3 -116.62,-268.3 -3.27,-5.12 -5.31,-12.62 -9.96,-14.91 -8.58,-4.28 -9.96,3.44 -9.84,9.84 0.24,15.89 -1.87,32.25 9.13,45.97zm635.79 -1089.03c-19.93,-65.76 -66.24,-101.82 -118.73,-94.93 39.45,31.52 75.74,60.57 118.73,94.93zm121.4 -209.62c-99.4,-99.42 -265.56,-105.58 -401.51,-22.96 24.52,21.31 47.77,42.1 71.75,61.96 4.28,3.58 15.82,6.28 16.78,4.73 29.48,-45.9 69.22,-25.8 107.45,-17.94 55.57,11.42 95.38,46.38 128.52,88.67 43.31,55.2 74.54,117.58 99.78,183.05 68.43,177.51 70.91,359.43 40.71,544.6 -38.95,238.93 -127.8,452.92 -302.83,625.55 -54.72,53.98 -113.92,102.24 -184.1,134.86 -149.48,69.53 -261.46,35.22 -348.85,-105.82 -58.11,-93.67 -76.22,-197.36 -74.47,-305.43 0.91,-55.13 2.41,-55.13 -48.07,-89.63 -57.15,177.33 -32.2,339.26 78.21,490.01 117.17,160.11 337.56,202.09 499.54,86.78 252.05,-179.37 398.15,-423.32 450.94,-729.35 30.01,-173.94 60.45,-346.43 56.84,-523.58 -3.39,-169.24 -74.54,-309.3 -190.69,-425.5zm398.8 5990.59c154.85,-249.69 245.58,-519.78 282.66,-811.8 25.3,-198.94 88.91,-391.73 113.49,-591.58 30.32,-246.79 33.45,-493.52 9.66,-741.39 -21.67,-225.63 -61.6,-447.6 -124.96,-664.72 -32.61,-111.73 -71.26,-220.8 -73.07,-339.17 -5.68,-363.66 57.2,-707.2 308.63,-988.54 142.65,-159.68 312.48,-287.61 527.33,-332 194.54,-40.16 386.96,-11.28 574.56,50.86 14.12,4.71 28.44,8.87 42.75,13.1 1.34,0.36 3.15,-0.91 10.08,-3.08 -24.33,-26.64 -47.05,-51.76 -69.99,-76.7 -322.29,-349.75 -682.8,-657.31 -1059.31,-945.77 -151.65,-116.2 -320.41,-207.83 -501.3,-274.25 -52.23,-19.21 -106.47,-25.01 -160.66,-32.73 -21.61,-3.08 -30.37,2.77 -26.02,26.76 39.5,220.02 5.19,435.15 -33.45,652.34 -34.98,196.78 -97.36,379.24 -211.57,542.38 -81.9,117.04 -187.18,212.96 -306.88,289.3 -179.25,114.33 -439.57,60.93 -570.15,-106.97 -133.54,-171.84 -167.73,-361 -108.05,-568.59 8.15,-28.15 13.83,-48.72 -18.25,-71.2 -33.15,-23.25 -50.25,-6.88 -72.9,9.79 -63.17,46.26 -126.23,93.31 -177.86,152.25 -282.06,321.51 -556.93,648.92 -779.48,1015.76 -122.43,201.8 -215.92,419.28 -325.97,627.72 -172.32,326.25 -341.37,654.5 -474.48,998.4 -155.52,401.89 -343.11,788.19 -531.01,1175.15 -86.92,179.03 -208.49,329.23 -333.58,480.23 -242.13,292.13 -518.58,548.21 -809.39,789.87 -53.4,44.39 -111.13,83.53 -167.54,125.56 220.39,86.73 350.3,254.22 437.34,462.34 7.67,18.3 17.51,37.7 17.93,56.72 1.81,91.87 66.32,109.31 137.53,121.81 14.62,2.6 24.94,4.85 33.28,-10.49 9.36,-17.03 27.48,-23.75 44.03,-31.11 269.31,-120.68 496.1,-301.99 710.45,-500.28 324.69,-300.29 601.44,-643.28 879.33,-985.87 192.73,-237.67 394.03,-468.19 559.7,-726.51 152.73,-238.15 282.3,-488.98 406.41,-742.84 19.57,-39.98 9.55,-72.04 -4.23,-111.92 -26.33,-76.15 -40.58,-156.55 -58.88,-235.36 -42.65,-183.12 -42.53,-368.6 -35.52,-555.35 8.17,-217.84 23.32,-434.79 54.97,-650.41 12.02,-82.08 28.2,-163.55 44.09,-245.03 5.67,-29.1 23.01,-50.25 56.41,-40.64 26.93,7.72 34.55,29.96 27.05,55.8 -42.34,145.93 -55.26,296.85 -74.05,446.59 -19.02,151.84 -20.48,305.07 -30.56,457.61 -18.06,272.87 33.59,534.57 111.56,794.82 138.61,462.72 267.01,928.55 416.8,1387.94 19.57,59.97 56.05,118.85 57.8,179.08 2.29,78.99 56.24,73.74 101.23,88.12 374.94,119.47 750.85,236.57 1106.84,407.19 38.35,18.35 49.15,5.92 67.22,-23.2zm-6505.51 690.35c-173.76,58.64 -289.73,184.03 -381.05,335.32 -55.8,92.47 -24.69,207.11 70.37,267.25 27.12,-82.2 71.58,-150.03 117.36,-217.48 87.09,-128.35 214.11,-206.51 345.47,-279.53 25.48,-14.12 55.98,-28.08 73.43,6.59 18.49,36.72 -11.59,51.94 -39.67,66.8 -154.2,81.34 -287.13,185.83 -371.87,342.92 -20.65,38.23 -39.07,77.13 -49.94,119.11 -19.16,74.29 17.57,156.12 84.68,190.98 54.24,28.15 108.48,4.28 115.65,-54.24 22.89,-185.41 132.82,-314.13 272.22,-424.35 7.79,-6.11 16.37,-11.49 25.25,-15.89 23.49,-11.54 46.07,-12.26 60.57,13.29 13.59,23.99 0.31,42.15 -19.02,54.84 -63.29,41.74 -115.43,95 -161.38,154.62 -82.14,106.49 -122.14,224.62 -90.79,359.14 15.29,65.83 53.76,112.16 124.29,128.15 37.39,8.46 52.97,-6.03 59.32,-39.55 4.59,-24.4 10.08,-48.69 14.43,-73.21 28.51,-161.74 107.33,-299.27 208.19,-425.19 74.71,-93.32 174.92,-146.77 290.52,-171.36 44.8,-9.54 89.39,-2.84 131.49,16.73 26.62,12.45 41,33.47 41.98,62.58 0.96,28.51 -19.76,40.4 -41.93,49.6 -134.02,55.56 -195.98,169.53 -235.66,298.24 -15.53,50.42 -8.1,102.86 36.72,141.45 21.26,18.3 37.92,17.33 58.16,-6.23 176.19,-205.15 388.53,-366.91 620.22,-503.34 112.4,-66.2 235.37,-107.14 367.46,-115.67 33.09,-2.11 64.13,10.27 100.38,13.41 -26.04,-120.97 -78.87,-224.6 -157.1,-314.78 -71.08,-81.9 -144.41,-162.35 -257.77,-186.39 -62.4,-13.23 -119.47,-12.09 -171.29,36.48 -65.71,61.67 -147.85,58.71 -230.66,44.68 -214.83,-36.23 -430.27,-68.91 -649.21,-54.48 -157.46,10.39 -314.91,21.98 -471.75,38.97 -87.88,9.54 -161.87,57.61 -231.74,109.61 -10.46,7.74 -19.45,18.61 -26.28,29.72 -17.75,28.93 -16.49,61.79 7.79,82.33 26.81,22.63 60.4,12.38 84.99,-10.34 63.23,-58.4 136.12,-100.5 214.59,-134.02 10.68,-4.59 21.67,-8.46 32.61,-12.38 28.39,-10.2 58.52,-16.85 70.72,19.76 11.18,33.45 -14.62,46.74 -41.74,55.86zm3967.86 -1368.42c398.99,77.01 796.51,141.69 1192.66,249.5 -154.85,-481.48 -310.45,-956.14 -440.6,-1441.49 -209.45,425.74 -451.3,827.86 -752.07,1192zm1566.35 1803.57c185.96,-146.64 358.45,-306.87 505.88,-493.38 124.72,-157.77 252.29,-313.22 369.34,-477.08 29.34,-41 15.58,-49.34 -21.14,-67.4 -269.32,-132.15 -555.59,-219.36 -837.84,-316.66 -350.59,-120.8 -711.84,-201.37 -1075.78,-270.21 -146.77,-27.79 -293.29,-56.41 -440.06,-84.2 -91.56,-17.34 -163.48,3.32 -224.91,83.7 -220.99,289.49 -452.85,570.52 -705.19,833.54 -100.02,104.25 -206.75,202.09 -310.45,302.9 -5.92,4.71 -16.37,9.01 -16.85,14.19 -1.28,13.05 10.87,7.79 16.78,6.76 10.75,-1.75 21.02,-6.16 31.47,-9.48 177.15,-28.98 356.11,-39.43 534.64,-55.92 342.87,-31.78 650.36,59.97 936.46,241.83 90.84,57.73 174.56,126.71 278.5,163.36 130.94,46.21 266.46,53.28 402.79,56.17 93.12,2 186.32,2.6 279.39,0.24 76.1,-1.87 142.9,22 194.73,74.18 34.43,34.6 55.44,18.66 82.26,-2.55zm-1310.74 108.9c165.78,35.15 332.43,62.93 501.53,77.61 223.35,19.4 441.26,12.57 646.67,-92.4 36.6,-18.73 36.43,-28.81 3.75,-50.13 -37.68,-24.65 -78.09,-34.91 -122.48,-35.34 -121.4,-1.1 -242.87,-4.11 -364.26,-4.35 -205.24,-0.36 -391.13,-54.72 -560.61,-175.28 -206.56,-146.88 -431.66,-254.75 -688.96,-280.3 -133.04,-13.23 -265.86,-3.51 -398.38,6.45 -145.68,10.99 -291.29,24.28 -434.38,56.6 -115.29,26.02 -225.75,59.25 -320.03,137.77 -86.97,72.4 -188.26,124.41 -290.09,174 -12.93,6.28 -29.41,7.98 -37.51,24.23 97.91,31.28 195.38,62.32 292.74,93.73 13.47,4.35 24.16,3.99 36.84,-4.83 165.91,-114.95 353.81,-173.41 549.93,-206.8 147.18,-25.13 295.16,-4.85 442.58,5.07 101.16,6.76 201.37,19.02 298.55,51.09 92.95,30.75 178.65,75.74 251,139.82 57.08,50.56 123.16,68.26 193.1,83.05zm5 233.61c-77.18,-98.49 -164.46,-187.23 -262.54,-265.2 -147.42,-117.24 -321.37,-152.44 -503.17,-163.74 -91.25,-5.62 -182.45,-10.03 -273.89,-12.33 -211.22,-5.38 -400.26,71.03 -586.39,156.14 -65.97,30.08 -115.36,84.06 -151,147.9 -11.71,20.96 -26.09,46.93 -3.75,69.17 22.12,21.91 50.68,23.92 78.7,10.44 46.21,-22.22 91.75,-45.9 137.96,-68.12 14.79,-7.07 30.44,-13.66 46.38,-16.62 21.38,-3.97 40.35,2.6 47.29,26.04 6.83,23.13 -5.43,37.13 -24.82,48.01 -189.1,105.89 -352.29,366.19 -367.03,584.89 -4.66,69.41 13.29,99.97 65.04,110.65 51.16,10.63 112.34,-26.26 126.18,-80.81 20.12,-79.35 50.61,-154.26 85.23,-228.11 60.33,-128.83 166.02,-213.75 278.84,-291.9 14.93,-10.32 32.14,-18.23 51.1,-17.7 22.22,0.62 38.71,10.94 43.79,33.4 5.07,22.6 -4.23,37.63 -26.47,46.57 -105.33,42.29 -186.44,117.05 -246.35,209.33 -81.6,125.63 -127.8,265.76 -130.77,417.84 -0.91,44.51 8.39,86 31.64,123.68 30.82,49.96 76.41,48.93 102.69,-2.65 12.02,-23.49 20.77,-48.79 29.77,-73.74 90.11,-250.52 246.84,-449.6 463.37,-602.95 17.75,-12.57 35.39,-20.78 53.93,-4.28 17.89,15.99 15.05,36.06 4.3,54.6 -6.52,11.23 -15.34,21.67 -24.82,30.68 -160.61,152.08 -232.36,344.38 -250.64,559.63 -4.42,51.58 8.2,102.43 30.01,150.15 11.59,25.3 27.72,49.72 56.65,50.13 32.07,0.5 42.03,-29.58 50.06,-54.77 41.14,-129.93 88.19,-257.42 148.76,-379.73 45.37,-91.68 105.15,-173.09 174.13,-248.04 18.23,-19.81 39.57,-42.89 66.68,-15.34 24.76,25.12 8.2,49.03 -10.99,69.7 -116.52,125.25 -199.32,269.13 -238.88,436.44 -10.14,42.99 -16.97,100.19 23.99,116.92 43.37,17.7 75.19,-31.28 95.79,-69.58 50.3,-93.55 96.39,-189.28 157.99,-276.67 129.31,-183.5 288.15,-335.39 484.63,-444.05 62.82,-34.72 137.84,-41.43 211.88,-52.42 -7.07,-33.81 -26.16,-59.24 -45.25,-83.53zm562.19 349.77c-147.66,-44.34 -296.13,-86.37 -442.84,-133.73 -168.19,-54.17 -305,5.38 -430.63,110.53 -165.18,138.32 -299.39,301.56 -393.79,496.17 -21.79,44.8 -42.89,90.22 -75.79,128.34 -66.02,76.34 -141.16,79.37 -210.86,8.46 -5.07,12.75 -9.6,25.25 -14.98,37.32 -20.72,46.81 -51.21,83.36 -106.35,85.41 -56.05,2.05 -94.21,-29.96 -119.59,-76.17 -42.15,-76.7 -53.64,-160.06 -44.99,-246.36 7.91,-78.69 25.37,-155.45 51.76,-230.65 -25.73,-7.07 -29.89,14.07 -38.11,26.02 -51.16,74.35 -86.18,156.91 -118.68,240.63 -11.95,30.92 -22.7,62.75 -38.54,91.61 -50.18,91.39 -160.83,94.95 -219.23,7.62 -40.95,-61.31 -54.61,-130.65 -51.53,-205.17 -27.36,9.01 -49.77,19.26 -75.55,20.17 -99.42,3.51 -166.87,-55.56 -168.76,-154.91 -2.53,-129.14 30.27,-250.23 96.82,-361 32.32,-53.76 69.1,-104.79 106.06,-160.42 -65.64,-8.03 -120.07,-30.56 -136.07,-98.08 -14.55,-61.72 18.06,-112.4 51.58,-163.98 -148.04,-52.18 -296.8,-92.64 -445.8,-131.96 -22.46,-5.98 -45.66,-10.15 -67.28,-18.3 -158.11,-59.49 -307.3,-27.6 -451.95,44.51 -83.22,41.55 -164.34,87.28 -237.48,145.56 -79.25,63.24 -158.24,126.78 -237.55,189.88 -64.13,51.04 -120.78,109.02 -170.67,174.08 -46.09,59.97 -96.76,67.1 -159.94,24.64 -66.8,-44.94 -100.98,-144.1 -75.62,-231.33 35.94,-123.94 96.65,-232.82 202.52,-311.82 7.55,-1.93 16.97,-3.99 16.49,-13.11 -0.43,-8.46 -9.66,-5.43 -15.1,-5.38 -11.11,0.19 -22.41,0.91 -30.68,10.15 -89.03,20.72 -163.02,66.91 -219.42,137.89 -102.93,129.36 -177.69,271.48 -196.9,439.5 -12.26,107.16 -80.81,149.12 -184.46,118.03 -89.57,-26.95 -139.99,-91.82 -163.79,-178.91 -5.68,-20.77 -10.7,-34.43 -35.03,-25.73 -118.75,42.46 -240.51,-85.76 -256.64,-191.7 -3.56,-23.3 -11.23,-37.01 -31.9,-50.01 -142.6,-89.87 -179.85,-253.91 -91.32,-397.83 21.69,-35.22 46.76,-68.26 70.31,-102.26 -102.5,-61.24 -117.48,-152.01 -37.15,-260.97 -85.4,0 -165.97,2.59 -243.21,24.7 -268.04,76.63 -479.68,221.9 -569.43,499.9 -44.99,139.34 -37.03,283.26 5.8,421.81 13.83,44.7 69.94,60.81 113.85,73.5 125.92,36.31 254.09,65.06 380.01,101.47 314.31,90.96 639.6,138.37 951.51,237.31 389.2,123.44 775.99,255.35 1172.38,353.79 470.68,116.93 929.93,273.96 1400.37,390.72 304.52,75.6 612.01,135.7 923.53,178.1 224.86,30.56 450.32,64.68 669.74,126.95 4.47,1.27 9.55,0.19 14.62,0.19 3.87,-16.25 -8.34,-24.76 -14.86,-35.03 -78.81,-124.06 -112.33,-257.05 -87.21,-404.06 24.82,-145.25 35.64,-293.77 112.77,-425.32 88.53,-150.93 214.59,-255.78 379.95,-313.15 7.55,-1.34 15.03,-2.65 22.53,-3.99 -8.94,-9.42 -19.21,-15.77 -32.92,-13.65zm-6010.08 -946.06c-110.15,-98.63 -215.26,-203.48 -346.86,-275.18 -72.59,-39.5 -149.72,-63.17 -232.22,-68 -116.27,-6.88 -206.44,46.02 -257.53,150.81 -24.23,49.7 -41.81,101.34 -40.78,180.95 9.48,95.07 64.15,183.31 172.2,237.12 80.81,40.28 168.09,52.54 256.02,56.46 106.18,4.73 212.79,2.17 318.06,20.6 21.13,3.7 34.67,-0.84 39.19,-24.64 15.82,-82.81 51.34,-157.63 96.53,-227.94 12.86,-19.98 14.43,-33.16 -4.61,-50.18zm-693.72 1902.56c-1.56,48.19 -0.96,96.53 -3.73,144.65 -14.26,247.51 107.45,412.69 317.26,523.72 203.84,107.86 423.51,131.61 648.9,112.45 147.2,-12.5 293.29,-38.47 440.54,-49.82 172.01,-13.23 336.97,13.95 488.62,105.56 132.39,80.04 261.16,164.84 387.81,253.67 172.18,120.85 371.74,170.98 576.31,207.28 183.79,32.61 368.96,56.29 554.81,54.73 363.9,-3.03 709.13,-72.73 1001.57,-312.86 159.87,-131.31 332.12,-246.43 533.73,-303.8 219.96,-62.7 445.37,-72.85 671.86,-42.77 191.1,25.37 381.72,53.04 575.04,55.33 61.36,0.67 122.72,6.57 184.1,10.92 158.96,11.35 301.49,-38.35 434.91,-118.92 63.96,-38.59 113.85,-90.77 134.14,-161.98 -176.96,-0.74 -343.11,-3.08 -497.61,-103.29 -89.33,-57.87 -201.78,-74.53 -307.72,-94.45 -277.4,-52.06 -556.93,-91.7 -835.36,-137.53 -367.03,-60.45 -727.96,-151.65 -1083.71,-261.82 -494.95,-153.23 -999.63,-271.67 -1496.04,-419.59 -243.45,-72.52 -479.49,-169.46 -726.63,-229.14 -388.91,-93.85 -778.23,-185.77 -1164.52,-289.9 -40.04,-10.82 -80.95,-20.12 -117.48,-40.35 -18.18,-10.02 -33.28,-8.03 -51.4,-0.79 -126.54,50.75 -257.24,89.03 -387.03,129.98 -149.24,47 -284.66,119.28 -403.03,222.14 -20,17.34 -38.95,36.55 -55.38,57.27 -80.76,101.64 -78.15,198.89 6.76,297.45 39.02,45.23 85.4,84.73 114.81,137.58 43.79,78.87 61.38,164.34 58.47,254.27zm7381.1 -528.48c-18.06,-57.73 -46.04,-109.91 -89.69,-153.23 -141.21,-139.99 -314.73,-196.95 -508.55,-183.96 -121.64,8.15 -214.3,83.7 -296.61,168.93 -108.12,111.92 -146.89,253.49 -169.29,401.7 -6.95,45.97 -14.62,91.87 -19.4,138.06 -20.53,197.86 78.22,343.42 209.76,474.25 4.66,4.64 9.96,9.35 15.89,11.9 158.06,68.24 318.24,100.62 495.26,26.86 -55.03,-39.5 -100.87,-71.92 -146.29,-104.97 -54.05,-39.31 -103.27,-84.01 -145.13,-136.19 -117.17,-146.11 -113.06,-349.16 11.61,-489.41 113.78,-128.03 257.46,-176.84 426.45,-153.23 62.46,8.77 125.7,14.19 185.96,33.64 41.07,13.3 37.75,-9.84 30.03,-34.36zm-181.61 887.9c193.99,92.4 396.56,152.51 613.8,146.89 105.39,-2.79 207.35,-23.87 301.27,-75.81 128.64,-71.27 172.44,-218.39 99.47,-346 -48.38,-84.68 -115.96,-154.56 -190.91,-215.14 -111.32,-90 -232.53,-167.25 -370.06,-209.59 -107.38,-33.04 -219.06,-52.18 -328.75,-77.85 -76.15,-17.82 -152.85,-30.92 -223.17,-31.54 -206.97,-9.84 -375.97,144 -377.83,335.58 -0.86,85.88 38.95,153.76 96.99,211.27 110.58,109.74 238.86,195.33 379.18,262.18zm-11432.06 43.73c146.04,326.15 446.21,599.63 696.14,850.46 382.99,384.49 755.1,669.02 1241.9,901.43 542.55,258.91 1111.84,296.73 1695.41,436.44 409.61,98.08 903.84,315.8 1321.12,371.43 360.57,48.07 642.82,80.88 1006.05,104.13 530.03,33.88 1060.39,38.47 1590.92,26.52 334.05,-7.55 667.68,-27.84 1000.9,-55.38 299.63,-24.82 598.6,-55.57 896.6,-94.71 448.69,-58.83 894.78,-166.27 1337.13,-262.06 611.53,-132.44 1209.41,-408.22 1795.61,-628.42 550.34,-206.8 1080.87,-309.23 1563.39,-649.28 312,-219.84 577.15,-472.23 785.71,-796.27 163.12,-253.43 191.27,-532.58 230.41,-830.65 68.86,-524.3 -190.07,-813 -542.86,-1158.53 -200.45,-196.3 -386.41,-463.74 -625.65,-564.79 -47.1,-19.93 -67.81,-15.75 -92.64,29.05 -45.06,81.31 -96.94,158.84 -146.71,237.48 -91.94,145.2 -220.46,257.24 -342.7,374.53 -128.4,123.27 -261.1,242.02 -404.78,347.72 -62.51,45.95 -127.38,87.33 -201.37,113.78 -107.81,38.54 -209.09,93.97 -319.67,125.63 -21.81,1.81 -43.13,5.55 -61.98,17.69 -117.22,30.39 -233.73,64.2 -353.74,82.26 -65.66,9.91 -131.3,21.26 -198.05,21.45 -64.37,0.17 -128.81,1.27 -196.89,-12.21 11.83,42.94 27.55,78.39 24.35,117.17 -1.69,20.29 12.02,25.12 26.93,29.22 81.36,22.29 163.62,41.62 243.76,67.64 68,22.12 130.94,57.51 189.47,98.63 27.72,19.45 48.5,18.06 76.34,1.88 101.83,-59.01 161.26,-150.76 203.41,-256.33 17.03,-42.7 -7.79,-85.16 -3.97,-127.99 0,-0.05 0,-0.05 0,-0.05 14.96,-20.72 35.56,-23.61 58.71,-18.25 45.35,67.54 41.12,138.27 8.75,208.08 -50.25,108.36 -117.46,203.41 -228.06,266.77 73.93,57.92 135.54,123.03 192.85,192.18 97.36,117.41 127.87,245.1 59.08,388.48 -34.07,70.96 -88.55,119.23 -157.89,153.04 -186.56,90.91 -381.34,90.41 -579.82,53.09 -151.46,-28.44 -293.65,-82.98 -431.54,-150.15 -44.92,-21.86 -81.48,1.93 -90.58,52.01 -16.86,92.76 -68.93,165.42 -144.53,219.3 -176.79,125.8 -374.48,171.82 -589.9,152.44 -134.02,-12.07 -268.77,-15.77 -402.79,-28.15 -122.31,-11.35 -243.57,-33.16 -365.95,-43.73 -327.22,-28.27 -635.43,24.4 -910,219.6 -108.41,77.06 -210.48,162.64 -322.28,235.18 -152.8,99.18 -327.05,135.83 -499.9,176.55 -198.36,46.74 -399.23,37.87 -600.35,24.7 -171.17,-11.23 -340.53,-36.18 -507.16,-74.71 -188.87,-43.67 -367.77,-112.52 -522.57,-235.61 -113.42,-90.22 -239.1,-162.95 -366.55,-231.14 -131.84,-70.54 -276.26,-81.96 -422.17,-66.26 -156.91,16.85 -312.67,45.49 -470.49,51.58 -243.4,9.42 -479.73,-24.47 -689.37,-156.98 -190.5,-120.43 -307.43,-288.87 -306.03,-525.51 0.48,-84.56 15.99,-168.81 3.25,-253.73 -11.9,-79.37 -39.38,-150.15 -96.27,-208.92 -31.18,-32.12 -60.16,-66.62 -87.45,-102.19 -26.76,-34.91 -30.58,-76.46 -37.94,-119.95 -29.77,-176.96 78.27,-273.29 198.65,-364.73 155.33,-118.01 337.26,-176.31 520.74,-231.38 62.03,-18.61 122.55,-41.91 184.1,-62.1 21.81,-7.12 25.92,-16.3 19.4,-39.86 -25.37,-91.75 -36.84,-185.84 -34.19,-281.03 0.79,-26.93 -6.59,-38.23 -34.19,-40.95 -67.76,-6.81 -135.17,-16.11 -203.6,-15.15 -100.02,1.34 -199.49,-6.28 -296.68,-30.99 -197.48,-50.25 -324.86,-211.44 -313.94,-394.94 10.32,-172.8 126.66,-328.2 282.18,-359 128.4,-25.37 250.35,10.27 364.97,70.6 132.63,69.89 239.96,172.56 348.68,272.75 26.69,24.59 39.92,30.44 69.15,2.17 134.16,-129.79 290.28,-221.35 476.05,-255.47 101.83,-18.73 204.45,-26.09 307.43,-9.36 13.88,2.24 26.62,2.6 38.4,-4.71 117.41,-72.47 250.83,-71.75 381.17,-79.97 134.33,-8.46 268.3,-24.04 403.27,-22.46 193.58,2.17 383.41,36.42 573.78,64.92 45.06,6.76 83.65,-3.44 116.93,-29.53 48.74,-38.11 100.93,-69.94 154.62,-100.02 77.06,-43.25 148.69,-94.33 217.36,-149.84 353.45,-285.5 667.63,-609.83 953.01,-962.68 5.92,-7.29 11.23,-15.08 19.93,-26.69 -143.32,-11.3 -280.6,-13.34 -418,-14.48 -19.95,-0.14 -23.87,11.16 -30.39,25.18 -58.4,124.53 -152.63,139.93 -249.98,40.34 -9.55,-9.78 -13.83,-16.3 -26.76,-4.9 -61.07,53.83 -123.22,35.88 -183.48,-0.91 -17.94,-10.99 -27.38,-19.43 -40.16,6.16 -32.32,64.63 -85.94,95.07 -158.67,88.36 -74.41,-6.93 -135.35,-39 -167.11,-108.46 -14.69,-32.2 -31.83,-37.34 -63.79,-36.36 -340.82,9.84 -680.61,34.79 -1019.13,73.93 -484.34,56.05 -964.19,139.09 -1444.47,251.86 41.67,88.65 62.22,181.07 -39.14,238.93 -110.65,63.11 -195.33,-8.53 -279.51,-78.34 -7.55,28.57 -12.99,54.91 -21.5,80.14 -36.6,108.54 -114.57,137.05 -225.77,77.8 -33.95,-18.06 -47.29,-16.54 -72.59,14.67 -87.95,108.42 -239.72,89.09 -305.38,-36.06 -11.78,-22.39 -17.75,-37.08 -50.37,-26.69 -675.97,215.56 -1186.74,475.02 -1817.9,790.66 -281.75,140.92 -704.1,292.98 -975.35,457.34 -274.8,166.57 -535,353.79 -761.78,583.43 -182.9,185.18 -333.7,391.73 -407.33,645.65 -88.79,306.03 -44.09,601.01 83.77,886.57z"/>
   <path class="fil0" d="M9640.59 5.17c-48.31,0 -96.63,0 -144.94,0 -0.67,0.05 -1.34,0 -2,0.05 0.07,-1.75 0.19,-3.49 0.19,-5.19l149.79 0c-0.07,1.75 0.05,3.44 0.12,5.19 -1.03,-0.05 -2.12,0.07 -3.15,-0.05z"/>
   <path class="fil0" d="M9490.58 5.24c-22.29,0.91 -44.94,-4.4 -66.68,4.49 0.07,-3.2 0.07,-6.47 0.07,-9.72l69.89 0c-3.03,1.68 -3.99,3.44 -3.27,5.24z"/>
   <path class="fil0" d="M9490.58 5.24c1.03,-0.05 2.05,0 3.08,-0.05 -0.05,1.08 -0.12,2.11 -0.19,3.2 -0.96,0 -1.92,-0.98 -2.89,-2.89 -0.05,-0.12 0,-0.19 0,-0.26z"/>
   <path class="fil0" d="M9646.88 5.29c0.29,-0.84 0.41,-1.69 -0.07,-2.47 -1.08,-1.88 -2.17,-2.79 -3.2,-2.79l49.89 0c-0.05,3.27 -0.05,6.59 0.07,9.91 -14.98,-8.22 -30.99,-4.42 -46.69,-4.66z"/>
   <path class="fil0" d="M9646.88 5.29c-0.43,1.1 -1.27,2.17 -3.03,3.32 -0.05,-1.08 -0.05,-2.23 -0.12,-3.37 1.1,0.05 2.12,0.05 3.15,0.05z"/>
   <path class="fil0" d="M8675.89 510.38c-4.52,-4.23 -9.06,-8.51 -13.58,-12.74 11.52,-3.25 15.58,1.51 13.58,12.74z"/>
   <path class="fil0" d="M12688.86 10921.98c2.77,7.07 5.55,14.07 8.34,21.13 -3.08,-6.93 -15.22,-10.26 -8.34,-21.13z"/>
   <path class="fil0" d="M12638.48 10961.37l0 0c-2.05,-8.15 -1.16,-17.93 -11.61,-21.67 18.42,-0.6 18.25,8.82 11.61,21.67z"/>
   <path class="fil0" d="M10602.46 738.03c-1.32,-9.19 1.52,-14.02 11.66,-11.25 -3.85,3.75 -7.79,7.5 -11.66,11.25z"/>
   <path class="fil0" d="M4908.12 6438.45c4.47,0.17 8.94,0.36 13.41,0.53 -4.66,4.35 -9.13,4.11 -13.41,-0.53z"/>
   <path class="fil0" d="M9215.54 619.83c-10.51,3.99 -21.38,8.7 -20.72,-10.15 3.75,9.84 13.53,7.36 20.72,10.15z"/>
   <path class="fil0" d="M5769.82 5779.46c0.12,-3.32 0.17,-6.64 0.29,-9.96 0.74,0 1.46,1.15 2.17,3.39 0.67,2.23 -0.12,4.47 -2.47,6.57z"/>
   <path class="fil0" d="M5078.67 6257.71c-24.04,-8.7 -9.07,-26.21 -9.13,-40.34 4.23,13.17 -3.87,29.17 9.13,40.34z"/>
   <path class="fil0" d="M6827.87 6279.62c3.87,-4.11 7.74,-8.17 11.59,-12.26 2.55,10.2 -0.53,14.96 -11.59,12.26z"/>
   <path class="fil0" d="M5066.43 6294.09c-1.1,-2.36 -2.12,-4.71 -3.2,-7.07 2.11,0.07 4.16,0 6.21,-0.05 -0.98,2.35 -1.99,4.76 -3.01,7.12z"/>
   <path class="fil0" d="M4883.62 6489.57c3.01,3.75 6.09,7.5 9.13,11.18 -5.99,-1.27 -6.47,-7.12 -9.13,-11.18z"/>
   <path class="fil0" d="M6647.85 6120.54c3.32,-3.32 6.64,-6.64 10.03,-10.02 2.41,9.11 0.48,13.88 -10.03,10.02z"/>
   <path class="fil0" d="M4282.67 6399.45c0.6,-3.92 1.15,-7.84 1.75,-11.78 0.79,0 1.39,1.39 1.76,4.3 0.41,2.71 -0.79,5.19 -3.51,7.48z"/>
   <path class="fil0" d="M4859.73 6548.72c3.99,0.07 8.03,0.12 12.02,0.19 -4.06,4.04 -8.1,3.8 -12.02,-0.19z"/>
   <path class="fil0" d="M11709.86 4133.21c-17.27,10.03 -3.75,28.15 -10.68,40.88 -2.12,-15.1 -15.84,-33.27 10.68,-40.88z"/>
   <path class="fil0" d="M10901.67 2126.31c0,0 -0.53,0.43 -0.53,0.43l0.53 -0.43z"/>
   <path class="fil0" d="M9175.11 9514.23c-12.99,3.13 -28.87,13.95 -31.35,-11.47 6.76,13.76 21.2,6.81 31.35,11.47z"/>
   <path class="fil0" d="M5141.16 6868.12l0 0 0.29 0.36c0,0 -0.29,-0.36 -0.29,-0.36z"/>
   <path class="fil0" d="M8007.27 6068.53c-3.25,3.51 -6.52,7.07 -9.78,10.58 2.6,-4.11 3.51,-9.84 9.78,-10.58z"/>
   <path class="fil0" d="M7116.49 9990.86c-7.6,-10.26 -19.98,-3.97 -29.29,-8.32 11.37,-2.84 24.94,-13.42 29.29,8.32z"/>
   <path class="fil0" d="M7987.18 6038.41c-3.32,3.68 -6.64,7.36 -9.96,10.99 2.79,-4.11 3.7,-10.03 9.96,-10.99z"/>
   <path class="fil0" d="M10883.42 2075.55c-3.75,3.32 -7.5,6.71 -11.23,10.03 2.96,-4.23 4.4,-10.15 11.23,-10.03z"/>
   <path class="fil0" d="M10572.24 698.48c-3.08,3.2 -6.16,6.4 -9.3,9.6 -2.84,-9.01 -1.1,-13.53 9.3,-9.6z"/>
   <path class="fil0" d="M5827.57 5768.68c0.62,-2.17 1.22,-4.4 1.76,-6.64 0.96,0 1.68,1.03 2.41,3.01 0.55,1.76 -0.86,2.96 -4.18,3.63z"/>
   <path class="fil0" d="M6460.36 6197.72c-3.49,3.61 -7.07,7.31 -10.56,10.92 -2.48,-9.42 0.05,-14 10.56,-10.92z"/>
   <path class="fil0" d="M8974.76 818.41l0 0c-0.12,2.91 -0.17,5.75 -0.17,8.58 -1.1,0 -2.05,-0.96 -3.08,-2.89 -1.03,-1.93 0.12,-3.8 3.25,-5.68z"/>
   <path class="fil0" d="M6777.95 6084.89c0,0 0,0 0,0 -0.24,-3.99 -0.48,-7.91 -0.72,-11.85 0.96,0 1.99,1.27 3.08,3.75 1.08,2.6 0.29,5.32 -2.36,8.1z"/>
   <path class="fil0" d="M8267.19 6344.03c-0.72,5.5 -1.44,10.99 -2.23,16.49 -3.75,-6.09 -3.03,-11.61 2.23,-16.49z"/>
   <path class="fil0" d="M7178.98 6028.09c-0.62,5.02 -1.15,9.96 -1.76,14.98 -4.64,-5.62 -4.09,-10.58 1.76,-14.98z"/>
   <path class="fil0" d="M8026.92 6098.93c3.87,6.03 3.32,11.59 -1.75,16.73 0,0 0,0 0,0 0.6,-5.56 1.15,-11.18 1.75,-16.73z"/>
   <path class="fil0" d="M6599.41 6069.19c-3.92,3.99 -7.79,7.98 -11.71,11.95 -2.24,-9.96 0.79,-14.84 11.71,-11.95z"/>
   <path class="fil0" d="M10728.69 1319.34c8.05,-3.03 18.13,-1.81 22.91,-11.35 0.41,20.05 -12.21,13.65 -22.91,11.35z"/>
   <path class="fil0" d="M10773.61 1326.87c-5.24,0.84 -10.56,1.63 -15.87,2.48 4.59,-5.56 9.84,-6.35 15.87,-2.48z"/>
   <path class="fil0" d="M11150.74 10701.43c-3.49,-5.86 -6.93,-11.71 -10.44,-17.63 7.31,3.63 16.49,6.09 10.44,17.63z"/>
   <path class="fil0" d="M8754.78 458.23c-3.85,-3.32 -7.79,-6.69 -11.66,-10.02 11.37,-5.32 12.69,0.96 11.66,10.02z"/>
   <path class="fil0" d="M10302.99 1187.72c5.38,-5.62 1.39,-15.7 9.54,-19.93l0 0c-1.44,7.48 -0.05,16.3 -9.54,19.93z"/>
   <path class="fil0" d="M8716.4 261.5c3.44,3.2 6.88,6.4 10.27,9.6 -10.46,4.35 -12.09,-0.77 -10.27,-9.6z"/>
   <path class="fil0" d="M8696.59 281.43l0 0c-3.27,-3.32 -6.59,-6.64 -9.84,-9.96 3.68,2.89 9.78,3.44 9.84,9.96z"/>
   <path class="fil0" d="M10203.72 558.73c3.08,-3.44 6.16,-6.88 9.3,-10.32 4.96,10.7 -0.65,11.9 -9.3,10.32z"/>
   <path class="fil0" d="M9744.09 698.28c-4.11,4.11 -8.15,8.27 -12.26,12.38 -1.87,-9.96 1.22,-15.1 12.26,-12.38z"/>
   <path class="fil0" d="M2488.34 12556.45c112.58,-56.29 234.46,-69.41 357.25,-78.87 209.21,-16.2 418.56,-6.9 627.71,-0.26 120.8,3.87 236.04,34.91 345.9,84.87 37.92,17.27 74.95,38.04 99.9,72.42 27.24,37.56 58.59,77.13 11.59,122.67 -5.67,5.5 -5.14,10.51 -2.17,17.33 24.59,56.24 -10.39,91.8 -46.45,124.48 -67.64,61.24 -150.27,97.18 -234.16,129 -259.05,98.32 -532.82,101.05 -790.61,124.29 -161.67,-5.86 -309.23,-17.57 -440.77,-95.6 -155.11,-92.04 -179.75,-268.95 -58.95,-402.31 37.2,-41.12 81.1,-73.19 130.75,-98.01zm-41.12 423.75c69.22,47.59 149.48,61.36 229.38,76.58 132.51,25.3 265.09,9.66 397.13,-2.05 146.95,-13.05 294.01,-27.91 437.27,-66.38 83.65,-22.46 162.46,-56.96 239.65,-96.1 56.58,-28.63 104.79,-68.07 126.54,-126.71 14.91,-40.16 -11.13,-77.61 -45.73,-102.12 -53.57,-37.87 -115.72,-56.67 -177.93,-74.95 -78.7,-23.15 -159.56,-31.96 -240.8,-35.17 -81.24,-3.13 -162.76,-0.65 -244.19,-0.65 -179.37,-3.82 -358.88,-3.99 -535,36.96 -85.64,19.86 -162.4,57.85 -221.3,125.99 -78.27,90.58 -64.13,196.41 34.98,264.6z"/>
   <path class="fil0" d="M6369.01 13609.48c273.79,-152.32 553.06,-276.62 881.45,-223.88 153.83,24.69 304.57,48.01 436.97,137.22 159.51,107.38 164.58,293.22 8.46,404.35 -84.49,60.16 -178.24,102.67 -278.86,128.71 -139.46,35.99 -281.87,43.49 -450.8,41.19 -143.86,10.68 -308.75,-18.49 -471.53,-61.5 -68.79,-18.16 -138.3,-37.32 -197.25,-80.19 -91.68,-66.68 -104.73,-167.37 -34.31,-255.97 29.34,-36.96 65.28,-67.35 105.87,-89.93zm-3.99 292.93c54.31,29.29 113.92,45.71 173.46,60.93 150.51,38.35 302.71,62.15 440.66,51.52 139.63,3.03 260.49,-2.59 379.95,-28.44 97,-21.02 186.87,-59.19 270.21,-111.75 134.28,-84.73 133.85,-205.7 0.86,-291.84 -114.88,-74.41 -243.76,-102.6 -377.68,-113.42 -42.7,-3.44 -84.49,-4.04 -127.07,-17.51 -38.3,-12.14 -82.02,-3.68 -123.34,4.83 -206.13,42.53 -405.86,101.83 -584.46,218.1 -29.29,19.09 -58.23,38.66 -81.72,64.99 -55.93,62.82 -46.26,121.88 29.1,162.59z"/>
   <path class="fil0" d="M3694.51 11827.55c-142.53,80.69 -296.06,114.93 -459.38,109.19 -77.85,-5.43 -156.07,-7.91 -233.44,-17.15 -116.03,-13.83 -230.41,-36.84 -326.21,-110.22 -111.85,-85.71 -115.48,-202.64 -10.87,-295.7 17.34,-15.34 35.88,-30.01 55.76,-41.79 294.73,-174.92 610.36,-229.33 943.46,-147.68 101.76,24.94 206.75,59.92 212.89,203.97 2.43,57.73 1.34,107.07 -26.5,155.93 -36.67,64.2 -92.71,107.81 -155.71,143.45zm105.58 -315.63c-3.87,-24.35 -20.36,-41.02 -39.21,-55.5 -62.93,-48.57 -137.53,-64.32 -213.51,-74.11 -59.19,-7.6 -118.92,-11.23 -190.55,-17.7 -214.9,14.86 -431.78,62.58 -620.75,196.47 -93.02,65.9 -87.88,138.49 10.08,198.77 92.9,57.08 198.05,73.81 304.21,83.77 163.93,15.29 327.79,27.48 486.87,-33.21 52.97,-20.17 103.89,-43.97 151.23,-74.95 80.52,-52.66 127.33,-122.79 111.63,-223.53z"/>
   <path class="fil0" d="M1640.16 10311.14c197.55,-85.52 402.9,-112.52 613.87,-67.88 120.01,25.42 240.2,56.53 336.9,139.94 78.63,67.88 87.4,150.03 26.76,234.28 -48.14,66.98 -118.08,101.05 -193.7,124.06 -119.11,36.3 -241.52,42.51 -379.12,32.49 -62.7,3.99 -138.92,-3.94 -214.78,-12.45 -103.87,-11.59 -209.02,-21.62 -300.34,-80.26 -88,-56.6 -108.6,-148.4 -53.69,-237.55 38.95,-63.29 97.42,-103.77 164.1,-132.63zm-63.05 303.61c71.26,44.21 152.8,54.96 233.25,63.53 107.21,11.42 215.07,15.96 307.72,22.41 118.25,-3.87 220.68,-11.06 318,-49.58 43.61,-17.22 84.42,-39.14 113.23,-78.1 38.42,-52.06 34.74,-87.14 -13.29,-129.96 -26.33,-23.44 -56.46,-41.14 -88.67,-54.49 -260.37,-108.1 -521.04,-116.8 -781.41,0.07 -46.09,20.66 -86.92,49.29 -116.5,90.84 -37.2,52.3 -27.12,101.28 27.67,135.29z"/>
   <path class="fil0" d="M6567.42 8644.85c125.01,-95.67 269.85,-132.75 423.8,-139.99 74.65,-3.51 150.51,4.78 224.14,-4.78 95.12,-12.31 182.81,4.23 264.36,48.33 126.64,68.48 154.97,198.63 73.86,317.62 -34.24,50.25 -78.04,90.36 -130.77,120.92 -141.14,81.65 -293.94,110.77 -455.39,98.2 -43.25,0 -86.54,1.63 -129.74,-0.36 -78.21,-3.63 -155.64,-14.26 -229.81,-40.76 -116.08,-41.5 -172.56,-131.86 -148.88,-242.44 14.14,-66.14 55.45,-116.2 108.42,-156.74zm83.15 327.79c26.95,8.27 54.43,16.9 82.21,19.57 90.89,8.75 182.02,14.79 250.4,20.1 151.11,-1.27 273.35,-27.29 386.96,-88.53 46.09,-24.82 84.75,-58.47 114.76,-101.47 57.25,-81.9 38.59,-162.29 -51.88,-206.61 -56.53,-27.74 -115.91,-36.31 -181.99,-33.52 -90.7,3.85 -182.38,-0.98 -273.47,4.59 -110.77,6.76 -216.78,31.83 -312.57,90.34 -25.36,15.53 -50.3,33.04 -71.8,53.45 -98.2,93.26 -72.18,202.16 57.37,242.08z"/>
   <path class="fil0" d="M11883.93 4976.75c43.86,14.31 71.82,46.69 94.04,84.61 42.22,71.94 57.25,151.29 61.43,225.41 0.05,75.86 -17.75,167.18 -38.85,206.8 -40.28,75.79 -110.58,90.96 -178.04,38.42 -39.21,-30.56 -67.35,-69.82 -80.52,-117.17 -37.39,-134.93 -19.5,-266.29 33.09,-393.67 17.63,-42.65 64.15,-59.01 108.83,-44.39zm-73.26 380.19c8.65,41.86 25.42,78.7 57.75,107.64 27,24.16 47.83,18.9 61.72,-13.47 21.31,-49.7 24.94,-102.74 28.51,-155.71 -3.92,-75.98 -19.02,-148.26 -63.84,-211.56 -9.66,-13.71 -21.62,-29.24 -39.07,-27.43 -17.58,1.81 -17.58,22.46 -21.57,35.75 -25.78,86.56 -42.15,174.06 -23.49,264.79z"/>
   <path class="fil0" d="M11839.93 6104c14.07,-69.89 59.85,-121.83 125.44,-129.98 65.04,-8.08 112.21,30.68 142.53,82.38 64.03,108.89 61.31,223.59 2.36,332.43 -55.45,102.31 -179.39,102.36 -243.95,5.31 -33.64,-50.56 -41.79,-107.38 -38.78,-168.81 -1.92,-39.57 4.23,-80.64 12.4,-121.33zm92.52 242.67c31.23,50.49 82.14,51.1 108.78,-1.51 41.31,-81.6 43.85,-165.73 -2.79,-247.32 -11.59,-20.3 -37.49,-47.9 -51.99,-38.11 -23.2,15.7 -61.31,20.53 -66.38,58.64 -4.35,32.8 -9.54,65.47 -12.45,85.28 -2.35,58.53 0.36,103.48 24.82,143.02z"/>
   <path class="fil0" d="M9069.66 3128.29c49.77,6.45 95.07,-8.41 140.61,-24.59 24.52,-8.75 47.83,-7.19 58.83,19.76 11.23,27.65 -6.52,43.3 -29.48,54.41 -44.21,21.31 -90.72,31.95 -128.22,30.56 -120.56,2.77 -188.38,-36.42 -221.18,-132.92 -82.69,-243.47 -199.13,-470.62 -323.49,-694.46 -16.3,-29.41 -55.32,-67.69 -7.84,-94.21 50.54,-28.21 61.79,28.03 78.93,57.99 128.23,223.64 244.67,452.97 326.52,698.31 17.27,51.76 52.11,78.27 105.33,85.16z"/>
   <path class="fil0" d="M9590.77 2276.46c-93.14,168.21 -233.15,259.34 -419.04,258.98 -54.31,1.99 -98.75,-5.07 -142.72,-13.53 -23.68,-4.54 -45.3,-18.61 -39.5,-48.07 5.07,-26.09 26.69,-31.78 50.18,-29.84 16.56,1.32 32.97,3.75 49.34,6.45 185.72,30.51 349.46,-52.47 434.21,-220.32 4.47,-8.89 7.6,-18.61 13.1,-26.81 11.85,-17.77 27.55,-30.63 50.13,-21.14 23.75,9.96 30.75,29.34 22.34,53.33 -4.88,14 -10.87,27.96 -18.04,40.95z"/>
   <path class="fil0" d="M9393.1 3445.96c-44.56,2.79 -90.96,-10.87 -137.22,-23.44 -25.24,-6.81 -48.25,-21.86 -39.98,-52.9 8.46,-31.52 35.63,-30.08 61.36,-25.24 32.43,6.09 64.63,17.93 97.18,18.71 149.36,3.8 245.76,-71.92 300.96,-206.87 9.79,-23.85 24.16,-47.89 54.96,-37.2 33.4,11.61 29.41,40.11 20.78,66.92 -47.9,148.45 -198.17,258.69 -358.04,260.01z"/>
   <path class="fil0" d="M8576.64 2603.6c10.75,19.07 4.42,36.59 -10.92,48.67 -47.12,37.2 -95.67,72.3 -160.71,67.33 -11.61,-0.72 -23.15,-1.51 -34.74,-2.04 -29.1,-1.4 -55.93,-10.22 -53.45,-44.39 2.77,-38.06 32.85,-42.17 62.99,-35.29 37.22,8.53 68.19,-4.23 98.39,-22.82 15.46,-9.54 30.08,-21.31 46.81,-27.72 19.69,-7.62 39.74,-4.9 51.64,16.25z"/>
   <path class="fil0" d="M7504.15 11949.48c196.9,-41.72 397.59,-53.98 597.5,-73.38 153.9,-14.86 301.32,4.23 446.16,53.16 61.12,20.65 113.61,54.89 150.45,109.49 45.42,67.4 35.51,138.5 -26.16,190.57 -31.9,26.81 -66.31,49.94 -102.86,69.99 -264.72,145.08 -553.59,187.97 -849.24,201.92 -67.04,3.01 -133.3,-4.9 -199.13,-13.11 -89.44,-11.11 -177.2,-31.23 -251.5,-86.54 -130.08,-96.88 -136.43,-220.82 -18.83,-332.43 71.44,-67.88 160.78,-99.97 253.61,-119.66zm-153.04 407.5c83.27,42.22 174.18,52.73 265.5,59.49 33.03,2.41 66.43,0.36 99.71,0.36 284.47,-9.23 562,-50.54 816.08,-190.36 24.65,-13.53 48.07,-29.72 70.67,-46.57 53.33,-39.81 55.38,-75.43 5.62,-121.76 -61.43,-57.01 -141.33,-69.82 -218.94,-88.12 -164.1,-38.66 -327.77,-10.39 -490.91,5.31 -115.48,11.11 -231.74,20.42 -345.47,45.61 -82.67,18.35 -165.56,38.83 -232.7,95.24 -104.98,88.19 -93.56,178.05 30.44,240.8z"/>
   <path class="fil0" d="M5261.02 11211.09c135.34,-35.64 274.56,-47.36 412.93,-64.44 129.98,-16.13 258.31,-14.31 384.85,24.52 103.65,31.78 177.33,94.45 215.38,197.43 15.94,43.13 27.43,87.76 9.55,131.07 -20.24,48.98 -58.96,87.5 -101.05,116.98 -47.24,33.09 -101.54,56.22 -156.62,75.62 -198.58,69.87 -405.33,84.13 -613.27,88.96 -44.94,0 -90.11,3.2 -134.62,-0.67 -91.94,-8.03 -180.47,-29.7 -256.82,-85.16 -115.1,-83.53 -129.6,-217.24 -36.59,-325 73.62,-85.28 170.01,-131.37 276.26,-159.32zm-152.56 442.22c98.37,47.66 203.89,55.38 325.89,47.17 143.88,2.55 299.81,-19.14 454.55,-51.04 78.65,-16.23 152.75,-45.9 221.78,-86 35.94,-20.9 57.99,-59.43 91.7,-85.28 17.51,-13.41 8.08,-43.55 0.96,-66.14 -25.97,-82.14 -80.02,-134.99 -162.47,-161.09 -109.62,-34.79 -221.11,-42.94 -334.35,-27.72 -131.49,17.63 -264.07,27.91 -393.55,58.52 -91.32,21.57 -178.17,52.97 -247.1,121.04 -93.43,92.23 -77.3,192.43 42.6,250.52z"/>
   <path class="fil0" d="M6300.03 7673.43c-26.09,13.9 -55.09,25.97 -73.64,-8.15 -17.33,-32.02 7.07,-49.29 32.02,-61.72 49.82,-24.82 66.02,-65.66 63.24,-118.92 -4.66,-88.91 -25.97,-174.13 -56.36,-257 -65.04,-177.69 -85.71,-364.73 -118.8,-549.19 -4.66,-25.92 0.72,-48.31 29.65,-54.07 25.73,-5.07 39.75,12.09 47.36,34.5 3.2,9.36 5.26,19.21 6.83,28.98 31.4,200.22 65.64,399.47 136.36,590.93 24.11,65.16 34.67,135.05 35.03,211.93 7.19,78.75 -25.83,142.41 -101.7,182.69z"/>
   <path class="fil0" d="M6627.68 7789.12c-8.77,12.09 -17.89,24.11 -28.45,34.55 -86.18,85.23 -193.03,118.75 -315.03,123.58 -81.84,-9.48 -168.93,-9.18 -249.07,-47.41 -22.84,-10.87 -44.89,-22.46 -58.77,-44.15 -11.71,-18.3 -13.41,-38.11 2.84,-54.84 17.09,-17.63 35.2,-13.17 53.57,-0.12 94.21,66.98 202.52,69.46 310.09,59.07 88.05,-8.51 165.18,-46.88 221.35,-120.01 16.42,-21.31 39.02,-34.72 63.96,-13.05 21.98,19.16 14.31,41.93 -0.48,62.39z"/>
   <path class="fil0" d="M5872.99 7389.05c-69.58,62.75 -154.14,80.14 -244.31,80.28 -74.17,1.75 -144.82,-13.3 -212.11,-44.34 -13.29,-6.16 -25.54,-15.65 -41.86,-12.07 -29.96,6.52 -51.46,-4.9 -52.18,-35.82 -0.79,-33.88 22.17,-49.36 55.03,-50.8 28.08,-1.27 50.13,15.03 74.65,24.59 126.11,49.1 250.52,64.2 367.46,-23.99 23.44,-17.63 46.93,-40.1 72.42,-9.91 24.16,28.64 2.84,52.25 -19.09,72.06z"/>
   <path class="fil0" d="M7113.01 7215.97c-67.15,49.29 -145.3,61.24 -226.06,61.96 -14.91,0 -30.08,1.69 -44.75,-0.29 -68.98,-9.67 -138.8,-18.42 -197.14,-61 -20.96,-15.29 -35.27,-38.61 -15.1,-64.39 16.08,-20.53 36,-15.03 58.04,-4.71 140.37,66.07 278.38,84.44 407.93,-25.9 16.92,-14.38 35.94,-18.68 54,-2.31 17.63,16.01 16.97,36.55 4.52,54.12 -11.35,16.01 -25.66,30.94 -41.43,42.53z"/>
  </g>
 </g>
</svg>
