<?xml version="1.0" encoding="utf-8"?>
<!-- Generator: Adobe Illustrator 22.1.0, SVG Export Plug-In . SVG Version: 6.00 Build 0)  -->
<svg version="1.1" id="text_x5F_vector" xmlns="http://www.w3.org/2000/svg" xmlns:xlink="http://www.w3.org/1999/xlink" x="0px"
	 y="0px" viewBox="0 0 13.7 16.74" style="enable-background:new 0 0 13.7 16.74;" xml:space="preserve">
<path d="M6.691,16.72c-0.073-0.021-0.135-0.057-0.179-0.103c-1.558-1.648-2.971-3.581-4.318-5.908l-0.183-0.315
	C0.933,8.541-0.287,6.442,0.06,4.344c0.263-1.58,1.57-3.12,3.304-2.961c0.172,0.016,0.344,0.048,0.508,0.095
	c0.881,0.253,1.663,0.968,2.2,2.014l0.484,0.94L6.84,3.413c0.445-1.597,1.249-2.63,2.456-3.156c0.646-0.281,1.327-0.333,1.968-0.149
	c1.138,0.326,2.049,1.359,2.321,2.632c0.535,2.493-0.919,5.374-1.981,7.478c-1.147,2.276-2.657,4.434-4.488,6.412
	C7.026,16.729,6.851,16.766,6.691,16.72z M3.649,2.31C3.314,2.215,2.965,2.218,2.61,2.322C2.014,2.497,1.563,2.866,1.271,3.421
	c-0.531,1.011-0.38,2.402-0.09,3.286c0.561,1.711,1.611,3.366,2.537,4.828l0.109,0.169C4.655,13.01,5.556,14.22,6.506,15.3
	l0.312,0.356l0.311-0.358c2.635-3.029,4.508-6.422,5.419-9.811c0.242-0.897,0.491-2.223-0.128-3.376
	c-0.318-0.593-0.803-1.008-1.365-1.17c-0.338-0.097-0.689-0.099-1.044-0.007C8.647,1.288,7.817,2.456,7.471,4.504
	C7.403,4.908,7.375,5.36,7.354,5.722C7.341,5.935,7.33,6.136,7.314,6.212c-0.03,0.185-0.099,0.311-0.21,0.382
	c-0.111,0.07-0.26,0.089-0.399,0.049C6.579,6.606,6.371,6.498,6.399,6.179L6.45,5.625L6.046,5.579
	C6.035,5.577,6.024,5.573,6.012,5.57C5.89,5.535,5.801,5.477,5.764,5.295C5.579,4.358,4.924,2.676,3.649,2.31z"/>
</svg>
