<svg version="1.1" id="Layer_1" xmlns="http://www.w3.org/2000/svg" x="0" y="0" viewBox="0 0 501.977 100.951" xml:space="preserve"><style>.st0{fill:#f18825}.st1{font-family:&apos;LunchBox&apos;}.st2{font-size:68.5743332px}.st4{letter-spacing:-1}</style><path class="st0" d="M87.41 23.847s-2.65.321-4.789-5.615C80.937 13.558 78.596 2.277 65.66.354S53.602 4.813 54.475 8.023c.262.967 1.393 3.927.031 4.008-1.696.102-3.228-1.617-4.778-5.231-2.087-4.992-5.19-6.458-8.713-1.717 1.935 1.9 3.569 9.874 3.569 9.874s3.258-3.753 5.635-1.744c1.769 1.3 3.522 3.428 6.386 1.401 2.725-1.918 5.514-5.216 11-2.82 7.405 3.721 7.302 9.94 11.282 13.469 2.805 2.561 6.243 2.252 7.253 1.904 2.822-2.31 1.27-3.32 1.27-3.32z"/><path d="M94.424 15.584c.284-1.092.082-2.31-.427-3.305a6.497 6.497 0 00-2.333-2.567c-1.155-.724-2.511-1.02-3.861-1.072a11.5 11.5 0 00-2.218.13c-.382.06-.761.133-1.139.217-.417.091-.856.155-1.206.417-.508-.082-1.06.525-.706 1.107 1.112 1.827 2.443 3.579 4.205 4.826a9.859 9.859 0 003.063 1.478c.5.14 1.011.227 1.528.26.284.02 1.962.043 2.592-.504.294-.26.407-.619.502-.987zm-10.167-5.057l.128-.022c.056.058.128.1.212.117.063.013.126.023.19.034.01.048.02.097.026.144.018.152.076.334.143.472.08.162.17.323.272.475.004.01.005.021.01.032a21.674 21.674 0 01-.98-1.252zm2.52 2.82a4.129 4.129 0 00-.196-.409c.026.01.051.023.077.032.119.211.25.416.397.608a13.445 13.445 0 01-.279-.231zm1.205-1.208c-.126-.334-.237-.676-.353-1.018l.064.002.302.058.046 1.104c-.019-.05-.04-.097-.059-.146zm1.244-.9c.051.007.103.012.154.02-.01.245-.014.487-.008.728-.053-.248-.1-.498-.146-.748zm1.121.313c-.03-.081-.063-.162-.094-.244a.434.434 0 00.19-.313c.09.05.183.099.271.154a.525.525 0 00-.367.403zm1.688 1.024c-.064.148-.11.301-.156.456a13.747 13.747 0 01-.192-.592 7.78 7.78 0 00-.149-.632c.208.207.397.433.564.67a.294.294 0 00-.067.098zM117.905 11.018c-1.905-.52-4.047-.282-5.915.286-1.824.554-3.808 1.574-4.979 3.122a.412.412 0 00-.04.441c-.171.302-.159.688.207.945 2.038 1.435 4.76 1.771 7.072.784 1.8-.769 3.442-2.487 3.857-4.455.41-.23.38-.964-.202-1.123zm-9.239 3.88a5.841 5.841 0 01-.475-.309c.254-.19.508-.38.767-.561-.154.26-.255.555-.292.87zm1.615.659c.017-.004.033-.005.05-.01.258-.095.505-.211.746-.338-.01.113-.018.226-.018.34 0 .055.017.105.04.152a6.107 6.107 0 01-.818-.144zm1.76-.992c.066-.056.135-.107.2-.166a5.31 5.31 0 00.428-.445 1.39 1.39 0 00-.003.268c.001.013.006.024.009.036l-.04.057c-.205.156-.42.298-.641.432.013-.062.029-.122.047-.182zm-.028 1.167c.185-.093.367-.19.543-.296.087.039.184.053.28.032.08.007.16.017.24.021.116.006.228.005.34-.001a5.636 5.636 0 01-1.403.244z"/><path d="M111.88 23.17c-.003-.013-.003-.027-.007-.04-.372-1.025-1.134-1.935-1.816-2.775a33.247 33.247 0 00-2.225-2.51 10.135 10.135 0 00-1.647-1.367c-.17-.202-.438-.35-.732-.456-.078-.042-.155-.085-.236-.116-.296-.116-2.224-.487-2.648-.507a7.826 7.826 0 00-1.108-.069c-1.291.007-2.593.38-3.73.982-.633.335-1.23.722-1.807 1.14-.04.018-.078.039-.118.058a51.163 51.163 0 00-3.048 1.591c-.411.095-.822.19-1.232.294l-.96.245c-.747.148-1.493.3-2.238.461-.968.21-1.93.457-2.89.703-1.053.074-2.107.15-3.16.24-3.005.256-6.01.502-9.013.791l-.162.018-.742.003c-2.428.013-4.857.01-7.285-.007-4.8-.036-9.6-.104-14.4-.127-1.833-.009-3.664.05-5.495.084-1.595-.06-3.19-.111-4.787-.151-6.846-.172-13.724-.175-20.557.341-1.727.13-3.465.259-5.165.606-.224.046-.458.095-.696.148-.407-.2-1.04-.113-1.416-.05-.6.102-1.197.312-1.747.567-1.175.546-2.189 1.33-3.068 2.278-.145.156-.282.318-.416.481a9.84 9.84 0 00-1.227 1.215C4.88 28.697 4 30.531 3.722 32.417c-.035.235-.064.477-.083.719-.128.412-.241.83-.337 1.248-.315 1.38-.486 2.787-.624 4.194a67.781 67.781 0 00-.312 5.284 88.269 88.269 0 00-.248 1.803 57.905 57.905 0 00-.365 4.466c-.038.773-.061 1.544-.056 2.318.002.186-.02.392.01.576.033.196.096.366.116.567.024.237.04.477.08.713-.006.118-.012.237-.016.355-.034.902-.053 1.805-.066 2.708a58.057 58.057 0 00-.013 7.021c.004.067.01.133.015.2.049 3.244.17 6.488.343 9.728.047.885.104 1.77.16 2.654l-.019.409c-.036.752-.143 1.628.001 2.402-.95.859-1.574 2.154-1.91 3.315-.608 2.11-.403 4.344-.147 6.49a.603.603 0 00.488.544c.137.113.32.161.516.084.57-.223.886-.759 1.297-1.186.395-.413.825-.79 1.198-1.224.704-.817 1.188-1.792 1.474-2.827.346-1.25.35-2.84-.158-4.152a3.804 3.804 0 00-.23-.65A3.49 3.49 0 003.81 78.85c-.01-.008-.02-.013-.03-.02-.014-.167-.028-.335-.04-.5-.057-.845-.108-1.69-.158-2.535l.02-.532c.062-1.712.116-3.424.163-5.137.058-2.165.085-4.329.08-6.493.04-.523.07-1.045.113-1.56a1018.426 1018.426 0 00.999-13.005l.182-1.296c.164-.864.326-1.729.496-2.592.243-1.224.508-2.443.791-3.658-.014.64-.001 1.283.024 1.922v.005c.006 1.097.1 2.187.23 3.275-.002.714.01 1.428.049 2.14.08 1.526.226 3.049.437 4.563.034.243.073.485.111.727.026.296.058.59.095.885-.01.873 0 1.746.037 2.62.127 3.005 2.17 18.425 3.545 23.604a29.552 29.552 0 003.613 9.134c.469.774.972 1.527 1.512 2.253.278.375.573.811.95 1.095 2.623 1.788 5.125.703 5.014.42-.102-.262-.635-1.06-1.155-2.498-.22-.595-3.945-9.189-3.822-17.085 1.037-.81 3.59-1.542 4.506-1.693-.001.083-.005.167-.005.25.002 4.03 1.268 10.893 2.428 14.188.319.906.67 1.8 1.05 2.681.34.781 1.119 2.66 1.956 3.574 1.854 1.68 4.893 1.248 4.86.952-.885-1.885-1.201-3.258-1.564-4.382-.158-.488-.85-3.876-.955-4.564-1.496-8.197.82-12.879 1.16-13.16.096-.02.19-.045.287-.064.875-.172 1.76-.306 2.647-.388a38.03 38.03 0 013.073-.155c11.989 1.178 23.717 4.85 33.857 6.344l.253.038-.014.11c-.14 1.22-.13 2.47-.092 3.696a32.24 32.24 0 00.318 3.538c.082.572.169 1.16.315 1.721.158 1.622.448 3.227.928 4.794.202.658.437 1.305.71 1.937.268.62.65 1.533 1.366 1.688 1.466.317 3.433-.043 3.45-.44-.3-1.299-.413-2.005-.517-2.717-.1-.685-.184-1.373-.25-2.062a48.115 48.115 0 01-.213-4c-.012-.869.02-1.734.062-2.6.054-.606.113-1.212.174-1.817.044-.44.081-.879.118-1.318.638.16 1.284.3 1.933.414.452.155.91.289 1.375.397.336.077.646.102.99.091.17-.005.347.013.511-.049l.016-.008c.089.007.18.009.268.013l-.04.195a18.537 18.537 0 00-.297 1.867c-.149 1.354-.54 5.835.54 10.41.671 1.365 4.052 1.813 4.059 1.34.05-3.664.596-7.313 1.411-10.88.706-3.09 1.635-6.112 2.566-9.137.436-.892.832-1.798 1.164-2.734.33-.93.638-1.885.862-2.849.108-.245.214-.49.303-.742a82.06 82.06 0 00.76-2.25l1.431-4.458c.363-1.13.72-2.264 1.07-3.4.112-.302.222-.604.336-.902.459-1.195.927-2.387 1.404-3.574.954-2.373 1.97-4.737 2.834-7.143l.059-.164.16-.302c.665-1.235 1.25-2.506 1.909-3.744.003-.005.002-.01.004-.016.288-.444.583-.882.897-1.307.573-.777 1.145-1.548 1.766-2.288l.108-.13c.455-.312.916-.614 1.38-.906.199-.126.403-.246.607-.366a10.48 10.48 0 012.25-.655c2.61-.446 8.48.36 8.816.177.945-.514 1.86-1.252 2.487-2.133.32-.45.6-.93.817-1.44.223-.52.268-1.082.316-1.641-8.51-6.601-10.014-9.09-10.166-9.249zM2.303 85.657c-.02.062-.037.124-.054.186l-.066.115c.004-.196.012-.392.022-.588l.022-.198c.047.126.1.25.155.373a.276.276 0 00-.08.112zm.436-3.616a.344.344 0 00-.072-.048c.034-.146.065-.293.102-.437.055-.218-.297-.319-.377-.11-.037.094-.068.188-.1.283a.359.359 0 00-.114-.003c.054-.098.106-.197.167-.29.105-.165.218-.318.337-.465.051.222.114.442.194.657-.05.137-.095.275-.137.413zm4.038-50.355a39.949 39.949 0 00-.629 3.56c-.056.445-.124.902-.17 1.361.009-.178.016-.356.024-.535.035-.698.087-1.394.168-2.088.159-1.365.427-2.725.9-4.018a11.29 11.29 0 01.426-1.005c-.328.885-.525 1.84-.719 2.725zm1.775-2.601c.182-.576.424-1.154.77-1.655.023-.013.049-.023.073-.035-.391.78-.73 1.581-1.018 2.411.055-.241.116-.481.175-.721zm.76 21.958c-.019-.47-.041-.94-.058-1.411-.056-1.558-.105-3.168-.418-4.697a.338.338 0 00-.214-.253l-.005-.035a57.06 57.06 0 01-.209-1.94l-.03-.381-.001-.064a.307.307 0 00.12-.085l-.02.241c-.026.35-.084.74.079 1.064a.393.393 0 00.292.222c.271 2.738.471 5.477.857 8.205v.005l.032.51c-.14-.46-.282-.92-.425-1.38zM10.4 64.131c.021.032.04.065.063.097.01.404.02.808.033 1.212-.021-.436-.053-.874-.096-1.31zM17.546 86c.065.238.135.475.202.712a.325.325 0 00-.084-.005c-.071-.321-.141-.643-.215-.963-.04-.17-.073-.34-.111-.51.068.256.137.511.208.766zm46.916-49.264c.077.059.163.104.256.134l-1.175 1.664a67.3 67.3 0 01.431-1.07l.488-.728zm-.399 8.757a.724.724 0 00-.182.44c-.205.128-.412.254-.615.385a.182.182 0 00-.057-.131l.284-.456.57-.238zm-.164-12.9l.07-.067-.652.973a165.12 165.12 0 00-1.513 2.309.248.248 0 00-.261.077 70.237 70.237 0 011.572-2.526c.26-.257.52-.513.784-.766zm-.944-5.205c-.165.355-.339.706-.521 1.053-.195.272-.386.547-.603.801-.124.146-.247.294-.37.441.458-.789.956-1.557 1.494-2.295zm-1.886 18.53c.328-.168.654-.338.982-.504.006.023.014.045.022.068l-.18.259c-.253.133-.507.265-.759.4l-.202.11c.046-.111.09-.223.137-.333zm-1.267-2.265l-.41.997-.452.232c.29-.406.576-.818.862-1.229zm-3.853 7.568c.688-.36 1.384-.702 2.085-1.035l-.036.09c-.682.317-1.364.635-2.049.945zm1.37 4.515c-.282.178-.563.358-.846.536l.07-.097.773-.443c0 .002.002.003.004.004zm-.398-7.347l.001-.005c.029-.095.05-.191.062-.29l.021-.012a.885.885 0 00.372.09c-.156.083-.311.168-.467.253l.011-.036zM49.717 25.92a.361.361 0 00.065.306c.13.172.254.349.381.523a25.04 25.04 0 00-1.064-.862l.618.033zm-2.341-1.149c.133.01.266.016.399.026a40.92 40.92 0 00-.63-.004c-.187-.012-.375-.015-.562-.022l-.02-.065c.27.023.542.045.813.065zm-3.059-1.394a.383.383 0 00-.034.162h-.006l-.324-.021c-.548-.096-1.1-.165-1.653-.207.672.021 1.345.042 2.017.066zm-2.803 1.122c.706.066 1.412.139 2.118.19l.53.038c.031.007.063.015.096.021a65.858 65.858 0 00-4.06.122c.006-.174-.097-.361-.265-.416l1.581.045zm-2.083-.123a.33.33 0 00.136.058c-.035.002-.07.002-.105.005-.551-.1-1.238.128-1.744.234l-.094.02a.353.353 0 00-.015-.093 17.508 17.508 0 011.822-.224zm-3.17 2.787a6.4 6.4 0 00.49.153l-.28.104c-.182.02-.365.034-.548.05 0-.017.005-.035.002-.052a.612.612 0 00-.065-.19c.134-.023.268-.043.402-.065zm-.857 1.515c-.39.167-.784.323-1.182.467-.025-.004-.049-.01-.075-.012l-.088-.003c0-.028 0-.056-.003-.086l-.001-.004c.45-.12.9-.24 1.349-.362zm-3.19-3.466l.139.002.404.043c.116.013.24.02.361.031.136.111.272.222.412.328l-.566.088c-.285-.11-.573-.213-.863-.312a.489.489 0 00.113-.18zm-5.012.606c.636-.104 1.272-.2 1.908-.288.185.108.371.213.557.32-.51.001-1.021.006-1.531.018-.32.007-.637.024-.956.037.012-.028.017-.057.022-.087zm-5.873-2.317a.321.321 0 00-.085.175c-.342.018-.683.034-1.025.056a.295.295 0 00-.038-.166c.383-.024.765-.043 1.148-.065zm-.783 7.707a10.33 10.33 0 00-1.647 1.51c.112-.331.22-.663.329-.995l1.318-.515zm-1.354-5.076l.013.001c.157.026.314.046.47.069v.001c-.07.059-.136.12-.204.18-.26.079-.518.16-.776.241.165-.165.335-.324.497-.492zm-1.614 1.574l.639-.189-.272.255c-.27.112-.542.224-.813.338.15-.134.3-.267.446-.404zm.823 4.297a9.03 9.03 0 01-.322.445c-.097.126-.19.252-.283.378.124-.303.24-.61.363-.913a.41.41 0 00.242.09zM16.53 41.58a.518.518 0 00-.515.062c.068-.47.132-.94.19-1.413a.439.439 0 00-.09-.338c.09-.202.182-.402.27-.605-.03.768.02 1.537.145 2.294zm-.331-12.044c-.1.105-.2.208-.299.314-.4.402-.797.809-1.188 1.223l-.05.055.005-.064a.191.191 0 00-.055-.164l.049-.062c.275-.34.558-.678.844-1.015.23-.096.462-.193.694-.287zm-1.353-3.8l.105.007c-.122.105-.238.216-.358.323l-.144.038c.133-.122.26-.25.397-.369zM11.21 38.88l.034-.18c.103-.073.206-.148.306-.225l-.15.837a.47.47 0 00-.184.031l-.006-.463zm.173 32.984a.354.354 0 00.129-.02c.03.347.06.695.096 1.044-.073-.342-.15-.683-.225-1.024zm.266-38.956c-.172.245-.34.492-.506.74l.263-1.253c.027-.013.054-.025.08-.04.133-.083.263-.17.395-.253-.078.268-.157.536-.232.806zm.853 47.183a51.702 51.702 0 01-.387-1.567c.126.41.267.815.425 1.21-.013.119-.027.238-.038.357zm-.178-10.512c.036.001.071 0 .107-.008l.005.912-.112-.904zm.233-24.512c-.1-.76-.206-1.519-.312-2.278.019-.183.037-.365.058-.548.064-.546.137-1.091.21-1.636.101-.03.197-.094.281-.192l-.034.499-.134.275a.654.654 0 00.076.66 81.118 81.118 0 00-.118 3.43l-.027-.21zm.236 15.49l-.101-1.935c-.026-.476-.058-.952-.088-1.427a.258.258 0 01.026-.004c.062.59.124 1.18.188 1.77.06.542.124 1.084.187 1.626a.424.424 0 00-.212-.03zm1.112-36.259l.076.001h.02a.418.418 0 00-.069.209 17.03 17.03 0 00-.814.008c.26-.079.523-.153.787-.218zm-.168 30.305l-.018-.147a.373.373 0 00.076-.022c.021.398.039.795.058 1.193l-.116-1.024zm.347-22.847c-.056.062-.113.122-.168.184l.032-.189.206-.265-.07.27zm.61 49.16a35.456 35.456 0 01-.492-2.88 18.2 18.2 0 01.105-.646c.138.912.29 1.82.463 2.726l-.076.8zm.096-27.083l-.018-.23c.116-.34.183-.712.27-1.045.126-.476.255-.95.376-1.427.052-.204.098-.41.147-.614.032.26.06.522.09.783a66.652 66.652 0 01-.815 2.4l-.05.133zm.567 18.546c.052-.02.105-.037.157-.057l-.01.252-.114.113-.033-.308zm.11 10.943c.162.675.331 1.35.511 2.021l.036.127c-.047-.128-.095-.254-.14-.382a41.04 41.04 0 01-.37-1.122c-.011-.215-.024-.43-.036-.644zm.728 5.917a20.117 20.117 0 01-.36-.564l-.016-.145-.04-.433c.228.48.46.96.697 1.436l.183.36c-.16-.215-.316-.432-.464-.654zm.703-42.42a.563.563 0 00-.103.021l-.334-.307.1-.483.382.482c-.011.097-.029.192-.045.287zm.33 6.497l-.033-.261c.02-.094.042-.187.06-.28l.013-.075.103.16-.144.456zm-.353-8.553c.012.057.02.116.03.174l-.096-.092c.085-.408.172-.816.265-1.221.107.286.23.567.363.843-.213-.165-.631-.022-.562.296zm1.356 1.104c-.04.073-.075.149-.114.222l-.33-.315a6.759 6.759 0 00-.208-1.021c.199.384.417.755.652 1.114zm-.555 4.182c.12.196.246.389.375.579-.035.122-.073.242-.109.364l-.359-.287c.03-.219.062-.437.093-.656zm.05 19.346l-.01.005c.169-.3.33-.606.485-.915.21.054.44.024.637-.136a.73.73 0 00.269.49c-.468.164-.93.349-1.381.556zm.75-22.954c.017-.048.032-.096.05-.143.164.23.34.45.52.667-.006.007-.01.017-.017.025-.04-.041-.08-.085-.122-.126-.142-.143-.287-.283-.43-.423zm.553 10.603c.167-.533.32-1.069.467-1.605l.113.1-.157.417a3.34 3.34 0 00-.241.62l-.182.468zm.33 2.79c.098-.271.195-.543.29-.815a.767.767 0 00.067.158c-.066.165-.135.33-.202.496l-.155.161zm1.104 4.656l-.836.862c.118-.277.229-.558.342-.836.177-.027.353-.056.53-.086l-.036.06zm-.107-6.953l-.256.37c.145-.378.32-.75.529-1.097-.09.243-.18.485-.273.727zm1.533 3.52a15.7 15.7 0 00-.688.132c.068-.206.136-.413.201-.62l.28-.176a.638.638 0 00.254.537l-.047.127zm1.035-2.893l-.285.162c.073-.082.144-.165.217-.246.054-.059.105-.121.158-.181l-.09.265zm.967 16.291c-.102.267-.169.547-.11.798-.043.372-.076.746-.097 1.12-.04-.216-.082-.432-.12-.649-.032-.174-.062-.349-.093-.524-.02-.295-.038-.59-.055-.885.067.033.14.052.21.045a.34.34 0 00.225-.117c.013.05.031.099.05.146l-.01.066zm.04-8.322l-.036-.001c.114-.3.223-.599.334-.898.1.04.203.076.308.106-.2.265-.407.525-.605.793zm.936 17.132a23.8 23.8 0 00-.166-.579l-.03-.112a.424.424 0 00.087-.097c.037.202.083.4.126.6-.007.063-.01.126-.017.188zM25.973 63.5c-.165-.005-.33-.011-.496-.022l.607-.115-.111.137zm.794 13.413a61.645 61.645 0 01-.018-.943.616.616 0 00.085-.067c-.024.337-.05.673-.067 1.01zm.304-19.127c-.123.018-.246.035-.369.057l.135-.483a.822.822 0 00.785-.52l.4.06a87.44 87.44 0 00-.95.886zm.798 29.614a.169.169 0 00-.037-.068c-.04-.136-.086-.271-.125-.408-.024-.084-.045-.169-.069-.253.006-.017.013-.032.015-.05.01-.107.014-.215.018-.322a.249.249 0 00.096-.098c0-.002.001-.005.003-.007.074.595.162 1.187.283 1.771-.063-.188-.129-.374-.184-.565zm-.028-26.162l-.214.036c.261-.247.524-.492.79-.735l.025-.01c-.202.234-.4.473-.601.709zm.936 2.323c.074-.103.146-.206.221-.308.129-.175.262-.345.393-.517l.454-.087c-.357.302-.713.607-1.068.912zm.612-5.284l-.1.005.156-.212.05-.017c.303-.018.607-.031.911-.037-.34.082-.68.169-1.017.26zm.848-4.856l-.556-.36c-.114-.073-.229-.144-.342-.217.737.265 1.48.515 2.221.764.142.048.283.098.425.147a53.602 53.602 0 01-1.748-.334zm4.877 10.212a.752.752 0 00-.175-.05c.256-.15.516-.292.774-.437-.2.163-.4.323-.599.487zm1.297-4.337a.427.427 0 00-.304.064l-.31.197c-.048.022-.097.042-.147.063l.173-.108a.412.412 0 00.152-.18l.629-.118-.193.082zm-.591-.605l-.021.003a.437.437 0 00-.13-.054l.027-.025.23-.04c.413-.035.825-.068 1.237-.106-.447.076-.895.15-1.343.222zm3.796 1.306c-.805.309-1.597.648-2.381 1.01l.73-.36c.75-.37 1.494-.744 2.239-1.12l-.588.47zm2.612-2.972c-.032.042-.067.083-.1.125l-1.003-.071a1.201 1.201 0 00-.268-.173c.307-.008.613-.017.92-.029.104-.003.207-.008.311-.013l.081.033.12.052c-.02.026-.041.05-.06.076zm1.092 2.089c.1-.057.2-.116.299-.179.085.243.296.427.593.396a4.98 4.98 0 00-.396.22.774.774 0 00-.496-.437zm.393 6.258c.051-.057.104-.113.154-.17.417-.382.845-.753 1.297-1.09.088-.021.177-.037.265-.054a2.346 2.346 0 00-.09.236c-.469.342-.95.667-1.435.967-.062.039-.128.073-.19.11zm2.047 1.945l-.471.06a.348.348 0 00-.174-.103c.071-.087.145-.172.215-.26.107.144.27.248.451.292l-.02.01zm2.946 1.17c-.496.105-.996.229-1.428.475a.367.367 0 00-.27.222 76.035 76.035 0 00-.824-.037c.155-.099.308-.2.46-.303.298-.064.595-.131.893-.195l1.307-.284-.138.122zm-2.242-2.994l.194-.279c.11-.018.218-.037.327-.06-.166.106-.332.213-.497.322l-.024.017zm3.39-23.858c-.357 1.667-1.036 3.235-1.563 4.854-1.278 3.93-3.297 5.929-4.887 6.716-1.583.54-3.265.7-4.954.535-10.592-1.038-16.612-7.547-18.453-10.642-1.596-2.683-.894-5.896-.688-6.579.675-2.234 1.888-3.54 3.967-4.45a9.129 9.129 0 011.45-.493l.153-.031a8.583 8.583 0 011.56-.16h.152c1.43.053 2.787.553 4.155.92 1.476.394 2.965.528 4.43.011.64-.225 1.32-.754 1.755-1.285.136-.166 2.156-2.856 6.176-2.182.63.078 1.201.207 1.706.385a8.72 8.72 0 011.48.684l.125.08c.26.177.515.36.756.562.269.225.484.436.636.607a8.82 8.82 0 01.926 1.247l.149.245.11.19c1.47 2.703 1.495 5.828.86 8.786zm-.624-12.608c.082.006.163.016.245.021h.045c.18.183.357.369.525.562.444.512.861 1.042 1.24 1.602a30.625 30.625 0 00-2.055-2.185zM51.307 33c.278.414.547.833.81 1.257-.235-.335-.466-.671-.703-1.003-.034-.086-.072-.169-.107-.254zm.971 5.421a14.933 14.933 0 00-.164-2.515c.066.06.136.113.21.158.036.79.019 1.576-.046 2.357zm-.733-12.382c.186.014.37.031.556.047.236.347.468.697.701 1.046-.403-.38-.82-.745-1.257-1.093zm2.165.175l.095.007c.117.162.229.328.342.493-.11.05-.186.187-.105.323.035.057.066.117.1.175-.278-.343-.556-.686-.838-1.027l.406.029zm-.163 18.772c.16-.545.306-1.093.437-1.643l.04.812c-.211.482-.43.96-.665 1.43.064-.199.128-.398.188-.6zm1.062 10.811c-.02.032-.037.064-.057.095l-.812.418c.29-.17.579-.342.869-.513zm.601 10.742c-.23.138-.457.28-.685.42.145-.119.292-.236.436-.357.09-.076.18-.157.27-.234.024.03.05.055.082.075-.035.032-.07.063-.103.096zm-.004-40.612l.062.012.546.096c.026.067.05.133.078.2l.268.674a31.832 31.832 0 01-.954-.982zm.693 42.572l-.07-.047.135-.106c.283-.233.56-.474.834-.719l.244-.075c-.078.07-.154.14-.234.208-.295.255-.599.5-.909.739zm1.243.571a1.257 1.257 0 00-.32-.107c.19-.172.378-.344.56-.524.265-.262.52-.535.769-.816.072.154.2.285.35.375-.437.374-.889.73-1.359 1.072zm.049-6.843c.059-.097.12-.193.18-.289l.343-.112.133-.045-.193.167c-.155.091-.31.185-.463.279zm1.418 3.798l-.23.063c.17-.18.342-.36.51-.544.019.035.04.07.064.102-.112.129-.228.254-.344.38zm.44-9.209l-.617.72c-.471.322-.948.635-1.423.946-.352.23-.7.465-1.05.698a79.18 79.18 0 003.125-2.48l-.035.116zm.075-3.425a.738.738 0 00-.406.253c-.019.023-.031.049-.046.074-.223.122-.443.247-.666.367l.352-.506.99-.593a49.6 49.6 0 00-.199.36l-.025.045zm.493 16.633a8.368 8.368 0 01-.463-.06c.257-.101.51-.21.76-.331-.1.129-.198.26-.297.391zm.67-18.638l-.687.368.273-.408c.256-.178.514-.35.771-.526-.12.188-.24.376-.357.566zm1.105 19.997c-.163.007-.325.015-.487.02l-.02-.001.392-.28.409-.005a3.873 3.873 0 01-.294.266zm.393-22.887c.128-.127.254-.257.381-.385.042.05.088.098.14.137l-.521.248zm.834 6.212l.131-.073-.44.587.309-.514zm-.29 16.61c.045-.07.086-.142.127-.214.123-.002.246-.007.369-.01.003.004.005.008.008.01.048.05.102.091.157.127-.22.035-.44.064-.66.087zm.678-20.166l.41-.605.58-.35c-.057.099-.116.196-.174.294-.126.109-.246.225-.342.356-.156.104-.316.203-.474.305zm.837 8.609l-.223.103c.432-.341.863-.684 1.293-1.027a.487.487 0 00.172-.035l-1.156.892-.086.067zm2.065 14.681c-.295-.058-.59-.115-.886-.17.1-.022.2-.04.3-.067a.38.38 0 00.172-.096.78.78 0 00.253.175l.147.064a.727.727 0 00.015.092v.002zm-.162-16.149l.13-.122c.163-.144.309-.306.453-.47.366-.294.733-.588 1.098-.883.018.044.04.086.068.125l-1.75 1.35zm2.412-34.658l1.249.09-.083.015-1.191-.046c.01-.019.018-.039.025-.059zm1.319 12.559l-.24.113c.036-.165.068-.33.097-.497a.425.425 0 00.182.082c-.012.1-.026.201-.04.302zm22.52-7.922c.033 0 .066.002.1-.007l.022-.007a15.71 15.71 0 00-.599.745c-.092.05-.18.11-.269.164.246-.3.494-.6.745-.895zm.132 2.276c-.17.18-.338.364-.508.547.09-.16.183-.32.272-.48.082-.016.16-.038.236-.067zm-1.62-3.857l.006.005c.071.057.151.092.235.11-.142.112-.278.23-.418.343a.684.684 0 00-.109-.046l.286-.412zm.523 17.963c-.042.185-.081.371-.122.557-.091.177-.185.353-.276.53l-.189.368-.12.044c.236-.5.47-1 .707-1.499zm-.97-19.517c-.005.016-.005.032-.008.048-.065.075-.129.15-.194.223l-.373.09c.214-.074.402-.205.575-.36zm-2.771 2.497l.638-.236c-.53.5-1.08.979-1.641 1.443l-.087.021c.349-.423.714-.831 1.09-1.228zm-.258 27.874l.282-.3c.072-.075.032-.18-.04-.234.088-.203.181-.405.276-.605.1-.061.203-.119.303-.181.057-.036.111-.075.168-.112a35.688 35.688 0 00-1.061 1.868l-.383.533c.152-.323.309-.644.455-.969zm-.467-4.768c.252-.449.504-.898.76-1.344l.245-.432c-.285.65-.583 1.327-.815 2.012a.768.768 0 00-.19-.236zm-5.6-12.276c-.269.047-.537.094-.804.143.454-.193.909-.383 1.363-.575l-.56.432zm.373 14.157c-.183.923-.342 1.85-.493 2.779-.04-.121-.159-.212-.299-.145l-.059.032c.165-.65.333-1.299.506-1.946.117-.24.23-.48.345-.72zm-1.359-21.992c.093-.09.187-.18.278-.272.178-.068.355-.14.534-.206l.168-.06c-.14.119-.278.24-.412.363-.189.06-.38.115-.568.175zm.165 14.885c-.08.246-.16.492-.238.738-.208.138-.414.278-.62.417.06-.149.12-.298.182-.447.185-.193.372-.384.556-.579l.12-.129zm-.732 15.463c.277-.364.549-.73.817-1.1l-.005.054c-.082.194-.163.388-.239.585l-.048.063c-.063-.014-.129.004-.18.082-.12.185-.239.372-.357.558.005-.08.01-.161.012-.242zm2.84-26.4l1.246-.551a.772.772 0 00-.133.356c-.46.1-.919.2-1.376.31l.263-.115zM83.47 51.03l.27-.164c-.115.362-.23.723-.343 1.086l.073-.922zm.243-14.96l.342-.137c-.057.08-.111.163-.168.244a.501.501 0 00-.174-.108zm2.813-3.37l.027-.011c-.347.414-.688.836-1.022 1.263l-.05.01c.35-.42.696-.841 1.045-1.262zm-2.623-7.159a.353.353 0 00.116-.209 7.06 7.06 0 001.063-.147.371.371 0 00.194-.113c.229-.007.458-.016.687-.03-.027.026-.044.055-.063.083-.48.136-.961.27-1.439.414-.202.06-.402.127-.603.189a.502.502 0 00.045-.187zm-5.027-2.474c.815.002 1.631-.002 2.447-.011-.112.051-.22.111-.322.179a59.976 59.976 0 01-2.754-.066l.629-.102zm-1.238 9.566a105.33 105.33 0 012.476-.888l.003.003c-.916.349-1.83.704-2.74 1.066l.26-.181zm-4.833-5.566l.363-.456.15.004a359.53 359.53 0 01-1.934 2.636c.473-.729.945-1.457 1.42-2.184zm-2.17 42.218a.485.485 0 00-.134-.372c.212-.175.421-.354.63-.532-.168.3-.333.6-.496.904zm-.167-36.263l-.05-.234.326-.48a.621.621 0 00.54.23 7.78 7.78 0 00-.816.484zm1.318 36.302c-.2.275-.4.55-.597.827.222-.407.441-.816.662-1.224a5.089 5.089 0 00-.065.397zm-.589-21.818c.155-.164.306-.33.457-.497.765-.436 1.533-.867 2.3-1.298.11-.003.221-.03.325-.095l.009.012c.025-.015.048-.033.073-.048l-.031.068c-.234.15-.468.3-.699.454-.816.46-1.627.927-2.434 1.404zm1.559 38.673c-.044-.27-.09-.54-.13-.81l-.027-.21c.071-.14.125-.245.162-.364-.003.46-.004.922-.005 1.384zm-.449-23.038c.363-.297.732-.586 1.102-.874l-.043.137c-.351.248-.704.493-1.059.737zm1.06 27.607c.065.033.133.058.202.079.029.275.055.552.092.826.01.075.026.148.037.222a19.596 19.596 0 01-.331-1.127zm.457-29.733a.726.726 0 00-.383-.248c.217-.158.43-.322.646-.483-.09.243-.177.487-.263.731zm.465 30.537a17.069 17.069 0 01-.166-.718c.02-.005.044-.007.065-.014.033.045.07.088.109.128a.277.277 0 00.222.08c.014.562.04 1.124.07 1.685l-.3-1.16zm-.197-49.885a.613.613 0 00.078-.127c.25-.084.5-.168.752-.25l-.83.377zm.844 41.495l-.001-.141c-.004-.405-.01-.808-.017-1.212l.005-.013a90.85 90.85 0 00.393-1.644c.063.036.127.07.195.1a23.3 23.3 0 00-.575 2.91zm.848-55.627l-.206.091.428-.486c.454-.102.907-.202 1.359-.311l-1.58.706zm2.625 47.229c-.482.04-.966.076-1.449.108.013-.069.023-.138.037-.207.47.033.94.067 1.412.099zm-1.22 4.142l-.064-.019.002-.034c.002-.116.004-.212.018-.303l.037-.003.1.019c-.069.11-.075.266.004.37l-.097-.03zm.03-1.768l-.362.016a.753.753 0 00-.17-.043l-.047-.006.033-.267.022-.168c.65.048 1.301.086 1.953.111a.82.82 0 00.044.18c-.489.076-.98.133-1.473.177zm1.436-7.417c-.095.295-.188.591-.275.89l-.127.436-.25.108c.12-.303.228-.61.32-.92l.058-.075c.104-.142.117-.284.074-.402.113-.456.222-.958.265-1.452l.097-.276c-.131.554-.232 1.156-.162 1.69zm.224-4.401c-.166.228-.3.48-.422.741a.435.435 0 00-.137.085l-.18.165.01-.114c.189-.473.367-.95.522-1.435.07-.218.137-.437.2-.658a.81.81 0 00.106-.09l.192-.2c-.023.472.01.939.124 1.388a.325.325 0 00-.415.118zm2.342 13.823c-.65-.08-1.292-.175-1.93-.294a19.18 19.18 0 002.693.043c.195.111.39.224.583.34l.015.06a49.62 49.62 0 01-1.36-.149zm1.764-14.579a202.274 202.274 0 00-2.26 4.892l-.012.029c.082-.28.167-.56.263-.838.17-.489.338-.978.503-1.468.39-.918.804-1.825 1.232-2.724.191-.4.387-.799.579-1.199a.76.76 0 00.267.06c-.191.416-.385.83-.572 1.248zm.405-6.286a790.465 790.465 0 00-.194.17l.3-.416c.108-.151.213-.305.321-.456l-.427.702zm.542 20.58c-.084-.045-.168-.092-.254-.136.099-.014.198-.024.296-.04-.016.058-.027.117-.042.176zm-.084-1.786l.353-.138a.822.822 0 00.174.043c.031.051.067.098.106.142-.211-.018-.422-.036-.633-.047zm1.283-26.16a.412.412 0 00-.19.145c.09-.357.183-.713.275-1.07l.398-.229c-.178.38-.34.764-.483 1.155zm.034-11.97c.046-.094.09-.19.136-.283.299-.604.61-1.202.928-1.797l1.075-1.403a401.156 401.156 0 00-2.14 3.483zm1.65 35.126c-.089.244-.181.486-.278.727l-.021-.14c.096-.27.218-.532.33-.797l-.031.21zm.694-3.701c-.124.412-.273.913-.112 1.33a.214.214 0 00-.174.175c-.09.42-.172.842-.25 1.264a.392.392 0 00-.196-.171 38.98 38.98 0 01.367-1.593c.242-.713.48-1.427.719-2.14-.122.377-.24.756-.354 1.135zm.32-8.995c.112-.36.227-.72.338-1.08l.119-.386c.02.026.042.05.064.073-.173.464-.35.927-.522 1.393zm.626-21.093c-.156.156-.31.315-.465.471l.144-.275.622-.717c-.102.173-.2.348-.301.521zm.317 9.227c.303-.646.59-1.3.892-1.949.013-.03.028-.059.042-.089l.07-.039a44.74 44.74 0 00-.827 1.749l-.154.283-.023.045zm.318 1.766a.467.467 0 00.107-.117c.307-.478.595-.968.875-1.462-.047.293-.088.588-.132.882-.156.295-.305.592-.456.89-.223.12-.445.244-.668.365l.274-.558zm.124 13.875c.447-1.391.879-2.79 1.293-4.192.241-.647.48-1.296.725-1.942a150.6 150.6 0 00.662-1.795c-.901 2.64-1.798 5.282-2.68 7.93zm2.116-10.215l-.144.205c.372-1.15.74-2.302 1.11-3.453.04.02.084.036.13.044a177.154 177.154 0 01-1.096 3.204zm.751-21.535c.72-.81 1.445-1.617 2.175-2.417.174-.191.35-.379.525-.568-.42.565-.833 1.134-1.229 1.719-.26.223-.523.444-.783.67l-.688.596zm2.415-.146l-.277.744c-.399.42-.797.842-1.19 1.269.294-.498.592-.993.896-1.485.192-.174.38-.352.571-.528zm-1.53 7.445a226.379 226.379 0 011.912-3.752 89.55 89.55 0 00-.47 1.649 504.496 504.496 0 00-1.71 3.2c.088-.366.176-.732.268-1.097zm-.222 12.01c.115-.436.227-.874.345-1.31.268-.268.49-.617.686-.927.03.051.07.097.112.14-.36.71-.742 1.41-1.143 2.097zm1.765 2.143c-.076.243-.15.486-.224.73.19-.66.378-1.32.571-1.977l.148-.392c-.162.547-.326 1.093-.495 1.639zm0-33.909c-.219.176-.435.355-.647.54a.4.4 0 00-.048-.094c.114-.1.226-.203.34-.303l.21-.125c.223-.133.445-.268.668-.402-.178.125-.355.25-.523.384zm2.171 13.55c.123-.412.249-.822.374-1.233l.09-.1c.144-.071.288-.142.432-.21-.3.512-.598 1.028-.896 1.543zm9.427-13.463l.06.055c-.217.05-.434.102-.649.16l-.156.044-.01-.009c.25-.085.502-.17.755-.25zm-1.05-.857c.1.106.202.209.31.304l.018.014-.375.074c.013-.131.03-.262.048-.392zm-.627 13.98a.321.321 0 00.048-.106l1.59-.663.017.02c-.627.355-1.252.71-1.878 1.067l.223-.318zm-1.014-13.42c.03.055.062.11.095.166-.37.091-.74.188-1.106.296.336-.158.673-.31 1.011-.463zm-5.581-1.84l.032-.02c.583-.335 1.19-.662 1.818-.935a18.93 18.93 0 012.24-.49c-.432.105-.862.222-1.284.364a24.16 24.16 0 00-2.824 1.159c.007-.026.016-.052.018-.078zm3.418 16.499c-.197.212-.39.43-.584.645.101-.177.202-.354.306-.53l.278-.115zm-1.437-6.337l-.87.395.068-.118c.268-.093.534-.187.802-.277zm-.767 1.391c-.307.149-.613.298-.919.45.114-.208.227-.416.343-.623.102.123.27.194.477.139l.141-.039-.042.073zm1.225 10.57c-.253.297-.5.6-.749.902.436-.627.87-1.256 1.311-1.879.27-.381.54-.764.809-1.147l.928-.42a66.537 66.537 0 00-2.299 2.543zm3.22-11.121c-.278.087-.557.17-.833.263-.033.01-.065.023-.098.034l.146-.288c.345-.148.695-.285 1.042-.428-.086.14-.173.278-.257.419zm1.588 7.733c-.082.068-.16.142-.24.212-.137.095-.274.19-.404.295-.298.241-.585.496-.866.758l.916-1.156c.36-.165.722-.328 1.082-.494-.165.126-.33.252-.488.385zm.748-1.561a.225.225 0 00.002-.132c.155-.075.311-.15.468-.222a.382.382 0 00.103.093l-.573.26zm.427-3.78l-.873.364c.542-.286 1.09-.562 1.64-.831-.256.154-.513.307-.767.466zm4.708-7.11c.11.133.222.266.331.4l.067.098c-.187-.175-.373-.353-.559-.53l-.223-.433.384.465zm-1.463-1.294c.083.06.162.125.246.184.192.137.406.293.633.402l.03.036a.213.213 0 00-.17-.006c-.012.005-.023.015-.035.022a.362.362 0 00-.145-.08l-.097-.092c-.158-.153-.314-.309-.47-.463l.008-.003zm1.961 8.644c-1 .55-2.056 1.015-3.12 1.467l3.12-1.467zm-3.776 2.694a4.272 4.272 0 01-.253-.02c1.458-.637 2.937-1.239 4.317-1.981.023.042.055.08.095.108-1.387.63-2.773 1.262-4.159 1.893zm9.798-1.237a.554.554 0 00-.1-.012c-.202-.004-.403-.002-.604.001a.223.223 0 00.08-.163c.333 0 .665-.009.996-.04-.122.074-.245.149-.372.214z"/><path class="st0" d="M79.785 21.018s-1.538 2.934.378 9.874c2.44 8.443 9.331 19.342 20.506 19.077 3.59-1.507 1.834-5.365 2.903-6.387 1.068-1.021 3.862-1.428 2.544-4.64-3.973 2.442-13.538-.604-16.759-12.246-.54-1.952-1.903-5.924 1.21-7.056-1.631-1.537-6.462-1.343-7.18.516-1.95-.983-3.559.273-3.602.862z"/><text transform="translate(130.872 70.427)"><tspan x="0" y="0" class="st1 st2" letter-spacing="-2">K</tspan><tspan x="34.698" y="0" class="st1 st2 st4">OM</tspan><tspan x="134.335" y="0" class="st1 st2">A</tspan><tspan x="176.303" y="0" class="st1 st2">P</tspan><tspan x="212.441" y="0" class="st1 st2">O</tspan><tspan x="259.688" y="0" class="st1 st2 st4">B</tspan><tspan x="295.484" y="0" class="st1 st2">A</tspan></text><text transform="translate(133.236 95.809)" letter-spacing="2" font-size="20.568" font-family="Lifehack">семейство фермерских продуктов</text>
	<style>
		@font-face {
	font-family: 'LunchBox';
	src: local('LunchBox Bold'), local('LunchBox-Bold'),
	url('../fonts/LunchBox-Bold.woff2') format('woff2'),
	url('../fonts/LunchBox-Bold.woff') format('woff'),
	url('../fonts/LunchBox-Bold.ttf') format('truetype');
	font-weight: 700;
	font-style: normal;
}
@font-face {
	font-family: 'Lifehack';
	src: local('Lifehack Bold'), local('Lifehack-Bold'),
	url('../fonts/LifehackSans-Bold.woff2') format('woff2'),
	url('../fonts/LifehackSans-Bold.woff') format('woff');
	font-weight: 700;
	font-style: normal;
}
		.st0 {
	font-family: 'LunchBox';
	font-weight: 700;
}
	</style>
</svg>