<svg xmlns="http://www.w3.org/2000/svg" viewBox="0 0 6.888 5.995"><path d="M.544.234C1.3.182 4.054.144 4.811.114L5.38.095c.167-.005.336-.013.503-.01.252.004.56.04.713.27.091.136.11.306.133.465.025.185.043.37.054.556.01.187.015 2.373.012 2.56a1.3 1.3 0 01-.072.462c-.116.29-.424.39-.702.46-.357.09-.72.149-1.087.172-.175.011-2.35.004-2.524.02a.817.817 0 00-.421.147c-.212.155-.34.39-.524.573a.915.915 0 01-.144.118l.085.05.063-.802c.002-.03-.029-.058-.058-.058-.293.002-.558.168-.85.163a.463.463 0 01-.316-.107c-.097-.092-.12-.229-.126-.356-.007-.159-.003-.318 0-.477.004-.165.011-.33.021-.496.02-.33.054-2.66.103-2.987C.265.665.29.495.389.369.464.273.61.194.734.241.789.262.813.174.758.153a.377.377 0 00-.375.064.65.65 0 00-.217.37c-.041.165-.058.337-.08.505-.02.176-.039 2.353-.052 2.53-.028.355-.039.71-.032 1.065.003.145.012.3.087.428.068.115.185.19.314.22.152.034.31.016.46-.022.18-.047.358-.117.548-.119l-.058-.058-.06.802c-.004.042.05.072.085.049.23-.15.363-.394.549-.589a.732.732 0 01.328-.213c.169-.047 2.349-.033 2.522-.04a5.923 5.923 0 001.118-.15c.291-.069.63-.151.821-.4a.876.876 0 00.157-.444c.02-.174.015-.352.01-.526-.005-.19-.018-2.38-.039-2.57-.019-.176-.036-.36-.083-.531A.644.644 0 006.523.16a.85.85 0 00-.371-.138 2.368 2.368 0 00-.417-.02c-.195.004-.39.01-.584.016C4.375.044 1.599.085.825.142l-.28.02C.498.167.498.238.544.235z"/></svg>