<svg xmlns="http://www.w3.org/2000/svg" viewBox="0 0 5.831 4.632"><path d="M.242.213c.305-.005.61-.017.916-.028l.916-.034c.61-.023 2.221-.047 2.832-.07.15-.007.302-.012.453-.018.069-.003.138-.008.207-.007.053.001.112.007.154.042.045.037.057.096.059.151.002.066-.006.133-.011.198l-.035.454c-.01.151-.022 2.303-.033 2.454-.009.114-.004.263-.104.342-.092.072-.226.065-.336.067l-.455.012c-.151.004-1.303.008-1.455.013-.138.003-.29-.009-.416.056a.732.732 0 00-.155.117l-.159.15c-.108.103-.216.207-.326.31l-.162.15.059.035c.069-.253.15-.502.254-.743.009-.021-.001-.055-.03-.052-.589.055-1.177.108-1.766.157l-.218.019c-.059.004-.12.012-.179 0-.05-.01-.093-.037-.11-.087a.36.36 0 01-.006-.16c.016-.139.03-.275.027-.415C.161 3.184.146 1.042.12.902.093.755.04.592.086.442.118.342.22.23.336.252.376.258.394.196.353.189.237.167.132.23.067.325-.011.44-.008.582.013.715c.012.075.03.15.043.225.012.072.022 2.145.028 2.219.012.15.01.3-.003.45-.01.114-.053.26.02.362.075.107.216.092.33.083a170.647 170.647 0 001.983-.173 8.98 8.98 0 01-.03-.052 4.678 4.678 0 00-.261.76c-.008.033.033.058.059.033l.334-.32c.11-.104.216-.21.329-.31a.51.51 0 01.161-.105c.07-.025.143-.026.216-.028.155-.004 1.31-.008 1.465-.012l.455-.013c.073-.001.147-.002.22-.007a.663.663 0 00.17-.028.298.298 0 00.141-.093.356.356 0 00.068-.165c.01-.065.013-.13.018-.196l.016-.237c.01-.151.021-2.302.032-2.454l.016-.236c.004-.064.012-.128.006-.191A.252.252 0 005.77.07a.243.243 0 00-.147-.066c-.064-.008-.127-.004-.19 0l-.239.01c-.62.024-2.24.049-2.861.073l-.931.038C1.092.138.78.147.47.165L.24.18C.22.181.22.213.24.213z"/></svg>