<?xml version="1.0" encoding="utf-8"?>
<!-- Generator: Adobe Illustrator 22.1.0, SVG Export Plug-In . SVG Version: 6.00 Build 0)  -->
<svg version="1.1" id="OBJECTS" xmlns="http://www.w3.org/2000/svg" xmlns:xlink="http://www.w3.org/1999/xlink" x="0px" y="0px"
	 viewBox="0 0 127.594 107.355" style="enable-background:new 0 0 127.594 107.355;" xml:space="preserve">
<style type="text/css">
	.st0{fill:none;stroke:#f0852a;stroke-width:4;stroke-linecap:round;stroke-linejoin:round;stroke-miterlimit:10;}
</style>
<polygon class="st0" points="125.594,6.87 124.745,3.716 121.866,2 118.574,2.045 117.348,2.978 114.624,3.853 111.824,4.532 
	109.176,5.604 106.711,7.151 104.1,8.318 101.443,9.369 98.691,10.172 96.039,11.232 93.195,11.797 90.741,13.375 87.967,14.119 
	85.318,15.189 82.616,16.121 80.132,17.621 77.45,18.604 74.503,18.902 71.956,20.235 69.219,21.078 66.637,22.323 63.831,22.985 
	61.458,24.727 58.878,25.927 55.979,26.304 53.408,27.528 50.914,28.953 48.174,29.741 45.583,30.915 42.936,31.945 40.16,32.637 
	37.595,33.879 35.032,35.125 32.125,35.479 29.405,36.317 26.756,37.34 24.154,38.486 21.62,39.807 18.85,40.515 16.142,41.879 
	13.374,43.086 10.601,44.276 7.601,44.91 5.556,45.863 3.675,47.128 2,50.397 4.286,53.188 6.992,54.276 9.698,54.971 
	12.246,56.171 14.945,56.892 17.608,57.722 20.343,58.325 22.915,59.45 25.575,60.294 28.279,60.993 31.096,61.33 33.602,62.667 
	34.687,62.914 37.42,61.872 39.695,60.089 42.151,58.588 44.225,56.486 46.837,55.238 49.088,53.426 51.641,52.084 54.387,51.038 
	56.602,49.159 59.157,47.818 61.466,46.089 63.604,44.084 66.488,43.256 68.48,41.022 71.183,39.906 73.589,38.321 76.044,36.814 
	78.63,35.51 80.641,33.303 83.121,31.842 85.484,30.191 88.339,29.306 90.574,27.445 93.243,26.268 95.648,24.665 98.034,23.027 
	100.367,21.238 103.331,20.406 102.271,23.501 100.028,25.759 97.872,28.095 95.607,29.895 93.095,31.414 91.545,33.979 
	88.971,35.431 87.155,37.699 84.702,39.275 83.009,41.688 80.689,43.417 78.391,45.171 76.053,46.881 74.182,49.107 72.154,51.162 
	69.892,52.96 67.709,54.849 65.613,56.835 63.463,58.764 61.294,60.671 59.313,62.773 56.994,64.51 55.298,66.923 52.702,68.341 
	50.781,70.415 53.167,71.866 54.946,74.177 57.75,75.101 59.583,77.34 61.815,79.037 64.378,80.292 66.555,82.065 68.516,84.125 
	71.168,85.255 73.493,86.835 75.436,88.929 77.591,90.738 80.067,92.123 82.026,94.203 82.228,93.931 84.378,95.698 86.624,97.336 
	88.763,99.119 91.185,100.518 93.22,102.441 95.976,103.391 99.587,105.122 101.853,105.355 103.964,104.51 105.807,102.878 
	106.888,98.996 107.228,96.147 107.581,93.301 108.946,90.671 109.64,87.896 109.405,84.926 109.965,82.124 110.798,79.38 
	111.642,76.638 112.332,73.863 113.016,71.087 113.24,68.214 113.992,65.452 114.247,62.586 115.383,59.906 116.061,57.129 
	115.859,54.164 116.692,51.42 117.717,48.717 117.616,45.774 118.577,43.058 119.163,40.262 120.188,37.411 120.206,34.349 
	121.149,31.482 121.814,28.556 122.491,25.632 122.683,22.607 124.092,19.839 124.228,16.801 124.671,13.828 125.078,10.848 "/>
<polygon class="st0" points="50.647,70.22 50.524,73.326 50.703,76.24 50.366,79.115 49.495,81.947 50.082,84.892 49.651,87.759 
	48.838,90.597 48.469,93.471 48.408,96.372 48.626,99.255 51.058,98.43 53.588,97.401 55.146,96.311 56.538,93.719 59.036,92.262 
	60.862,90.116 62.87,88.157 64.672,85.987 66.573,83.919 67.825,83.467 65.278,81.839 62.935,79.839 60.691,77.701 57.983,76.188 
	55.944,73.77 53.248,72.232 "/>
<polygon class="st0" points="42.339,86.75 43.051,89.341 43.418,92.036 44.91,94.387 44.883,97.204 48.266,99.233 48.126,99.246 
	48.998,96.426 48.955,93.522 49.145,90.637 48.921,87.719 50.023,84.906 49.685,81.979 49.625,79.073 50.495,76.238 50.882,73.362 
	51.166,70.564 53.13,68.812 55.151,66.76 57.305,64.851 59.176,62.631 61.144,60.522 63.237,58.55 65.686,56.967 67.73,54.936 
	69.961,53.108 72.265,51.359 74.303,49.317 76.395,47.334 78.65,45.526 80.441,43.207 82.463,41.14 85.03,39.671 86.755,37.284 
	88.818,35.269 91.13,33.526 93.017,31.323 95.54,29.82 97.701,27.918 99.604,25.324 101.723,23.007 103.005,20.929 100.464,21.438 
	97.692,22.502 95.342,24.166 92.974,25.804 90.698,27.587 88.135,28.923 85.969,30.87 83.088,31.694 80.659,33.23 78.256,34.813 
	76.215,36.965 73.356,37.829 71.233,39.851 68.698,41.232 66.355,42.91 64.005,44.582 61.247,45.611 58.792,47.122 56.678,49.162 
	54.18,50.604 51.952,52.471 49.54,54.038 47.119,55.599 44.272,56.497 42.165,58.557 39.793,60.202 37.221,61.541 34.61,62.861 
	35.168,63.933 35.721,66.889 36.723,69.709 38.156,72.398 38.671,75.366 39.557,78.222 39.96,81.224 41.261,83.953 "/>
</svg>
