<?xml version="1.0" encoding="utf-8"?>
<!-- Generator: Adobe Illustrator 22.1.0, SVG Export Plug-In . SVG Version: 6.00 Build 0)  -->
<svg version="1.1" id="OBJECTS" xmlns="http://www.w3.org/2000/svg" xmlns:xlink="http://www.w3.org/1999/xlink" x="0px" y="0px"
	 viewBox="0 0 61.072 59.994" style="enable-background:new 0 0 61.072 59.994;" xml:space="preserve">
<style type="text/css">
	.st0{fill:#2A2A2A;}
	.st1{fill:#1B1B1B;}
	.st2{fill:#0B0B0B;}
	.st3{fill:#171717;}
	.st4{fill:#2B2B2B;}
	.st5{fill:#202020;}
	.st6{fill:#3C3C3C;}
	.st7{fill:#181818;}
	.st8{fill:#4B4B4B;}
	.st9{fill:#3F3F3F;}
	.st10{fill:#676767;}
	.st11{fill:#121212;}
	.st12{fill:#525252;}
	.st13{fill:#0A0A0A;}
	.st14{fill:#7A7A7A;}
	.st15{fill:#808080;}
	.st16{fill:#1C1C1C;}
	.st17{fill:#212121;}
	.st18{fill:#747474;}
	.st19{fill:#131313;}
	.st20{fill:#1A1A1A;}
	.st21{fill:#1D1D1D;}
	.st22{fill:#0D0D0D;}
	.st23{fill:#262626;}
	.st24{fill:#1F1F1F;}
	.st25{fill:#323232;}
	.st26{fill:#101010;}
	.st27{fill:#535353;}
	.st28{fill:#3B3B3B;}
	.st29{fill:#080808;}
	.st30{fill:#141414;}
	.st31{fill:#313131;}
	.st32{fill:#3D3D3D;}
	.st33{fill:#282828;}
	.st34{fill:#393939;}
	.st35{fill:#515151;}
	.st36{fill:#353535;}
	.st37{fill:#4F4F4F;}
	.st38{fill:#5A5A5A;}
	.st39{fill:#444444;}
	.st40{fill:#090909;}
	.st41{fill:#4A4A4A;}
	.st42{fill:#161616;}
	.st43{fill:#616161;}
	.st44{fill:#DBDBDB;}
	.st45{fill:#E1E1E1;}
	.st46{fill:#E0E0E0;}
</style>
<path class="st0" d="M0.139,45.279c-0.045-3.516-0.214-7.036-0.101-10.548c0.134-4.174,0.087-8.364,0.686-12.517
	c0.4-0.607,0.673-1.203-0.162-1.699c0.219-0.57,0.107-1.242,0.563-1.74c0.732-0.526,1.09-1.802,2.418-1.144
	c0.413,0.315,0.519,0.77,0.47,1.229c-0.677,6.356-0.464,12.743-0.724,19.113c-0.005,0.111-0.064,0.217-0.111,0.32
	C3.09,38.435,3,38.614,2.847,38.659c-1.703,0.5-0.989,0.986,0.009,1.472c0.905,1.362,0.651,2.805,0.315,4.251
	c-0.094,0.153-0.224,0.28-0.377,0.378c-0.757,0.143-1.662-0.172-2.216,0.651C0.411,45.432,0.264,45.391,0.139,45.279z"/>
<path class="st1" d="M16.759,0.935c2.233-1.112,4.652-0.311,6.973-0.631c3.717-0.512,7.482-0.283,11.199-0.001
	c2.116,0.161,4.306-0.25,6.364,0.552c-0.322,0.7-1.21,0.81-1.595,1.447c-0.147,0.098-0.296,0.189-0.449,0.278
	c-2.682,0.89-5.372-0.018-8.054,0.045c-4.568,0.108-9.123,0.547-13.698,0.501c-0.63-0.006-1.319,0.175-1.79-0.448
	C15.048,1.523,15.841,1.193,16.759,0.935z"/>
<path class="st2" d="M48.628,1.272c4.541,0.29,7.917,2.208,9.603,6.486c0.423,0.87,0.809,1.745,0.433,2.734
	c-0.562,0.815-1.225,0.688-1.928,0.208c-0.836-1.405-1.489-2.898-2.558-4.205c-0.848-1.038-1.727-1.838-3.063-2.08
	c-1.438-0.26-2.797-0.827-4.257-0.998c-0.671-0.079-1.266-0.283-1.421-1.041C45.941,0.486,47.409,1.22,48.628,1.272z"/>
<path class="st3" d="M28.751,59.749c-4.74,0.079-9.381-1.087-14.116-1.058c-0.473-0.391-0.932-0.789-0.71-1.491
	c1.255-1.487,3.177-1.529,4.632-1.108c2.369,0.685,4.688,0.833,7.088,0.751c0.703-0.024,1.401,0.067,2.094,0.185
	c0.566,0.158,0.918,0.694,1.525,0.799c0.667,0.115,1.102,0.505,0.933,1.182C30.022,59.703,29.531,60.052,28.751,59.749z"/>
<path class="st4" d="M60.955,22.599c0.013,3.314,0.027,6.629,0.04,9.943c-0.317,0.38-0.624,0.774-0.682,1.276
	c-0.082,0.709-0.449,1.096-1.204,1.1c-0.791-0.168-0.977-0.774-1.002-1.421c-0.147-3.918-0.366-7.837,0.108-11.749
	c0.021-0.17,0.131-0.314,0.23-0.454C60.287,20.065,60.361,20.103,60.955,22.599z"/>
<path class="st5" d="M3.282,17.758c-0.657,0.464-1.243,1.068-2.157,1.018c-0.058-0.326-0.116-0.652-0.174-0.978
	c-0.307-1.143,1.223-1.952,0.606-3.152C1.727,12.191,2.701,9.931,3.38,7.6C3.47,7.293,3.678,7.123,3.982,7.041
	c0.716-0.362,1.43-1.004,2.165-0.024c0.329,1.872-0.833,3.474-1.032,5.272c-0.147,1.335-0.624,2.646-0.702,4.013
	C4.371,17.029,4.196,17.666,3.282,17.758z"/>
<path class="st6" d="M28.751,59.749c0.439-0.182,0.95-0.392,0.857-0.93c-0.109-0.631-0.654-0.171-0.986-0.259
	c-0.441-0.117-0.842-0.376-1.261-0.573c-0.094-0.807,0.495-1.053,1.096-1.003c2.065,0.172,4.116-0.264,6.176-0.074
	c0.599,0.055,1.177,0.154,1.538,0.7c0.494,1.025,1.063,1.698,2.057,0.416c1.086-1.083,3.448-1.178,4.862-0.2
	c0.26,0.603,0.692,1.188,0.227,1.875c-1.298,0.431-2.656,0.297-3.951,0.173C35.825,59.534,32.287,59.862,28.751,59.749z"/>
<path class="st7" d="M59.673,47.409c-0.077,1.46-0.137,2.92-0.237,4.379c-0.112,1.622-0.532,3.096-2.22,3.874
	c-1.099,0.417-1.639-0.173-2.017-1.053c0.255-2.705,1.303-5.216,2.055-7.799c0.058-0.2,0.366-0.268,0.595-0.335
	C58.826,46.106,59.619,46.079,59.673,47.409z"/>
<path class="st8" d="M59.673,47.409c-0.437-0.798-1.115-0.576-1.783-0.397c-0.758-0.156-1.165-0.713-1.052-1.357
	c0.449-2.545-0.152-5.241,1.151-7.662c0.764-0.645,1.593-1.045,2.628-0.618C60.862,40.769,59.918,44.058,59.673,47.409z"/>
<path class="st9" d="M60.955,22.599c-0.447-0.057-0.713-0.165-0.697-0.743c0.027-1.034-0.536-0.749-1.074-0.339
	c-0.561-0.257-0.882-0.64-1.058-1.265c-0.829-2.938-0.667-6.039-1.614-8.956c-0.15-0.461,0.115-0.895,0.623-1.105
	c0.318,0.249,0.643,0.475,1.089,0.351c0.901-0.316,1.044,0.349,1.279,0.918c0.384,0.926,0.375,1.958,0.837,2.862
	c0.159,0.709,0.68,1.408,0.06,2.137c-1.215,0.499-0.171,1.29-0.265,1.934c0.036,0.746,0.248,1.443,0.612,2.1
	C61.173,21.161,61.109,21.876,60.955,22.599z"/>
<path class="st10" d="M8.901,57.721c-3.18-0.858-5.966-2.18-6.966-5.597c0.468-0.435,0.609-0.831,0.227-1.474
	c-0.739-1.246-0.572-1.45,1.041-1.68c1.231,0.521,1.486,1.717,1.851,2.748c0.656,1.853,1.845,3.108,3.733,3.75
	c0.651,0.221,1.148,0.552,1.185,1.294C9.911,57.39,9.395,57.544,8.901,57.721z"/>
<path class="st5" d="M43.317,59.699c-0.759-0.364-0.857-0.986-0.706-1.705c0.176-0.785,0.768-1.05,1.505-1.173
	c1.603-0.267,3.209-0.412,4.834-0.242c1.004,0.398,1.938,0.835,1.193,2.149C47.952,59.614,45.586,59.337,43.317,59.699z"/>
<path class="st11" d="M2.917,49.386c-0.456,0.086-0.888,0.262-0.386,0.73c0.403,0.376,0.692,0.767,0.712,1.291
	c0.04,1.019-0.406,1.281-1.308,0.716c-0.721-2.251-1.78-4.419-1.796-6.845c0.11,0.001,0.219,0,0.328-0.004
	c0.563-0.29,1.049-0.768,1.766-0.683c0.099,0.001,0.198,0.003,0.298,0.004C3.66,45.719,3.867,48.294,2.917,49.386z"/>
<path class="st9" d="M16.759,0.935c-0.393,0.372-0.955,0.66-0.709,1.349c-0.172,0.432-0.48,0.64-0.965,0.558
	c-0.878-0.507-1.437,0.125-2.052,0.556c-1.24,0.299-2.353,0.893-3.504,1.4C8.96,5.048,8.414,5.412,7.732,5.207
	c-0.647-0.158-1.067-0.474-0.89-1.205C9.698,1.607,13.003,0.585,16.759,0.935z"/>
<path class="st12" d="M50.143,58.729c-0.19-0.618-0.505-1.134-1.178-1.357c1.12-1.636,2.947-1.964,4.698-2.424
	c0.265-0.058,0.492-0.184,0.66-0.415c0.38-0.394,0.808-0.611,1.361-0.353c0.202,0.795,0.708,1.293,1.532,1.481
	c-1.122,1.383-2.453,2.453-4.319,2.722c-0.212-0.107-0.304-0.328-0.473-0.476c-0.18,0.29,0.085,0.522,0.109,0.785
	C51.745,59.29,50.947,59.189,50.143,58.729z"/>
<path class="st13" d="M8.901,57.721c-0.414-0.932,0.185-0.897,0.828-0.818c1.549-1.085,3.262-0.904,4.545,0.48
	c0.12,0.436,0.239,0.872,0.359,1.308C12.603,59.037,10.809,58.06,8.901,57.721z"/>
<path class="st8" d="M59.112,34.67c0.63-0.708,0.461-2.082,1.883-2.128c-0.198,1.5,0.34,3.042-0.28,4.517
	c-0.574,0.08-1.17,0.078-1.619,0.539c-0.379,0.388-0.73,0.232-1.051-0.109C57.796,36.332,57.177,35.043,59.112,34.67z"/>
<path class="st14" d="M60.339,14.322c-0.696-0.413-0.625-1.146-0.765-1.779c-0.188-0.846-0.46-1.614-1.351-2.002
	c0.003-0.928,0.006-1.856,0.008-2.784c0.714,0.21,1.001,0.783,1.129,1.403C59.716,10.875,60.016,12.601,60.339,14.322z"/>
<path class="st15" d="M6.842,4.002c0.236,0.38,0.599,0.575,1.032,0.666c0.13,1.466-0.45,2.135-2.123,2.45
	C5.178,6.735,4.556,7.41,3.982,7.041C4.593,5.724,5.72,4.865,6.842,4.002z"/>
<path class="st1" d="M48.628,1.272c-1.002,0.216-2.217-0.108-2.847,1.055C45.235,2.993,44.603,3,43.911,2.563
	c-0.511-0.606-0.566-1.268-0.236-1.974C45.386,0.408,47.018,0.764,48.628,1.272z"/>
<path class="st7" d="M59.635,18.416c-0.473-0.379-0.765-0.823-0.62-1.459c0.094-0.411-0.224-0.989,0.341-1.196
	c0.574-0.209,0.722,0.417,1.042,0.697c0.533,0.713,0.183,1.566,0.391,2.331C60.224,19.192,59.888,18.926,59.635,18.416z"/>
<path class="st16" d="M52.532,58.692c-0.546-0.154-1.369-0.109-1.486-0.689c-0.143-0.713,0.83-0.779,1.253-1.191
	c0.654-0.637,1.092,0.177,1.881,0.615c-0.874,0.023-1.255,0.338-1.283,0.956C52.775,58.486,52.654,58.589,52.532,58.692z"/>
<path class="st17" d="M58.589,37.727c0.522-0.575-0.032-1.692,0.668-1.941c0.87-0.309,0.594,1.216,1.457,1.274
	c-0.01,0.112-0.043,0.217-0.097,0.315c-0.677,0.237-1.216,0.873-2.046,0.665c-0.072-0.074-0.094-0.145-0.064-0.213
	C58.536,37.76,58.563,37.727,58.589,37.727z"/>
<path class="st1" d="M41.877,0.732c0.321-0.301,0.688-0.344,1.091-0.181c0.3,0.669,1.219,1.172,0.591,2.092
	c-2.044,0.799-3.351,0.614-4.232-0.596c0.044-0.052,0.088-0.104,0.132-0.155C39.953,0.892,41.418,1.801,41.877,0.732z"/>
<path class="st5" d="M0.561,20.516c0.91-0.221,1.643,0.173,1.66,0.992c0.016,0.773-1.038,0.348-1.497,0.707
	C0.669,21.648,0.615,21.082,0.561,20.516z"/>
<path class="st18" d="M1.557,14.647c0.886,0.197,1.857,0.382,0.424,1.284c-0.711,0.448-0.637,1.272-1.029,1.868
	C0.759,16.676,1.329,15.692,1.557,14.647z"/>
<path class="st4" d="M59.635,18.416c0.385,0.125,0.769,0.249,1.154,0.374c0.486,0.58,0.13,1.139-0.044,1.703
	C59.261,20.363,59.79,19.217,59.635,18.416z"/>
<path class="st2" d="M41.877,0.732c-0.381,1.222-1.455,1.082-2.418,1.16c0.141-1.132,1.096-0.904,1.835-1.037
	C41.489,0.814,41.683,0.773,41.877,0.732z"/>
<path class="st2" d="M43.802,2.012c-0.617-0.304-1.871-0.266-0.833-1.46c0.235,0.013,0.471,0.025,0.706,0.038
	c0.724,0.334,0.592,0.86,0.337,1.414C43.942,2.006,43.872,2.009,43.802,2.012z"/>
<path class="st19" d="M2.525,38.394c-0.037,0.583,0.161,1.204-0.294,1.72c-0.403,0.356,0.104,1.054-0.657,1.386
	c-0.499-0.916-1.555-1.658-0.821-2.916C1.221,37.782,1.88,37.984,2.525,38.394z"/>
<path class="st20" d="M2.234,44.591c-0.391,0.711-0.6,1.863-1.766,0.683c0.132-0.918,0.264-1.837,0.454-3.165
	C1.482,43.168,1.858,43.879,2.234,44.591z"/>
<path class="st21" d="M35.815,57.908c0.96-0.014,1.916,0.007,2.827,0.36c0.204,0.31,0.634,0.64,0.132,0.984
	C37.705,59.985,35.951,59.171,35.815,57.908z"/>
<path class="st1" d="M15.348,2.244c-0.756,0.605-1.646,0.52-2.53,0.466C13.47,1.573,14.336,1.537,15.348,2.244z"/>
<path class="st22" d="M49.329,44.63c-0.037,0.058-0.074,0.116-0.111,0.174c-1.1,0.85-1.481,0.755-2.06-0.513
	c0.057-1.065-0.657-1.829-1.202-2.571c-0.635-0.864-1.37-1.745-2.481-2.113c-0.229-0.076-0.406-0.233-0.556-0.415
	c-0.974-1.187-2.41-1.765-3.57-2.708c-0.403-0.327-0.916-0.045-1.367-0.155c-0.631-0.385-0.864-0.858-0.331-1.5
	c0.033-0.005,0.068-0.004,0.099-0.014c2.045-0.671,3.349,0.794,4.8,1.726c1.649,1.06,3.257,2.196,4.795,3.41
	c0.537,0.424,0.807,1.183,1.212,1.781c0.294,0.435,0.609,0.856,0.915,1.283C49.822,43.588,49.05,44.063,49.329,44.63z"/>
<path class="st23" d="M27.584,42.768c-0.829-0.236-1.541-0.762-1.978-1.414c-0.938-1.4-2.284-2.361-3.413-3.549
	c-0.598-0.629-1.322-1.166-1.695-1.992c0.081-0.576,0.493-0.785,0.993-0.894c0.798,0.027,1.025,0.764,1.472,1.214
	c1.414,1.423,2.98,2.697,4.212,4.298c0.318,0.413,0.812,0.701,0.883,1.284C27.854,42.043,27.985,42.526,27.584,42.768z"/>
<path class="st24" d="M30.217,36.377c0.824,0.381,1.371,1.128,2.212,1.536c1.499,0.726,1.518,0.796,2.277-0.621
	c0.092-0.173,0.215-0.329,0.324-0.493c0.555-0.228,0.809-1.281,1.417-0.931c0.513,0.296,0.254,1.195,0.235,1.839
	c-0.078,0.223-0.22,0.411-0.347,0.606c-0.301,0.461-0.178,1.21-0.823,1.414c-0.841,0.266-1.789,0.329-2.559-0.009
	c-1.09-0.478-2.275-0.745-3.278-1.457c-0.545-0.387-0.801-0.764-0.617-1.406C29.365,35.969,29.462,35.929,30.217,36.377z"/>
<path class="st3" d="M18.135,32.173c-0.097-0.02-0.248-0.007-0.283-0.065c-1.084-1.781-2.665-3.22-3.541-5.143
	c0.042-0.36-0.232-0.848,0.21-1.047c0.596-0.268,1.122,0.051,1.591,0.429c0.408,1.143,1.154,2.068,1.931,2.973
	c0.309,0.36,0.52,0.764,0.626,1.226c-0.016,0.29,0.062,0.567,0.101,0.85C18.83,31.827,18.777,32.268,18.135,32.173z"/>
<path class="st25" d="M38.439,49.051c-0.472,0.195-0.852-0.122-1.254-0.251c-1.62-0.523-2.956-1.623-4.525-2.259
	c-0.578-0.234-0.969-0.728-1.429-1.125c0.121-0.268-0.005-0.633,0.32-0.822c0.582-0.303,1.019,0.083,1.465,0.337
	c1.422,0.811,2.859,1.588,4.349,2.269c0.469,0.214,1.039,0.293,1.291,0.845C38.818,48.432,38.513,48.716,38.439,49.051z"/>
<path class="st26" d="M38.439,49.051c-0.211-0.291-0.502-0.584,0.031-0.848c0.143-0.57,0.665-0.611,1.041-0.537
	c1.626,0.324,3.156-0.006,4.676-0.528c0.513,0.054,0.958,0.264,0.927,0.835c-0.041,0.752-0.571,1.127-1.267,1.29
	C42.033,49.457,40.227,49.487,38.439,49.051z"/>
<path class="st4" d="M15.096,14.081c1.219-0.661,2.34-1.487,3.608-2.074c0.372-0.172,0.588-0.211,0.866,0.013
	c0.863,0.697,1.729,1.391,2.426,2.267c-0.097,0.478-0.487,0.502-0.857,0.555c-0.469,0.161-0.804-0.036-1.141-0.361
	c-0.925-0.893-0.924-0.86-2.111-0.253c-0.429,0.22-0.81,0.587-1.344,0.572C16.048,14.59,15.147,15.188,15.096,14.081z"/>
<path class="st2" d="M23.986,16.495c0.514,0.919,1.498,1.505,1.821,2.56c0.07,0.624,0.307,1.205,0.494,1.796
	c0.1,0.313,0.183,0.584-0.114,0.797c-0.281,0.201-0.602,0.17-0.795-0.108c-0.235-0.34-0.618-0.361-0.927-0.539
	c-0.186-0.122-0.287-0.302-0.353-0.508c-0.056-0.228-0.033-0.45,0.084-0.653c0.334-0.579-0.041-0.736-0.499-0.846
	c-0.523-0.446-0.964-0.947-1.094-1.654c0.022-0.2,0.106-0.383,0.155-0.576c0.085-0.326-0.103-0.821,0.407-0.901
	C23.595,15.795,23.729,16.258,23.986,16.495z"/>
<path class="st27" d="M26.776,23.937c-0.473,0.93-0.946,1.859-1.42,2.789c-0.828-0.316-0.829,0.354-0.991,0.831
	c-0.071,0.267-0.143,0.535-0.214,0.802c-0.799,0.271-1.052-0.61-1.644-0.779c-0.126-0.209-0.212-0.477-0.074-0.655
	c0.569-0.737,0.887-1.685,1.773-2.164c0.167-0.076,0.407,0.119,0.514-0.081c0.107-0.2-0.155-0.313-0.219-0.482
	c-0.076-0.666,0.092-1.263,0.503-1.794c0.673-0.292,1.07,0.005,1.261,0.637C26.371,23.387,26.428,23.739,26.776,23.937z"/>
<path class="st28" d="M15.734,26.746c-0.58-0.617-1.086-0.746-1.423,0.219c-0.445-1.225-0.901-2.446-1.33-3.677
	c-0.129-0.37-0.274-0.761-0.062-1.159c0.737-0.089,1.247,0.363,1.787,0.747c0.608,0.879,0.792,1.933,1.183,2.901
	C16.026,26.117,16.138,26.48,15.734,26.746z"/>
<path class="st29" d="M22.711,27.512c0.806-0.272,1.15,0.244,1.441,0.847c0.083,0.529,0.435,0.875,0.816,1.201
	c0.095,0.306,0.018,0.701,0.309,0.904c0.422,0.294,0.733,0.567,0.345,1.099c-0.404,0.554-0.867,0.476-1.365,0.155
	c-0.093-0.034-0.173-0.087-0.247-0.151c-0.448-0.562-0.69-1.288-1.351-1.685c-0.337-0.401-0.367-0.919-0.474-1.392
	C22.094,28.085,22.087,27.594,22.711,27.512z"/>
<path class="st2" d="M26.369,31.972c0.417,1.141,1.669,1.583,2.198,2.63c0.034,0.486-0.26,0.629-0.668,0.59
	c-0.262-0.025-0.515-0.015-0.77,0.035c-1.178-0.194-2.15-1.371-2.288-2.761C25.424,31.45,25.748,31.346,26.369,31.972z"/>
<path class="st30" d="M31.585,44.878c-0.019,0.244-0.098,0.449-0.353,0.539c-0.711-0.16-1.099-0.812-1.739-1.125
	c-0.714-0.349-1.279-1.003-1.908-1.524c-0.107-0.366-0.212-0.732,0.228-0.97c0.635-0.333,1.045,0.246,1.544,0.414
	c0.943,0.316,1.515,1.132,2.163,1.831C31.756,44.298,31.686,44.589,31.585,44.878z"/>
<path class="st31" d="M26.776,23.937c-0.75,0.135-1.03-0.44-1.122-0.947c-0.073-0.401-0.357-0.291-0.507-0.45
	c-0.756-0.388-0.897-0.932-0.458-1.772c0.577-0.098,0.923,0.859,1.419,0.434c0.17-0.145-0.245-0.943-0.347-1.451
	c-0.044-0.22,0.026-0.462,0.045-0.695C26.572,20.595,26.908,22.219,26.776,23.937z"/>
<path class="st17" d="M21.61,35.169c-0.371,0.214-0.741,0.429-1.112,0.643c-0.89-0.774-1.171-1.982-2.002-2.798
	c0.025-0.088,0.072-0.162,0.141-0.223c0.284-0.114,0.535-0.295,0.82-0.414C20.534,32.637,21.804,34.287,21.61,35.169z"/>
<path class="st32" d="M23.986,16.495c-0.264-0.107-0.431-0.409-0.804-0.408c-0.142,0.41,0.029,0.869-0.228,1.232
	c-1.155-0.209-2.319-1.81-2.038-2.804c0.361-0.076,0.721-0.152,1.082-0.228C22.793,14.903,23.635,15.478,23.986,16.495z"/>
<path class="st33" d="M15.096,14.081c0.274,0.196,0.53,0.582,0.885,0.116c0.574-0.754,0.483-0.084,0.549,0.253
	c0.135,1.176-0.725,1.724-1.476,2.342c-0.146,0.082-0.305,0.108-0.471,0.115c-0.876,0.032-1.014-0.165-0.734-1.023
	c0.071-0.218,0.119-0.442,0.239-0.641C14.424,14.856,14.76,14.469,15.096,14.081z"/>
<path class="st34" d="M27.135,34.809c0.478-0.061,1.005,0.209,1.432-0.207c0.694,0.458,1.005,1.272,1.65,1.775
	c-0.623-0.231-0.722,0.227-0.85,0.647c-0.493,0.319-0.924,0.31-1.241-0.246c-0.169-0.296-0.48-0.444-0.695-0.683
	C27.107,35.737,26.734,35.35,27.135,34.809z"/>
<path class="st35" d="M36.213,37.591c-0.19-0.518,0.116-1.028,0.101-1.641c-0.528,0.27-0.675,0.93-1.284,0.849
	c0.517-1.13,1.531-1.6,2.62-1.97c0.358,0.311-0.035,0.864,0.372,1.159C37.902,36.664,36.989,37.474,36.213,37.591z"/>
<path class="st36" d="M43.846,49.263c0.466-0.24,0.774-0.588,0.843-1.133c0.051-0.405-0.118-0.556-0.499-0.532
	c-0.334-0.939,0.363-1.087,0.989-1.29c0.344,0.088,0.693,0.187,0.983,0.388c0.344,0.238,0.607,0.538,0.113,0.904
	C45.661,48.441,45.005,49.22,43.846,49.263z"/>
<path class="st20" d="M46.274,47.6c0.01-0.71-0.738-0.604-1.046-0.972c-0.247-0.729,0.311-1.003,0.757-1.342
	c0.852,0.076,1.827-0.416,2.486,0.542c-0.044,0.227-0.19,0.365-0.393,0.454c-0.614,0.016-0.786,0.515-1.027,0.939
	C46.865,47.498,46.653,47.721,46.274,47.6z"/>
<path class="st7" d="M12.741,19.117c-0.047-0.346-0.41-0.659-0.106-1.04c0.342-0.338,0.071-1.164,0.81-1.147
	c0.657,0.016,0.818,0.68,1.142,1.117c0.027,0.579-0.141,1.098-0.48,1.565c-0.189,0.168-0.407,0.237-0.658,0.185
	C13.065,19.725,12.926,19.397,12.741,19.117z"/>
<path class="st1" d="M12.741,19.117c0.27,0.023,0.477,0.135,0.578,0.402c0.358,0.656,0.715,1.312,0.875,2.053
	c0.015,0.098,0.013,0.195-0.009,0.292c-0.6,1.139-0.978,0.082-1.441-0.145C12.709,20.85,12.311,19.984,12.741,19.117z"/>
<path class="st37" d="M14.132,18.125c-0.688-1.228-0.725-1.229-1.496-0.049c0.136-1.123,0.735-2.008,1.452-2.833
	c0.073,0.417,0.149,0.833-0.127,1.179c0.357,0.307,0.502-0.213,0.773-0.079C15.066,17.221,14.873,17.793,14.132,18.125z"/>
<path class="st38" d="M26.369,31.972c-0.643-0.504-0.783,0.405-1.235,0.439c-0.928,0.02-1.066-0.175-0.75-1.056
	c0.352,0.049,0.71,0.47,1.05-0.061c0.329-0.514-0.356-0.485-0.37-0.739c-0.017-0.334-0.679-0.617-0.095-0.994
	C25.543,30.301,26.184,31.005,26.369,31.972z"/>
<path class="st39" d="M48.472,45.829c-0.799-0.408-1.595-0.106-2.391,0.013c-0.031-0.815,0.667-1.544,1.57-1.639
	c0.156,1.156,0.921,0.725,1.568,0.601C48.969,45.146,48.72,45.487,48.472,45.829z"/>
<path class="st40" d="M24.366,27.558c-0.331-0.426-0.536-0.936-0.065-1.313c0.525-0.421,0.905-0.126,1.056,0.482
	C25.027,27.003,24.697,27.28,24.366,27.558z"/>
<path class="st17" d="M18.135,32.173c0.706-0.538-0.231-1.088,0.013-1.629c0.908-0.002,1.207,0.351,1.301,1.534
	c-0.199,0.386-0.619,0.55-0.882,0.874l-0.071,0.063C18.214,32.804,18.109,32.517,18.135,32.173z"/>
<path class="st41" d="M49.329,44.63c-0.368-0.111-0.735-0.221-1.172-0.353c0.39-0.556,1.516-0.246,1.314-1.263
	C49.842,43.59,49.572,44.109,49.329,44.63z"/>
<path class="st39" d="M47.051,47.222c-0.1-0.475-0.058-0.905,0.395-1.194c0.323-0.206,0.481,0.021,0.632,0.254
	C47.851,46.722,47.467,46.99,47.051,47.222z"/>
<path class="st37" d="M12.745,21.717c0.402-0.031,0.785,0.648,1.203,0.032c0.653,0.321,1.003,0.722,0.368,1.385
	c-0.466-0.335-0.932-0.67-1.398-1.006C12.86,21.992,12.803,21.855,12.745,21.717z"/>
<path class="st31" d="M24.527,20.391c-0.193-0.562-0.564-1.061-0.597-1.681C25.04,18.947,24.632,19.723,24.527,20.391z"/>
<path class="st42" d="M24.356,24.927c0.149-0.256,0.297-0.512,0.446-0.768c0.182,0.282,0.825,0.239,0.677,0.67
	c-0.164,0.476-0.608,0.802-1.2,0.908C24.308,25.434,24.332,25.181,24.356,24.927z"/>
<path class="st43" d="M24.377,31.355c-0.652-0.453-0.894-1.235-1.428-1.784c0.236-0.022,0.602-0.241,0.639,0.154
	C23.651,30.387,24.394,30.682,24.377,31.355z"/>
<path class="st3" d="M19.154,32.17c0.063,0.13,0.126,0.259,0.189,0.389c0.074,0.213,0.29,0.508,0.107,0.635
	c-0.311,0.216-0.566-0.217-0.884-0.242C18.553,32.534,18.741,32.267,19.154,32.17z"/>
<path class="st37" d="M13.916,19.519c0.03,0.742,0.228,1.481,0.042,2.226c-0.321-0.711-0.926-1.341-0.639-2.227
	C13.518,19.518,13.717,19.519,13.916,19.519z"/>
<path class="st44" d="M37.661,24.913c0.068-0.67-0.554-0.892-0.856-1.321c-0.638-0.655-1.391-1.101-2.286-1.318
	c-0.194-0.047-0.529-0.043-0.502-0.364c0.03-0.361,0.349-0.366,0.612-0.335c1.623,0.193,2.983,0.89,4.043,2.148
	c0.136,0.526,0.234,1.067,0.419,1.575c0.218,0.598,0.275,1.187,0.126,1.8c-0.983-0.053-1.042-0.931-1.37-1.558
	C37.749,25.353,37.87,25.081,37.661,24.913z"/>
<path class="st45" d="M37.62,12.495c0.102,0.275,0.346,0.345,0.593,0.41c0.792,0.495,1.528,1.073,2.385,1.473
	c1.36,0.635,2.731,1.277,3.452,2.729c0.639,1.258,1.494,2.366,2.389,3.446c0.419,0.922,0.834,1.846,1.258,2.765
	c0.598,1.296,0.334,2.698,0.51,4.046c0.017,0.129,0.047,0.257,0.071,0.385c0.059,0.898-0.154,1.749-0.438,2.59
	c-0.156,0.46-0.384,0.6-0.773,0.225c-0.081-0.458-0.323-0.91-0.051-1.381c0.129-1.578-0.04-3.124-0.51-4.636
	c-0.064-0.744-0.557-1.325-0.77-2.012c0.323-0.814-0.605-1.154-0.687-1.814c-0.196-0.236-0.587-0.375-0.397-0.802
	c-0.231-0.24-0.115-0.751-0.612-0.784c-0.812-0.93-1.797-1.634-2.87-2.231c-0.969-0.539-1.975-1.031-2.874-1.671
	c-1.22-0.87-2.701-0.992-4.009-1.589c-1.071-0.144-2.142-0.286-3.212-0.435c-0.308-0.043-0.693,0.12-0.867-0.306
	c0.063-0.203,0.126-0.406,0.19-0.609c1.036-0.734,2.214-0.868,3.358-0.489c0.679,0.225,1.394,0.35,2.049,0.649
	c0.543-0.131,1.083-0.135,1.617,0.045C37.487,12.505,37.553,12.503,37.62,12.495z"/>
<path class="st46" d="M32.952,16.569c0.569,0.261,1.145,0.485,1.791,0.374c0.642,0.472,1.423,0.629,2.148,0.888
	c1.694,0.606,3.127,1.616,4.526,2.699c1.167,1.333,1.453,3.09,2.221,4.615c-0.404,0.769-0.073,1.602-0.211,2.394
	c-0.349,0.062-0.087,0.711-0.596,0.62c-0.123-0.28-0.245-0.559-0.368-0.839c-0.318,0.014-0.517-0.157-0.539-0.452
	c-0.13-1.746-0.839-3.296-1.598-4.833c-0.114-0.232-0.171-0.481-0.055-0.736c-0.372-0.562-0.871-0.995-1.413-1.383
	c-0.24-0.512-0.769-0.705-1.209-0.723c-1.572-0.064-3.051-0.823-4.657-0.581c-0.183,0.028-0.385-0.068-0.578-0.107
	c-0.158-0.503-0.084-1.009-0.044-1.52C32.401,16.582,32.616,16.51,32.952,16.569z"/>
</svg>
