<?xml version="1.0" encoding="utf-8"?>
<!-- Generator: Adobe Illustrator 22.1.0, SVG Export Plug-In . SVG Version: 6.00 Build 0)  -->
<svg version="1.1" id="OBJECTS" xmlns="http://www.w3.org/2000/svg" xmlns:xlink="http://www.w3.org/1999/xlink" x="0px" y="0px"
	 viewBox="0 0 36.88 35.449" style="enable-background:new 0 0 36.88 35.449;" xml:space="preserve">
<style type="text/css">
	.st0{fill:#1A1A1A;}
	.st1{fill:#070707;}
	.st2{fill:#151515;}
	.st3{fill:#212121;}
	.st4{fill:#2D2D2D;}
	.st5{fill:#2F2F2F;}
	.st6{fill:#0A0A0A;}
	.st7{fill:#272727;}
	.st8{fill:#404040;}
	.st9{fill:#080808;}
	.st10{fill:#1E1E1E;}
	.st11{fill:#3C3C3C;}
	.st12{fill:#0C0C0C;}
	.st13{fill:#393939;}
	.st14{fill:#1C1C1C;}
	.st15{fill:#5A5A5A;}
	.st16{fill:#171717;}
	.st17{fill:#464646;}
	.st18{fill:#4D4D4D;}
	.st19{fill:#777777;}
	.st20{fill:#1B1B1B;}
	.st21{fill:#787878;}
	.st22{fill:#696969;}
	.st23{fill:#E1E1E1;}
	.st24{fill:#0E0E0E;}
	.st25{fill:#0F0F0F;}
	.st26{fill:#0B0B0B;}
	.st27{fill:#575757;}
	.st28{fill:#161616;}
	.st29{fill:#323232;}
	.st30{fill:#0D0D0D;}
	.st31{fill:#3A3A3A;}
	.st32{fill:#494949;}
	.st33{fill:#7D7D7D;}
</style>
<path class="st0" d="M16.143,0.338c1.415-0.583,2.877-0.26,4.3-0.135c3.022,0.267,5.69,1.585,8.251,3.114
	c0.586,0.35,1.061,0.887,1.587,1.337c0.014,0.536,0.916,0.927,0.256,1.574c-0.374,0.208-0.653,0.01-0.902-0.236
	c-1.376-1.36-3.157-2.104-4.743-3.147c-0.524-0.344-1.123-0.294-1.678-0.46c-2.231-0.668-4.514-0.832-6.826-0.72
	c-0.343,0.017-0.603-0.09-0.739-0.425C15.574,0.809,15.992,0.646,16.143,0.338z"/>
<path class="st1" d="M12.559,33.658c-0.641-0.294-1.421-0.233-1.969-0.768c-0.855-0.394-1.64-0.254-2.22,0.395
	c-1.936,0.852-4.007,1.247-6.026,1.82c-0.618,0.176-1.139,0.542-1.79,0.207c-0.044-0.421-0.09-0.833,0.164-1.224
	c0.266-0.411,0.554-0.541,0.952-0.183c0.727,0.4,0.599-0.41,0.887-0.631c1.212-0.557,2.52-0.84,3.774-1.279
	c0.415-0.145,0.861-0.239,1.266-0.443c1.631-0.286,3.194,0.017,4.734,0.54c0.301,0.334,0.892,0.386,0.941,0.965
	C13.361,33.645,13.139,33.864,12.559,33.658z"/>
<path class="st2" d="M30.47,6.132c0.143-0.519-0.895-0.887-0.189-1.478c1.485,0.852,2.418,2.224,3.372,3.578
	c0.884,1.254,1.466,2.659,2.104,4.041c0.175,0.379-0.007,0.804,0.279,1.125c-0.046,0.811-0.058,0.818-1.017,0.661
	c-0.504-0.012-0.765-0.278-0.882-0.765c-0.573-2.376-1.854-4.367-3.406-6.209C30.504,6.816,30.167,6.556,30.47,6.132z"/>
<path class="st3" d="M34.933,13.758c0.371-0.112,0.925,0.339,1.104-0.36c0.38,1.156,0.653,2.318,0.724,3.555
	c0.087,1.506,0.306,3.029-0.221,4.456c-0.253,0.684-0.158,1.472-0.654,2.065c-0.043-0.001-0.085-0.003-0.128-0.004
	c-0.547-0.105-0.716-0.718-1.21-0.896c-0.124-0.193-0.145-0.399-0.071-0.615c0.73-2.108,0.713-4.246,0.347-6.421
	C34.727,14.968,34.234,14.305,34.933,13.758z"/>
<path class="st4" d="M2.598,27.508c0.19-0.644,0.371-1.291,0.574-1.93c0.085-0.266,0.029-0.478-0.13-0.688
	c-1.085-1.426-1.593-3.081-1.906-4.813c0.336-0.578,0.758-0.554,1.203-0.149c0.205,0.187,0.465,0.297,0.655,0.5
	c0.279,0.42,0.264,0.932,0.435,1.386c0.007,0.06,0.017,0.124,0,0.18c-0.412,1.334-0.413,1.333,0.696,1.964
	c0.295,0.539,0.406,1.163,0.775,1.67c0.11,0.151,0.15,0.345,0.129,0.53c-0.118,1.02-0.512,1.924-1.169,2.713
	C2.28,29.065,2.28,29.065,2.598,27.508z"/>
<path class="st5" d="M6.088,4.629C6.159,4.404,6.299,4.357,6.5,4.47c0.559-0.092,1.192-0.514,1.535,0.347
	c0.193,0.465-0.077,0.781-0.378,1.054C6.353,7.049,5.344,8.445,4.561,10.01c-0.161,0.322-0.358,0.58-0.751,0.607
	c-0.525-0.174-1.106-0.202-1.563-0.569c0.074-0.407,0.329-0.69,0.64-0.936C3.023,8.95,3.357,8.885,3.155,8.559
	C3.44,7.407,4.392,6.693,4.998,5.751C5.68,5.687,5.966,5.237,6.088,4.629z"/>
<path class="st6" d="M16.143,0.338c0.194,0.434,0.055,0.704-0.402,0.817c-0.102,0.302-0.252,0.595-0.582,0.659
	c-0.968,0.188-1.77,0.839-2.771,0.94c-0.779,0.079-1.284,0.843-2.087,0.906c-0.288-0.004-0.473-0.247-0.737-0.314
	c-0.602-0.152-0.596-0.495-0.28-0.928C11.392,1.135,13.643,0.326,16.143,0.338z"/>
<path class="st7" d="M2.603,20.626c-0.512-0.12-0.779-0.895-1.466-0.549c-0.204-1.479-0.505-2.954-0.213-4.457
	c0.815-0.592,1.261-0.036,1.7,0.546c0.245,1.243,0.175,2.513,0.312,3.766C2.969,20.24,2.882,20.474,2.603,20.626z"/>
<path class="st8" d="M35.885,23.475c-0.249,1.827-1.157,3.339-2.271,4.752c-0.349-0.355-0.915,0.114-1.244-0.325
	c-0.19-0.308-0.074-0.578,0.091-0.854c0.677-1.13,1.215-2.322,1.548-3.601c0.056-0.215,0.188-0.381,0.373-0.505
	c0.618-0.317,0.891,0.53,1.447,0.429C35.852,23.404,35.871,23.438,35.885,23.475z"/>
<path class="st9" d="M12.559,33.658c0.35-0.014,0.526-0.17,0.436-0.54c0.231-0.365,0.555-0.278,0.897-0.208
	c1.883,0.389,3.726,0.973,5.655,1.136c0.726,0.528,0.336,0.82-0.228,1.074C16.945,35.188,14.706,34.636,12.559,33.658z"/>
<path class="st10" d="M2.818,33.619c-0.296,0.531-0.637,0.958-1.328,0.576c-0.079-0.683-0.632-0.188-0.914-0.368
	c0.205-1.325,0.583-2.592,1.261-3.758c0.172-0.066,0.343-0.135,0.516-0.002c0.146,0.433,0.552,0.7,0.719,1.122
	C2.92,31.99,2.523,32.768,2.818,33.619z"/>
<path class="st11" d="M31.586,30.485c-0.87,0.955-1.967,1.625-2.995,2.38c-0.431-0.166-0.895-0.272-1.206-0.66
	c-0.081-0.265-0.02-0.53,0.199-0.659c1.089-0.643,2.005-1.506,2.99-2.281c0.122-0.096,0.292-0.077,0.446-0.036
	C31.524,29.504,31.436,30.048,31.586,30.485z"/>
<path class="st1" d="M31.586,30.485c-0.8-0.055-0.781-0.524-0.555-1.097c-0.003-0.941,0.531-1.504,1.447-1.527
	c0.454-0.11,1.153-0.981,1.137,0.366C33.054,29.084,32.507,29.953,31.586,30.485z"/>
<path class="st12" d="M2.248,16.236c-0.257-0.601-0.951-0.266-1.324-0.617c-0.068-0.776,0.183-1.498,0.374-2.23
	c0.389-0.372,0.712-0.905,1.391-0.568C2.954,13,3.157,13.226,3.141,13.568c-0.036,0.766-0.181,1.516-0.361,2.258
	C2.717,16.086,2.535,16.242,2.248,16.236z"/>
<path class="st13" d="M19.318,35.121c0.128-0.239,0.552-0.402,0.198-0.766c0.427-0.657,1.239-0.323,1.778-0.693
	c0.797-0.02,1.61-0.308,2.384,0.126c0.32,0.187,0.337,0.499,0.336,0.818C22.501,35.247,20.889,34.999,19.318,35.121z"/>
<path class="st12" d="M2.248,10.048c0.176-0.054,0.379-0.07,0.525-0.169c0.76-0.52,0.954-0.133,0.965,0.577
	c0.52,0.635-0.109,1.05-0.296,1.551c-0.914,0.511-1.218,0.459-1.749-0.298C1.877,11.155,2.062,10.602,2.248,10.048z"/>
<path class="st14" d="M7.763,4.835C7.484,4.222,6.791,5.042,6.5,4.47c0.412-0.538,0.849-1.046,1.515-1.284
	c0.372-0.063,0.779-0.643,1.096-0.108c0.268,0.452,0.07,0.952-0.423,1.266c-0.18,0.115-0.325,0.282-0.499,0.41
	C8.058,4.84,7.913,4.852,7.763,4.835z"/>
<path class="st9" d="M24.015,34.607c-0.395-0.05-0.562-0.263-0.472-0.66c-0.053-0.087-0.072-0.182-0.057-0.284
	c0.034-0.096,0.092-0.175,0.175-0.235c0.639-0.246,1.259-0.708,1.966-0.171c0.288,0.2,0.438,0.436,0.195,0.77
	C25.261,34.35,24.688,34.634,24.015,34.607z"/>
<path class="st9" d="M25.822,34.027c-0.137-0.224-0.274-0.448-0.411-0.672c-0.091-0.393,0.057-0.638,0.45-0.745
	c0.467-0.128,0.886-0.377,1.335-0.552c0.092-0.008,0.178,0.012,0.256,0.062c0.611-0.106,0.953,0.201,1.139,0.745
	c-0.034,0.036-0.075,0.06-0.123,0.073c-0.758,0.15-1.472,0.404-2.083,0.896C26.23,33.995,26.06,34.11,25.822,34.027z"/>
<path class="st15" d="M1.692,11.709c0.483,0.253,0.967,0.352,1.45,0.001c0.495,0.751,0.346,1.109-0.547,1.311
	c-0.467,0-0.811,0.435-1.298,0.368C1.165,12.767,1.629,12.285,1.692,11.709z"/>
<path class="st16" d="M0.576,33.827c0.081-0.041,0.158-0.094,0.243-0.122c0.239-0.077,0.443-0.443,0.712-0.198
	c0.196,0.178-0.036,0.453-0.042,0.688c-0.165,0.02-0.307-0.265-0.488-0.036c-0.085,0.108-0.093,0.203-0.008,0.326
	c0.418,0.608,0.415,0.611-0.44,0.828C-0.639,34.799,0.447,34.32,0.576,33.827z"/>
<path class="st5" d="M7.984,4.649c0.159-0.181,0.303-0.378,0.479-0.54c0.252-0.231,0.569-0.497,0.43-0.829
	C8.716,2.857,8.306,3.303,8.014,3.186c0.414-0.272,0.725-0.713,1.27-0.768c-0.046,0.863,0.664,0.609,1.107,0.749
	c0.067,0.112,0.103,0.255,0.011,0.339c-0.535,0.492-1.096,0.954-1.69,1.37C8.432,5.073,8.127,5.043,7.984,4.649z"/>
<path class="st4" d="M2.215,30.115c-0.126-0.016-0.252-0.031-0.378-0.047c0.032-0.187-0.028-0.397,0.135-0.552
	c0.246-0.09,0.319-0.359,0.515-0.499c0.562-0.404,0.988-0.297,1.378,0.339c0.004,0.441-0.109,0.832-0.472,1.117
	C2.889,30.721,2.535,30.474,2.215,30.115z"/>
<path class="st17" d="M8.37,33.286c0.714-1.238,1.417-1.363,2.22-0.395C9.847,33.007,9.065,32.898,8.37,33.286z"/>
<path class="st18" d="M3.542,29.393c-0.118-0.509-0.429-0.521-0.801-0.289c-0.249,0.155-0.435,0.418-0.769,0.413
	c0.27-0.65,0.252-1.391,0.627-2.008c0.006,0.03,0.024,0.064,0.017,0.09c-0.315,1.098,0.332,1.151,1.129,1.041
	C3.951,28.964,4.015,29.251,3.542,29.393z"/>
<path class="st11" d="M26.385,33.834c-0.172-0.814,0.869-0.445,0.969-0.993c0.344,0.35,0.768-0.229,1.114,0.096
	C27.808,33.316,27.104,33.593,26.385,33.834z"/>
<path class="st19" d="M6.088,4.629c0.272,0.989,0.04,1.228-1.09,1.122C5.362,5.377,5.725,5.003,6.088,4.629z"/>
<path class="st20" d="M3.155,8.559c0.723-0.251,0.923,0.079,0.821,0.776C3.593,9.367,3.311,8.834,2.888,9.112
	C2.977,8.928,3.066,8.744,3.155,8.559z"/>
<path class="st21" d="M7.631,31.987c0.965-0.426,2-0.685,3.026-0.709c0.664-0.016,1.17,0.58,1.368,1.29
	c-1.031-0.545-2.064-1.02-3.288-0.634C8.396,32.04,8.001,31.974,7.631,31.987z"/>
<path class="st1" d="M34.654,23.056c0.043-0.186,0.087-0.371,0.13-0.557c0.601-0.011,1.045,0.165,1.045,0.873
	C35.123,24.434,34.991,23.362,34.654,23.056z"/>
<path class="st22" d="M2.995,21.911c0.248,0.746,0.496,1.492,0.744,2.238C2.824,23.804,2.562,23.014,2.995,21.911z"/>
<path class="st18" d="M3.128,30.289c0.039,0.37-0.276,0.608-0.348,0.936c-0.336-0.295-0.573-0.64-0.565-1.11
	C2.606,29.714,2.782,30.449,3.128,30.289z"/>
<path class="st23" d="M21.361,34.189c0.671-0.509,1.442-0.602,2.25-0.536c-0.023,0.098-0.046,0.196-0.069,0.294
	C22.792,33.81,22.08,34.03,21.361,34.189z"/>
<path class="st23" d="M23.594,33.661c1.176-0.642,2.437-1.077,3.698-1.513c-0.176,0.543-0.739,0.475-1.115,0.704
	c-0.261,0.159-0.67,0.091-0.767,0.502C24.741,33.073,24.251,33.866,23.594,33.661z"/>
<path class="st24" d="M20.395,26.281c-0.607,0.027-1.096-0.238-1.62-0.525c-1.168-0.641-2.406-1.142-3.595-1.756
	c-1.979-1.022-3.209-2.621-4.203-4.484c-0.225-0.421-0.532-0.74-0.822-1.09c0.232-0.328,0.184-0.697,0.152-1.063
	c-0.029-0.334-0.119-0.681,0.245-0.909c0.506-0.144,0.776,0.166,0.92,0.559c0.516,1.411,1.449,2.574,2.255,3.808
	c0.579,0.886,1.411,1.563,2.352,2.04c1.43,0.725,2.815,1.545,4.33,2.097c0.259,0.094,0.526,0.201,0.628,0.503
	C21.096,25.949,21.098,26.391,20.395,26.281z"/>
<path class="st25" d="M12.812,9.296c1.869-0.475,2.21-0.285,2.852,1.419c0.365,0.968,0.809,1.907,1.231,2.853
	c0.351,0.785,0.208,1.354-0.566,1.707c-0.431,0.197-0.581,0.529-0.744,0.898c-0.32,0.484-0.74,0.364-1.167,0.192
	c-0.612-0.565-0.221-1.13,0.111-1.569c0.675-0.892,0.589-1.707-0.028-2.547c-0.132-0.181-0.226-0.376-0.229-0.597
	c-0.011-0.675-0.407-0.992-1.016-1.121C12.815,10.225,12.271,9.953,12.812,9.296z"/>
<path class="st26" d="M10.593,16.535c0.005,0.665,0.754,1.503-0.438,1.892c-1.054-1.979-1.356-4.016-0.48-6.146
	c0.052-0.077,0.044-0.188,0.091-0.25c0.252-0.33,0.304-0.967,0.933-0.775c0.604,0.183,0.468,0.69,0.36,1.14
	c-0.075,0.316,0.121,0.589,0.119,0.892c-0.195,0.785-0.167,1.589-0.191,2.388C10.978,16.025,10.974,16.363,10.593,16.535z"/>
<path class="st10" d="M28.053,22.869c-0.765,1.361-1.902,2.376-3.09,3.35c-0.299,0.245-0.587,0.444-0.989,0.41
	c-0.563-0.104-1.137-0.022-1.7-0.104c-0.479-0.07-0.864-0.216-0.633-0.831c1.678-0.34,2.858-1.449,4.011-2.602
	c0.94,0.124,0.442-0.614,0.576-0.972c0.068-0.191,0.194-0.331,0.376-0.42c0.45-0.014,1.004-0.76,1.317,0.186
	C27.738,22.243,28.316,22.5,28.053,22.869z"/>
<path class="st3" d="M27.682,22.111c-0.173-0.751-0.634-0.003-0.918-0.177c-0.919-0.472-1.802-1.01-2.717-1.488
	c-0.322-0.192-0.674-0.275-1.041-0.341c-0.451-0.081-0.667-0.319-0.344-0.771c-0.088-0.181-0.271-0.395,0.091-0.473
	c0.33-0.071,0.67-0.14,1.005-0.036c1.606,0.498,3.103,1.218,4.464,2.211c0.226,0.188,0.603,0.312,0.452,0.704
	C28.497,22.205,28.038,22.049,27.682,22.111z"/>
<path class="st27" d="M10.765,13.193c-0.256-0.21-0.228-0.425-0.098-0.717c0.126-0.281,0.286-0.69-0.086-0.882
	c-0.419-0.215-0.522,0.263-0.732,0.484c-0.061,0.064-0.116,0.134-0.174,0.201c0.267-1.322,1.315-1.978,2.334-2.609
	c0.222-0.137,0.506-0.315,0.804-0.375c-0.177,0.55,0.274,0.715,0.589,0.963c0.182,0.423-0.129,0.633-0.397,0.813
	c-0.672,0.452-1.219,0.996-1.559,1.746C11.327,13.081,11.174,13.4,10.765,13.193z"/>
<path class="st28" d="M16.934,18.946c0.357,0.044,0.281,0.553,0.641,0.594c0.207,0.273,0.714,0.167,0.778,0.62
	c-0.17,0.785-0.818,0.718-1.393,0.784c-1.22-0.685-2.204-1.524-1.987-3.125c0.399-0.591,0.825-0.408,1.191,0.007
	C16.461,18.164,16.693,18.561,16.934,18.946z"/>
<path class="st29" d="M22.663,19.334c0.072,0.557,0.487,0.393,0.805,0.356c0.379-0.044,0.72-0.076,0.871,0.376
	c-0.802,0.56-1.478,1.256-2.182,1.93c-0.819,0.783-2.146,0.675-2.585-0.113c0.026-0.555,0.646-0.368,0.862-0.689
	c0.118-0.008,0.236-0.016,0.354-0.024c0.385-0.09,0.572-0.334,0.565-0.728C21.574,19.82,21.933,19.358,22.663,19.334z"/>
<path class="st30" d="M21.732,25.863c0.607,0.422,1.297,0.179,1.946,0.214c0.507,0.027,0.514,0.197,0.298,0.551
	c-0.784,0.638-2.698,0.452-3.58-0.348c0.26-0.144,0.348-0.411,0.468-0.655C21.254,25.335,21.539,25.43,21.732,25.863z"/>
<path class="st31" d="M16.934,18.946c-0.359-0.148-0.5-0.497-0.709-0.78c-0.276-0.373-0.623-0.416-1.028-0.276
	c-0.458,0.159-0.797-0.011-0.966-0.434c-0.186-0.467-0.267-0.952,0.272-1.285c0.361-0.137,0.722-0.099,1.083,0
	c0.217,0.164,0.505,0.296,0.517,0.601C16.137,17.596,16.666,18.219,16.934,18.946z"/>
<path class="st3" d="M20.433,21.195c0.102,0.165,0.447,0.176,0.35,0.447c-0.077,0.216-0.315,0.249-0.534,0.227
	c-0.207-0.02-0.413-0.048-0.619-0.073c-0.142,0.188-0.345,0.286-0.559,0.223c-0.704-0.208-1.334-0.581-1.95-0.968
	c-0.184-0.115-0.214-0.359-0.088-0.575c0.484,0.142,0.878,0.02,1.17-0.399c0.698,0.053,1.302,0.338,1.855,0.751
	C20.184,20.951,20.309,21.073,20.433,21.195z"/>
<path class="st32" d="M27.682,22.111c0.646-0.124,1.005-0.392,0.541-1.075c0.993,0.411,0.991,0.454,0.214,1.146
	c-0.185,0.165-0.259,0.455-0.384,0.687C28.09,22.538,27.477,22.525,27.682,22.111z"/>
<path class="st33" d="M21.353,20.443c0.222,0.232,0.438,0.529,0.208,0.802c-0.204,0.242-0.507-0.062-0.772-0.074
	C20.976,20.929,21.164,20.686,21.353,20.443z"/>
<path class="st15" d="M25.815,23.417c0.246-0.375,0.492-0.749,0.738-1.123c0.027,0.12,0.041,0.246,0.083,0.36
	c0.1,0.274,0.416,0.536,0.12,0.837C26.439,23.814,26.126,23.493,25.815,23.417z"/>
</svg>
